SplineFontDB: 3.2
FontName: Silom
FullName: Silom
FamilyName: Silom
Weight: Book
Copyright: (c) 1992-2003 Apple Computer, Inc.
Version: 10.4d5e1
ItalicAngle: 0
UnderlinePosition: -57
UnderlineWidth: 8
Ascent: 800
Descent: 200
InvalidEm: 0
sfntRevision: 0x00010000
LayerCount: 2
Layer: 0 1 "Back" 1
Layer: 1 1 "Fore" 0
XUID: [1021 743 -351763651 4773281]
StyleMap: 0x0040
FSType: 2
OS2Version: 2
OS2_WeightWidthSlopeOnly: 0
OS2_UseTypoMetrics: 0
CreationTime: 991762804
ModificationTime: 1632845572
PfmFamily: 81
TTFWeight: 400
TTFWidth: 5
LineGap: 0
VLineGap: 0
Panose: 0 0 4 0 0 0 0 0 0 0
OS2TypoAscent: 959
OS2TypoAOffset: 0
OS2TypoDescent: -316
OS2TypoDOffset: 0
OS2TypoLinegap: 0
OS2WinAscent: 1000
OS2WinAOffset: 0
OS2WinDescent: 250
OS2WinDOffset: 0
HheadAscent: 959
HheadAOffset: 0
HheadDescent: -316
HheadDOffset: 0
OS2SubXSize: 700
OS2SubYSize: 650
OS2SubXOff: 0
OS2SubYOff: 143
OS2SupXSize: 700
OS2SupYSize: 650
OS2SupXOff: 0
OS2SupYOff: 453
OS2StrikeYSize: 50
OS2StrikeYPos: 259
OS2CapHeight: 1536
OS2XHeight: 1024
OS2Vendor: 'Alts'
OS2CodePages: 20000193.4d000000
OS2UnicodeRanges: a10000ff.5000205a.00000020.00000000
Lookup: 1 0 0 "'rtla' Right to Left Alternates lookup 0" { "'rtla' Right to Left Alternates lookup 0 subtable"  } ['rtla' ('DFLT' <'dflt' > ) ]
Lookup: 4 0 1 "'rlig' Required Ligatures in Latin lookup 1" { "'rlig' Required Ligatures in Latin lookup 1 subtable"  } ['rlig' ('latn' <'dflt' > ) ]
Lookup: 1 0 0 "Single Substitution lookup 2" { "Single Substitution lookup 2 subtable"  } []
Lookup: 1 0 0 "Single Substitution lookup 3" { "Single Substitution lookup 3 subtable"  } []
Lookup: 1 0 0 "Single Substitution lookup 4" { "Single Substitution lookup 4 subtable"  } []
Lookup: 1 0 0 "Single Substitution lookup 5" { "Single Substitution lookup 5 subtable"  } []
Lookup: 1 0 0 "Single Substitution lookup 6" { "Single Substitution lookup 6 subtable"  } []
Lookup: 1 0 0 "Single Substitution lookup 7" { "Single Substitution lookup 7 subtable"  } []

StartChar: .notdef
Encoding: 65536 -1 0
Width: 500
Flags: W
LayerCount: 2
Fore
SplineSet
63 0 m 1,0,-1
 63 800 l 1,1,-1
 438 800 l 1,2,-1
 438 0 l 1,3,-1
 63 0 l 1,0,-1
125 63 m 1,4,-1
 375 63 l 1,5,-1
 375 738 l 1,6,-1
 125 738 l 1,7,-1
 125 63 l 1,4,-1
EndSplineSet
Validated: 1
EndChar

StartChar: exclam
Encoding: 33 33 5
Width: 500
GlyphClass: 2
Flags: W
LayerCount: 2
Fore
SplineSet
167 250 m 1,0,-1
 167 750 l 1,1,-1
 333 750 l 1,2,-1
 333 250 l 1,3,-1
 167 250 l 1,0,-1
167 0 m 1,4,-1
 167 167 l 1,5,-1
 333 167 l 1,6,-1
 333 0 l 1,7,-1
 167 0 l 1,4,-1
EndSplineSet
Validated: 1
EndChar

StartChar: quotedbl
Encoding: 34 34 6
Width: 583
GlyphClass: 2
Flags: W
LayerCount: 2
Fore
SplineSet
167 500 m 1,0,-1
 167 750 l 1,1,-1
 250 750 l 1,2,-1
 250 500 l 1,3,-1
 167 500 l 1,0,-1
333 500 m 1,4,-1
 333 750 l 1,5,-1
 417 750 l 1,6,-1
 417 500 l 1,7,-1
 333 500 l 1,4,-1
EndSplineSet
Validated: 1
EndChar

StartChar: numbersign
Encoding: 35 35 7
Width: 833
GlyphClass: 2
Flags: W
LayerCount: 2
Fore
SplineSet
333 750 m 1,0,-1
 417 750 l 1,1,-1
 375 583 l 1,2,-1
 542 583 l 1,3,-1
 583 750 l 1,4,-1
 667 750 l 1,5,-1
 625 583 l 1,6,-1
 750 583 l 1,7,-1
 750 500 l 1,8,-1
 604 500 l 1,9,-1
 563 333 l 1,10,-1
 667 333 l 1,11,-1
 667 250 l 1,12,-1
 542 250 l 1,13,-1
 500 83 l 1,14,-1
 417 83 l 1,15,-1
 458 250 l 1,16,-1
 292 250 l 1,17,-1
 250 83 l 1,18,-1
 167 83 l 1,19,-1
 208 250 l 1,20,-1
 83 250 l 1,21,-1
 83 333 l 1,22,-1
 229 333 l 1,23,-1
 271 500 l 1,24,-1
 167 500 l 1,25,-1
 167 583 l 1,26,-1
 292 583 l 1,27,-1
 333 750 l 1,0,-1
354 500 m 1,28,-1
 313 333 l 1,29,-1
 479 333 l 1,30,-1
 521 500 l 1,31,-1
 354 500 l 1,28,-1
EndSplineSet
Validated: 1
EndChar

StartChar: dollar
Encoding: 36 36 8
Width: 583
GlyphClass: 2
Flags: W
LayerCount: 2
Fore
SplineSet
500 583 m 1,0,-1
 417 583 l 1,1,2
 406 667 406 667 333 667 c 1,3,-1
 333 438 l 1,4,-1
 451 326 l 2,5,6
 500 280 500 280 500 208 c 2,7,-1
 500 167 l 2,8,9
 500 19 500 19 333 0 c 1,10,-1
 333 -83 l 1,11,-1
 250 -83 l 1,12,-1
 250 0 l 1,13,14
 83 14 83 14 83 167 c 1,15,-1
 167 167 l 1,16,-1
 167 152 l 2,17,18
 167 92 167 92 250 83 c 1,19,-1
 250 313 l 1,20,-1
 132 424 l 2,21,22
 83 470 83 470 83 542 c 2,23,-1
 83 583 l 2,24,25
 83 731 83 731 250 750 c 1,26,-1
 250 833 l 1,27,-1
 333 833 l 1,28,-1
 333 750 l 1,29,30
 490 750 490 750 500 583 c 1,0,-1
333 250 m 1,31,-1
 333 83 l 1,32,33
 385 104 385 104 385 161 c 0,34,35
 385 199 385 199 333 250 c 1,31,-1
250 667 m 1,36,37
 199 646 199 646 199 589 c 0,38,39
 199 566 199 566 211.5 546.5 c 128,-1,40
 224 527 224 527 250 500 c 1,41,-1
 250 667 l 1,36,37
EndSplineSet
Validated: 1
EndChar

StartChar: percent
Encoding: 37 37 9
Width: 917
GlyphClass: 2
Flags: W
LayerCount: 2
Fore
SplineSet
83 583 m 0,0,1
 83 652 83 652 132.5 701 c 128,-1,2
 182 750 182 750 250 750 c 256,3,4
 318 750 318 750 367.5 701 c 128,-1,5
 417 652 417 652 417 583 c 0,6,7
 417 516 417 516 368 466.5 c 128,-1,8
 319 417 319 417 250 417 c 256,9,10
 181 417 181 417 132 466.5 c 128,-1,11
 83 516 83 516 83 583 c 0,0,1
417 750 m 1,12,-1
 708 750 l 1,13,-1
 292 0 l 1,14,-1
 208 0 l 1,15,-1
 583 667 l 1,16,-1
 417 667 l 1,17,-1
 417 750 l 1,12,-1
167 583 m 0,18,19
 167 549 167 549 191.5 524.5 c 128,-1,20
 216 500 216 500 250 500 c 0,21,22
 285 500 285 500 309 524.5 c 128,-1,23
 333 549 333 549 333 583 c 0,24,25
 333 618 333 618 308.5 642.5 c 128,-1,26
 284 667 284 667 250 667 c 256,27,28
 216 667 216 667 191.5 642.5 c 128,-1,29
 167 618 167 618 167 583 c 0,18,19
500 167 m 256,30,31
 500 235 500 235 549.5 284 c 128,-1,32
 599 333 599 333 667 333 c 256,33,34
 735 333 735 333 784 284 c 128,-1,35
 833 235 833 235 833 167 c 256,36,37
 833 99 833 99 784.5 49.5 c 128,-1,38
 736 0 736 0 667 0 c 256,39,40
 598 0 598 0 549 49.5 c 128,-1,41
 500 99 500 99 500 167 c 256,30,31
583 167 m 256,42,43
 583 133 583 133 607.5 108 c 128,-1,44
 632 83 632 83 667 83 c 0,45,46
 701 83 701 83 725.5 108 c 128,-1,47
 750 133 750 133 750 167 c 256,48,49
 750 201 750 201 725.5 225.5 c 128,-1,50
 701 250 701 250 667 250 c 256,51,52
 633 250 633 250 608 225.5 c 128,-1,53
 583 201 583 201 583 167 c 256,42,43
EndSplineSet
Validated: 1
EndChar

StartChar: ampersand
Encoding: 38 38 10
Width: 833
GlyphClass: 2
Flags: W
LayerCount: 2
Fore
SplineSet
667 500 m 1,0,-1
 750 500 l 1,1,-1
 750 417 l 2,2,3
 750 345 750 345 702.5 297.5 c 128,-1,4
 655 250 655 250 591 250 c 2,5,-1
 583 250 l 1,6,-1
 583 167 l 2,7,8
 583 111 583 111 535 55.5 c 128,-1,9
 487 0 487 0 417 0 c 2,10,-1
 250 0 l 2,11,12
 180 0 180 0 131.5 55.5 c 128,-1,13
 83 111 83 111 83 167 c 2,14,-1
 83 250 l 2,15,16
 83 306 83 306 125 361.5 c 128,-1,17
 167 417 167 417 250 417 c 1,18,19
 83 436 83 436 83 583 c 0,20,21
 83 651 83 651 132.5 700.5 c 128,-1,22
 182 750 182 750 250 750 c 2,23,-1
 417 750 l 2,24,25
 485 750 485 750 534 700.5 c 128,-1,26
 583 651 583 651 583 583 c 2,27,-1
 583 500 l 1,28,-1
 417 500 l 1,29,-1
 417 583 l 2,30,31
 417 618 417 618 392.5 642.5 c 128,-1,32
 368 667 368 667 333 667 c 0,33,34
 299 667 299 667 274.5 642.5 c 128,-1,35
 250 618 250 618 250 583 c 2,36,-1
 250 542 l 2,37,38
 250 468 250 468 333 458 c 1,39,-1
 333 375 l 1,40,41
 250 364 250 364 250 292 c 2,42,-1
 250 167 l 2,43,44
 250 125 250 125 274.5 104 c 128,-1,45
 299 83 299 83 333 83 c 0,46,47
 368 83 368 83 392.5 104 c 128,-1,48
 417 125 417 125 417 167 c 2,49,-1
 417 333 l 1,50,-1
 583 333 l 2,51,52
 618 333 618 333 642.5 357.5 c 128,-1,53
 667 382 667 382 667 417 c 2,54,-1
 667 500 l 1,0,-1
EndSplineSet
Validated: 1
EndChar

StartChar: quotesingle
Encoding: 39 39 11
Width: 250
GlyphClass: 2
Flags: W
LayerCount: 2
Fore
SplineSet
83 500 m 1,0,-1
 83 750 l 1,1,-1
 167 750 l 1,2,-1
 167 500 l 1,3,-1
 83 500 l 1,0,-1
EndSplineSet
Validated: 1
EndChar

StartChar: parenleft
Encoding: 40 40 12
Width: 417
GlyphClass: 2
Flags: W
LayerCount: 2
Fore
SplineSet
333 -83 m 1,0,-1
 327 -83 l 2,1,2
 236 -83 236 -83 159.5 -7 c 128,-1,3
 83 69 83 69 83 200 c 2,4,-1
 83 550 l 2,5,6
 83 681 83 681 159.5 757 c 128,-1,7
 236 833 236 833 327 833 c 2,8,-1
 333 833 l 1,9,-1
 333 750 l 1,10,11
 250 740 250 740 250 667 c 2,12,-1
 250 83 l 2,13,14
 250 9 250 9 333 0 c 1,15,-1
 333 -83 l 1,0,-1
EndSplineSet
Validated: 1
Substitution2: "'rtla' Right to Left Alternates lookup 0 subtable" parenright
EndChar

StartChar: parenright
Encoding: 41 41 13
Width: 417
GlyphClass: 2
Flags: W
LayerCount: 2
Fore
SplineSet
83 833 m 1,0,-1
 90 833 l 2,1,2
 181 833 181 833 257 757 c 128,-1,3
 333 681 333 681 333 550 c 2,4,-1
 333 200 l 2,5,6
 333 69 333 69 257 -7 c 128,-1,7
 181 -83 181 -83 90 -83 c 2,8,-1
 83 -83 l 1,9,-1
 83 0 l 1,10,11
 167 10 167 10 167 83 c 2,12,-1
 167 667 l 2,13,14
 167 741 167 741 83 750 c 1,15,-1
 83 833 l 1,0,-1
EndSplineSet
Validated: 1
Substitution2: "'rtla' Right to Left Alternates lookup 0 subtable" parenleft
EndChar

StartChar: asterisk
Encoding: 42 42 14
Width: 583
GlyphClass: 2
Flags: W
LayerCount: 2
Fore
SplineSet
250 572 m 1,0,-1
 250 722 l 1,1,-1
 333 722 l 1,2,-1
 333 572 l 1,3,-1
 463 647 l 1,4,-1
 505 575 l 1,5,-1
 375 500 l 1,6,-1
 505 425 l 1,7,-1
 463 353 l 1,8,-1
 333 428 l 1,9,-1
 333 278 l 1,10,-1
 250 278 l 1,11,-1
 250 428 l 1,12,-1
 120 353 l 1,13,-1
 79 425 l 1,14,-1
 208 500 l 1,15,-1
 79 575 l 1,16,-1
 120 647 l 1,17,-1
 250 572 l 1,0,-1
EndSplineSet
Validated: 1
EndChar

StartChar: plus
Encoding: 43 43 15
Width: 583
GlyphClass: 2
Flags: W
LayerCount: 2
Fore
SplineSet
83 250 m 1,0,-1
 83 333 l 1,1,-1
 250 333 l 1,2,-1
 250 500 l 1,3,-1
 333 500 l 1,4,-1
 333 333 l 1,5,-1
 500 333 l 1,6,-1
 500 250 l 1,7,-1
 333 250 l 1,8,-1
 333 83 l 1,9,-1
 250 83 l 1,10,-1
 250 250 l 1,11,-1
 83 250 l 1,0,-1
EndSplineSet
Validated: 1
EndChar

StartChar: comma
Encoding: 44 44 16
Width: 333
GlyphClass: 2
Flags: W
LayerCount: 2
Fore
SplineSet
83 167 m 1,0,-1
 250 167 l 1,1,-1
 250 0 l 2,2,3
 250 -148 250 -148 83 -167 c 1,4,-1
 83 -83 l 1,5,6
 164 -81 164 -81 167 0 c 1,7,-1
 83 0 l 1,8,-1
 83 167 l 1,0,-1
EndSplineSet
Validated: 1
EndChar

StartChar: hyphen
Encoding: 45 45 17
Width: 583
GlyphClass: 2
Flags: W
LayerCount: 2
Fore
SplineSet
83 250 m 1,0,-1
 83 333 l 1,1,-1
 500 333 l 1,2,-1
 500 250 l 1,3,-1
 83 250 l 1,0,-1
EndSplineSet
Validated: 1
EndChar

StartChar: period
Encoding: 46 46 18
Width: 333
GlyphClass: 2
Flags: W
LayerCount: 2
Fore
SplineSet
83 0 m 1,0,-1
 83 167 l 1,1,-1
 250 167 l 1,2,-1
 250 0 l 1,3,-1
 83 0 l 1,0,-1
EndSplineSet
Validated: 1
EndChar

StartChar: slash
Encoding: 47 47 19
Width: 583
GlyphClass: 2
Flags: W
LayerCount: 2
Fore
SplineSet
83 0 m 1,0,-1
 417 833 l 1,1,-1
 500 833 l 1,2,-1
 167 0 l 1,3,-1
 83 0 l 1,0,-1
EndSplineSet
Validated: 1
EndChar

StartChar: zero
Encoding: 48 48 20
Width: 667
GlyphClass: 2
Flags: W
LayerCount: 2
Fore
SplineSet
250 750 m 2,0,-1
 417 750 l 2,1,2
 485 750 485 750 534 700.5 c 128,-1,3
 583 651 583 651 583 583 c 2,4,-1
 583 167 l 2,5,6
 583 99 583 99 534 49.5 c 128,-1,7
 485 0 485 0 417 0 c 2,8,-1
 250 0 l 2,9,10
 182 0 182 0 132.5 49 c 128,-1,11
 83 98 83 98 83 167 c 2,12,-1
 83 583 l 2,13,14
 83 652 83 652 132.5 701 c 128,-1,15
 182 750 182 750 250 750 c 2,0,-1
252 153 m 1,16,17
 258 119 258 119 278.5 101 c 128,-1,18
 299 83 299 83 333 83 c 0,19,20
 368 83 368 83 392.5 108 c 128,-1,21
 417 133 417 133 417 167 c 2,22,-1
 417 450 l 1,23,-1
 252 153 l 1,16,17
416 598 m 1,24,25
 398 667 398 667 333 667 c 0,26,27
 299 667 299 667 274.5 642.5 c 128,-1,28
 250 618 250 618 250 583 c 2,29,-1
 250 300 l 1,30,-1
 416 598 l 1,24,25
EndSplineSet
Validated: 1
EndChar

StartChar: one
Encoding: 49 49 21
Width: 667
GlyphClass: 2
Flags: W
LayerCount: 2
Fore
SplineSet
250 0 m 1,0,-1
 250 583 l 1,1,-1
 167 583 l 1,2,-1
 167 667 l 1,3,-1
 333 750 l 1,4,-1
 417 750 l 1,5,-1
 417 0 l 1,6,-1
 250 0 l 1,0,-1
EndSplineSet
Validated: 1
EndChar

StartChar: two
Encoding: 50 50 22
Width: 667
GlyphClass: 2
Flags: W
LayerCount: 2
Fore
SplineSet
167 583 m 1,0,-1
 83 583 l 1,1,2
 103 750 103 750 250 750 c 2,3,-1
 417 750 l 2,4,5
 485 750 485 750 534 700.5 c 128,-1,6
 583 651 583 651 583 583 c 2,7,-1
 583 542 l 2,8,9
 583 455 583 455 422 317 c 1,10,-1
 411 308 l 1,11,12
 250 170 250 170 250 91 c 2,13,-1
 250 83 l 1,14,-1
 583 83 l 1,15,-1
 583 0 l 1,16,-1
 83 0 l 1,17,-1
 83 83 l 2,18,19
 83 170 83 170 245 308 c 1,20,-1
 256 317 l 1,21,22
 417 455 417 455 417 542 c 2,23,-1
 417 583 l 2,24,25
 417 618 417 618 392 642.5 c 128,-1,26
 367 667 367 667 333 667 c 2,27,-1
 250 667 l 2,28,29
 173 667 173 667 167 583 c 1,0,-1
EndSplineSet
Validated: 1
EndChar

StartChar: three
Encoding: 51 51 23
Width: 667
GlyphClass: 2
Flags: W
LayerCount: 2
Fore
SplineSet
83 750 m 1,0,-1
 583 750 l 1,1,-1
 583 667 l 1,2,-1
 333 500 l 1,3,-1
 417 500 l 2,4,5
 489 500 489 500 536 445 c 128,-1,6
 583 390 583 390 583 333 c 2,7,-1
 583 167 l 2,8,9
 583 98 583 98 534 49 c 128,-1,10
 485 0 485 0 417 0 c 2,11,-1
 250 0 l 2,12,13
 103 0 103 0 83 167 c 1,14,-1
 167 167 l 1,15,16
 173 83 173 83 250 83 c 2,17,-1
 333 83 l 2,18,19
 368 83 368 83 392.5 107.5 c 128,-1,20
 417 132 417 132 417 167 c 2,21,-1
 417 333 l 2,22,23
 417 353 417 353 396 385 c 128,-1,24
 375 417 375 417 333 417 c 2,25,-1
 167 417 l 1,26,-1
 167 500 l 1,27,-1
 417 667 l 1,28,-1
 83 667 l 1,29,-1
 83 750 l 1,0,-1
EndSplineSet
Validated: 1
EndChar

StartChar: four
Encoding: 52 52 24
Width: 667
GlyphClass: 2
Flags: W
LayerCount: 2
Fore
SplineSet
333 333 m 1,0,-1
 333 646 l 1,1,-1
 83 333 l 1,2,-1
 333 333 l 1,0,-1
333 0 m 1,3,-1
 333 250 l 1,4,-1
 0 250 l 1,5,-1
 0 333 l 1,6,-1
 333 750 l 1,7,-1
 500 750 l 1,8,-1
 500 333 l 1,9,-1
 583 333 l 1,10,-1
 583 250 l 1,11,-1
 500 250 l 1,12,-1
 500 0 l 1,13,-1
 333 0 l 1,3,-1
EndSplineSet
Validated: 1
EndChar

StartChar: five
Encoding: 53 53 25
Width: 667
GlyphClass: 2
Flags: W
LayerCount: 2
Fore
SplineSet
83 750 m 1,0,-1
 583 750 l 1,1,-1
 583 667 l 1,2,-1
 250 667 l 1,3,-1
 250 500 l 1,4,-1
 417 500 l 2,5,6
 485 500 485 500 534 451 c 128,-1,7
 583 402 583 402 583 333 c 2,8,-1
 583 167 l 2,9,10
 583 98 583 98 534 49 c 128,-1,11
 485 0 485 0 417 0 c 2,12,-1
 250 0 l 2,13,14
 103 0 103 0 83 167 c 1,15,-1
 167 167 l 1,16,17
 173 83 173 83 250 83 c 2,18,-1
 333 83 l 2,19,20
 368 83 368 83 392.5 107.5 c 128,-1,21
 417 132 417 132 417 167 c 2,22,-1
 417 333 l 2,23,24
 417 368 417 368 392.5 392.5 c 128,-1,25
 368 417 368 417 333 417 c 2,26,-1
 83 417 l 1,27,-1
 83 750 l 1,0,-1
EndSplineSet
Validated: 1
EndChar

StartChar: six
Encoding: 54 54 26
Width: 667
GlyphClass: 2
Flags: W
LayerCount: 2
Fore
SplineSet
417 167 m 2,0,-1
 417 333 l 2,1,2
 417 368 417 368 392.5 392.5 c 128,-1,3
 368 417 368 417 333 417 c 0,4,5
 299 417 299 417 274.5 392.5 c 128,-1,6
 250 368 250 368 250 333 c 2,7,-1
 250 167 l 2,8,9
 250 133 250 133 274.5 108 c 128,-1,10
 299 83 299 83 333 83 c 0,11,12
 368 83 368 83 392.5 108 c 128,-1,13
 417 133 417 133 417 167 c 2,0,-1
250 417 m 1,14,15
 255 458 255 458 276 479 c 128,-1,16
 297 500 297 500 333 500 c 2,17,-1
 417 500 l 2,18,19
 485 500 485 500 534 451 c 128,-1,20
 583 402 583 402 583 333 c 2,21,-1
 583 167 l 2,22,23
 583 99 583 99 534 49.5 c 128,-1,24
 485 0 485 0 417 0 c 2,25,-1
 250 0 l 2,26,27
 182 0 182 0 132.5 49.5 c 128,-1,28
 83 99 83 99 83 167 c 2,29,-1
 83 458 l 2,30,31
 83 578 83 578 169.5 664 c 128,-1,32
 256 750 256 750 375 750 c 2,33,-1
 500 750 l 1,34,-1
 500 667 l 1,35,-1
 417 667 l 2,36,37
 348 667 348 667 299 617.5 c 128,-1,38
 250 568 250 568 250 500 c 2,39,-1
 250 417 l 1,14,15
EndSplineSet
Validated: 1
EndChar

StartChar: seven
Encoding: 55 55 27
Width: 667
GlyphClass: 2
Flags: W
LayerCount: 2
Fore
SplineSet
83 750 m 1,0,-1
 583 750 l 1,1,-1
 583 583 l 1,2,-1
 542 500 l 1,3,-1
 500 417 l 1,4,5
 417 241 417 241 417 167 c 2,6,-1
 417 0 l 1,7,-1
 250 0 l 1,8,-1
 250 167 l 2,9,10
 250 250 250 250 333 417 c 2,11,-1
 417 583 l 1,12,-1
 417 667 l 1,13,-1
 83 667 l 1,14,-1
 83 750 l 1,0,-1
EndSplineSet
Validated: 1
EndChar

StartChar: eight
Encoding: 56 56 28
Width: 667
GlyphClass: 2
Flags: W
LayerCount: 2
Fore
SplineSet
417 375 m 1,0,1
 500 375 500 375 541.5 321 c 128,-1,2
 583 267 583 267 583 208 c 2,3,-1
 583 167 l 2,4,5
 583 111 583 111 535 55.5 c 128,-1,6
 487 0 487 0 417 0 c 2,7,-1
 250 0 l 2,8,9
 180 0 180 0 131.5 55.5 c 128,-1,10
 83 111 83 111 83 167 c 2,11,-1
 83 208 l 2,12,13
 83 267 83 267 125 321 c 128,-1,14
 167 375 167 375 250 375 c 1,15,16
 167 385 167 385 125 426.5 c 128,-1,17
 83 468 83 468 83 542 c 2,18,-1
 83 583 l 2,19,20
 83 651 83 651 132.5 700.5 c 128,-1,21
 182 750 182 750 250 750 c 2,22,-1
 417 750 l 2,23,24
 485 750 485 750 534 700.5 c 128,-1,25
 583 651 583 651 583 583 c 2,26,-1
 583 542 l 2,27,28
 583 468 583 468 541.5 426.5 c 128,-1,29
 500 385 500 385 417 375 c 1,0,1
417 500 m 2,30,-1
 417 583 l 2,31,32
 417 618 417 618 392.5 642.5 c 128,-1,33
 368 667 368 667 333 667 c 0,34,35
 299 667 299 667 274.5 642.5 c 128,-1,36
 250 618 250 618 250 583 c 2,37,-1
 250 500 l 2,38,39
 250 466 250 466 274.5 441.5 c 128,-1,40
 299 417 299 417 333 417 c 0,41,42
 368 417 368 417 392.5 441.5 c 128,-1,43
 417 466 417 466 417 500 c 2,30,-1
417 167 m 2,44,-1
 417 250 l 2,45,46
 417 333 417 333 333 333 c 0,47,48
 250 333 250 333 250 250 c 2,49,-1
 250 167 l 2,50,51
 250 132 250 132 274.5 107.5 c 128,-1,52
 299 83 299 83 333 83 c 0,53,54
 368 83 368 83 392.5 107.5 c 128,-1,55
 417 132 417 132 417 167 c 2,44,-1
EndSplineSet
Validated: 1
EndChar

StartChar: nine
Encoding: 57 57 29
Width: 667
GlyphClass: 2
Flags: W
LayerCount: 2
Fore
SplineSet
250 583 m 2,0,-1
 250 417 l 2,1,2
 250 383 250 383 274.5 358 c 128,-1,3
 299 333 299 333 333 333 c 0,4,5
 368 333 368 333 392.5 358 c 128,-1,6
 417 383 417 383 417 417 c 2,7,-1
 417 583 l 2,8,9
 417 618 417 618 392.5 642.5 c 128,-1,10
 368 667 368 667 333 667 c 0,11,12
 299 667 299 667 274.5 642 c 128,-1,13
 250 617 250 617 250 583 c 2,0,-1
417 333 m 1,14,15
 407 250 407 250 333 250 c 2,16,-1
 250 250 l 2,17,18
 182 250 182 250 132.5 299 c 128,-1,19
 83 348 83 348 83 417 c 2,20,-1
 83 583 l 2,21,22
 83 651 83 651 132.5 700.5 c 128,-1,23
 182 750 182 750 250 750 c 2,24,-1
 417 750 l 2,25,26
 485 750 485 750 534 700.5 c 128,-1,27
 583 651 583 651 583 583 c 2,28,-1
 583 292 l 2,29,30
 583 172 583 172 497.5 86 c 128,-1,31
 412 0 412 0 292 0 c 2,32,-1
 167 0 l 1,33,-1
 167 83 l 1,34,-1
 250 83 l 2,35,36
 319 83 319 83 368 132.5 c 128,-1,37
 417 182 417 182 417 250 c 2,38,-1
 417 333 l 1,14,15
EndSplineSet
Validated: 1
EndChar

StartChar: colon
Encoding: 58 58 30
Width: 333
GlyphClass: 2
Flags: W
LayerCount: 2
Fore
SplineSet
83 0 m 1,0,-1
 83 167 l 1,1,-1
 250 167 l 1,2,-1
 250 0 l 1,3,-1
 83 0 l 1,0,-1
83 417 m 1,4,-1
 83 583 l 1,5,-1
 250 583 l 1,6,-1
 250 417 l 1,7,-1
 83 417 l 1,4,-1
EndSplineSet
Validated: 1
EndChar

StartChar: semicolon
Encoding: 59 59 31
Width: 333
GlyphClass: 2
Flags: W
LayerCount: 2
Fore
SplineSet
83 167 m 1,0,-1
 250 167 l 1,1,-1
 250 0 l 2,2,3
 250 -148 250 -148 83 -167 c 1,4,-1
 83 -83 l 1,5,6
 164 -81 164 -81 167 0 c 1,7,-1
 83 0 l 1,8,-1
 83 167 l 1,0,-1
83 417 m 1,9,-1
 83 583 l 1,10,-1
 250 583 l 1,11,-1
 250 417 l 1,12,-1
 83 417 l 1,9,-1
EndSplineSet
Validated: 1
EndChar

StartChar: less
Encoding: 60 60 32
Width: 500
GlyphClass: 2
Flags: W
LayerCount: 2
Fore
SplineSet
17 375 m 1,0,-1
 350 667 l 1,1,-1
 475 667 l 1,2,-1
 142 375 l 1,3,-1
 475 83 l 1,4,-1
 350 83 l 1,5,-1
 17 375 l 1,0,-1
EndSplineSet
Validated: 1
Substitution2: "'rtla' Right to Left Alternates lookup 0 subtable" greater
EndChar

StartChar: equal
Encoding: 61 61 33
Width: 667
GlyphClass: 2
Flags: W
LayerCount: 2
Fore
SplineSet
83 167 m 1,0,-1
 83 250 l 1,1,-1
 583 250 l 1,2,-1
 583 167 l 1,3,-1
 83 167 l 1,0,-1
83 333 m 1,4,-1
 83 417 l 1,5,-1
 583 417 l 1,6,-1
 583 333 l 1,7,-1
 83 333 l 1,4,-1
EndSplineSet
Validated: 1
EndChar

StartChar: greater
Encoding: 62 62 34
Width: 500
GlyphClass: 2
Flags: W
LayerCount: 2
Fore
SplineSet
483 375 m 1,0,-1
 150 83 l 1,1,-1
 25 83 l 1,2,-1
 358 375 l 1,3,-1
 25 667 l 1,4,-1
 150 667 l 1,5,-1
 483 375 l 1,0,-1
EndSplineSet
Validated: 1
Substitution2: "'rtla' Right to Left Alternates lookup 0 subtable" less
EndChar

StartChar: question
Encoding: 63 63 35
Width: 667
GlyphClass: 2
Flags: W
LayerCount: 2
Fore
SplineSet
250 0 m 1,0,-1
 250 167 l 1,1,-1
 417 167 l 1,2,-1
 417 0 l 1,3,-1
 250 0 l 1,0,-1
250 250 m 1,4,-1
 250 333 l 2,5,6
 250 437 250 437 358 502 c 2,7,-1
 372 510 l 2,8,9
 417 537 417 537 417 583 c 0,10,11
 417 617 417 617 392.5 642 c 128,-1,12
 368 667 368 667 333 667 c 2,13,-1
 250 667 l 2,14,15
 173 667 173 667 167 583 c 1,16,-1
 83 583 l 1,17,18
 103 750 103 750 250 750 c 2,19,-1
 417 750 l 2,20,21
 485 750 485 750 534 701 c 128,-1,22
 583 652 583 652 583 583 c 0,23,24
 583 475 583 475 488 433 c 2,25,-1
 475 427 l 2,26,27
 430 407 430 407 423.5 388 c 128,-1,28
 417 369 417 369 417 333 c 2,29,-1
 417 250 l 1,30,-1
 250 250 l 1,4,-1
EndSplineSet
Validated: 1
EndChar

StartChar: at
Encoding: 64 64 36
Width: 917
GlyphClass: 2
Flags: W
LayerCount: 2
Fore
SplineSet
500 500 m 1,0,-1
 417 500 l 2,1,2
 383 500 383 500 358 475.5 c 128,-1,3
 333 451 333 451 333 417 c 2,4,-1
 333 333 l 2,5,6
 333 299 333 299 357.5 274.5 c 128,-1,7
 382 250 382 250 417 250 c 0,8,9
 451 250 451 250 475.5 274.5 c 128,-1,10
 500 299 500 299 500 333 c 2,11,-1
 500 500 l 1,0,-1
667 0 m 1,12,-1
 375 0 l 2,13,14
 256 0 256 0 169.5 86 c 128,-1,15
 83 172 83 172 83 292 c 2,16,-1
 83 458 l 2,17,18
 83 578 83 578 169.5 664 c 128,-1,19
 256 750 256 750 375 750 c 2,20,-1
 542 750 l 2,21,22
 661 750 661 750 747 664 c 128,-1,23
 833 578 833 578 833 458 c 2,24,-1
 833 250 l 2,25,26
 833 216 833 216 809 191.5 c 128,-1,27
 785 167 785 167 750 167 c 2,28,-1
 583 167 l 2,29,30
 510 167 510 167 500 250 c 1,31,32
 496 208 496 208 472 187.5 c 128,-1,33
 448 167 448 167 402 167 c 0,34,35
 349 167 349 167 299.5 215.5 c 128,-1,36
 250 264 250 264 250 333 c 2,37,-1
 250 417 l 2,38,39
 250 485 250 485 299.5 534 c 128,-1,40
 349 583 349 583 417 583 c 2,41,-1
 583 583 l 1,42,-1
 583 292 l 2,43,44
 583 250 583 250 625 250 c 2,45,-1
 708 250 l 2,46,47
 750 250 750 250 750 292 c 2,48,-1
 750 458 l 2,49,50
 750 542 750 542 689 604.5 c 128,-1,51
 628 667 628 667 542 667 c 2,52,-1
 375 667 l 2,53,54
 291 667 291 667 229 606 c 128,-1,55
 167 545 167 545 167 458 c 2,56,-1
 167 292 l 2,57,58
 167 208 167 208 228 145.5 c 128,-1,59
 289 83 289 83 375 83 c 2,60,-1
 667 83 l 1,61,-1
 667 0 l 1,12,-1
EndSplineSet
Validated: 1
EndChar

StartChar: A
Encoding: 65 65 37
Width: 667
GlyphClass: 2
Flags: W
LayerCount: 2
Fore
SplineSet
83 0 m 1,0,-1
 83 583 l 2,1,2
 83 652 83 652 132.5 701 c 128,-1,3
 182 750 182 750 250 750 c 2,4,-1
 417 750 l 2,5,6
 485 750 485 750 534 700.5 c 128,-1,7
 583 651 583 651 583 583 c 2,8,-1
 583 0 l 1,9,-1
 417 0 l 1,10,-1
 417 333 l 1,11,-1
 250 333 l 1,12,-1
 250 0 l 1,13,-1
 83 0 l 1,0,-1
250 417 m 1,14,-1
 417 417 l 1,15,-1
 417 583 l 2,16,17
 417 618 417 618 392.5 642.5 c 128,-1,18
 368 667 368 667 333 667 c 0,19,20
 299 667 299 667 274.5 642.5 c 128,-1,21
 250 618 250 618 250 583 c 2,22,-1
 250 417 l 1,14,-1
EndSplineSet
Validated: 1
EndChar

StartChar: B
Encoding: 66 66 38
Width: 667
GlyphClass: 2
Flags: W
LayerCount: 2
Fore
SplineSet
83 0 m 1,0,-1
 83 750 l 1,1,-1
 417 750 l 2,2,3
 485 750 485 750 534 700.5 c 128,-1,4
 583 651 583 651 583 583 c 2,5,-1
 583 542 l 2,6,7
 583 468 583 468 541.5 426.5 c 128,-1,8
 500 385 500 385 417 375 c 1,9,10
 500 375 500 375 541.5 324.5 c 128,-1,11
 583 274 583 274 583 208 c 2,12,-1
 583 167 l 2,13,14
 583 99 583 99 534 49.5 c 128,-1,15
 485 0 485 0 417 0 c 2,16,-1
 83 0 l 1,0,-1
250 417 m 1,17,-1
 333 417 l 2,18,19
 368 417 368 417 392.5 441.5 c 128,-1,20
 417 466 417 466 417 500 c 2,21,-1
 417 583 l 2,22,23
 417 618 417 618 392.5 642.5 c 128,-1,24
 368 667 368 667 333 667 c 2,25,-1
 250 667 l 1,26,-1
 250 417 l 1,17,-1
250 83 m 1,27,-1
 333 83 l 2,28,29
 368 83 368 83 392.5 108 c 128,-1,30
 417 133 417 133 417 167 c 2,31,-1
 417 250 l 2,32,33
 417 333 417 333 333 333 c 2,34,-1
 250 333 l 1,35,-1
 250 83 l 1,27,-1
EndSplineSet
Validated: 1
EndChar

StartChar: C
Encoding: 67 67 39
Width: 667
GlyphClass: 2
Flags: W
LayerCount: 2
Fore
SplineSet
583 167 m 1,0,1
 573 0 573 0 417 0 c 2,2,-1
 250 0 l 2,3,4
 182 0 182 0 132.5 49 c 128,-1,5
 83 98 83 98 83 167 c 2,6,-1
 83 583 l 2,7,8
 83 651 83 651 131.5 700.5 c 128,-1,9
 180 750 180 750 250 750 c 2,10,-1
 417 750 l 2,11,12
 574 750 574 750 583 583 c 1,13,-1
 500 583 l 1,14,15
 490 667 490 667 417 667 c 2,16,-1
 333 667 l 2,17,18
 299 667 299 667 274.5 642.5 c 128,-1,19
 250 618 250 618 250 583 c 2,20,-1
 250 167 l 2,21,22
 250 133 250 133 274.5 108 c 128,-1,23
 299 83 299 83 333 83 c 2,24,-1
 417 83 l 2,25,26
 491 83 491 83 500 167 c 1,27,-1
 583 167 l 1,0,1
EndSplineSet
Validated: 1
EndChar

StartChar: D
Encoding: 68 68 40
Width: 667
GlyphClass: 2
Flags: W
LayerCount: 2
Fore
SplineSet
83 0 m 1,0,-1
 83 750 l 1,1,-1
 417 750 l 2,2,3
 485 750 485 750 534 700.5 c 128,-1,4
 583 651 583 651 583 583 c 2,5,-1
 583 167 l 2,6,7
 583 99 583 99 534 49.5 c 128,-1,8
 485 0 485 0 417 0 c 2,9,-1
 83 0 l 1,0,-1
250 83 m 1,10,-1
 333 83 l 2,11,12
 368 83 368 83 392.5 108 c 128,-1,13
 417 133 417 133 417 167 c 2,14,-1
 417 583 l 2,15,16
 417 618 417 618 392.5 642.5 c 128,-1,17
 368 667 368 667 333 667 c 2,18,-1
 250 667 l 1,19,-1
 250 83 l 1,10,-1
EndSplineSet
Validated: 1
EndChar

StartChar: E
Encoding: 69 69 41
Width: 583
GlyphClass: 2
Flags: W
LayerCount: 2
Fore
SplineSet
83 0 m 1,0,-1
 83 750 l 1,1,-1
 500 750 l 1,2,-1
 500 667 l 1,3,-1
 250 667 l 1,4,-1
 250 417 l 1,5,-1
 417 417 l 1,6,-1
 417 333 l 1,7,-1
 250 333 l 1,8,-1
 250 83 l 1,9,-1
 500 83 l 1,10,-1
 500 0 l 1,11,-1
 83 0 l 1,0,-1
EndSplineSet
Validated: 1
EndChar

StartChar: F
Encoding: 70 70 42
Width: 583
GlyphClass: 2
Flags: W
LayerCount: 2
Fore
SplineSet
83 0 m 1,0,-1
 83 750 l 1,1,-1
 500 750 l 1,2,-1
 500 667 l 1,3,-1
 250 667 l 1,4,-1
 250 417 l 1,5,-1
 417 417 l 1,6,-1
 417 333 l 1,7,-1
 250 333 l 1,8,-1
 250 0 l 1,9,-1
 83 0 l 1,0,-1
EndSplineSet
Validated: 1
EndChar

StartChar: G
Encoding: 71 71 43
Width: 667
GlyphClass: 2
Flags: W
LayerCount: 2
Fore
SplineSet
333 417 m 1,0,-1
 583 417 l 1,1,-1
 583 167 l 2,2,3
 583 83 583 83 530 41.5 c 128,-1,4
 477 0 477 0 417 0 c 2,5,-1
 250 0 l 2,6,7
 182 0 182 0 132.5 49 c 128,-1,8
 83 98 83 98 83 167 c 2,9,-1
 83 583 l 2,10,11
 83 651 83 651 131.5 700.5 c 128,-1,12
 180 750 180 750 250 750 c 2,13,-1
 417 750 l 2,14,15
 574 750 574 750 583 583 c 1,16,-1
 500 583 l 1,17,18
 490 667 490 667 417 667 c 2,19,-1
 333 667 l 2,20,21
 299 667 299 667 274.5 642.5 c 128,-1,22
 250 618 250 618 250 583 c 2,23,-1
 250 167 l 2,24,25
 250 132 250 132 274.5 107.5 c 128,-1,26
 299 83 299 83 333 83 c 0,27,28
 413 87 413 87 417 167 c 1,29,-1
 417 333 l 1,30,-1
 333 333 l 1,31,-1
 333 417 l 1,0,-1
EndSplineSet
Validated: 1
EndChar

StartChar: H
Encoding: 72 72 44
Width: 667
GlyphClass: 2
Flags: W
LayerCount: 2
Fore
SplineSet
83 0 m 1,0,-1
 83 750 l 1,1,-1
 250 750 l 1,2,-1
 250 417 l 1,3,-1
 417 417 l 1,4,-1
 417 750 l 1,5,-1
 583 750 l 1,6,-1
 583 0 l 1,7,-1
 417 0 l 1,8,-1
 417 333 l 1,9,-1
 250 333 l 1,10,-1
 250 0 l 1,11,-1
 83 0 l 1,0,-1
EndSplineSet
Validated: 1
EndChar

StartChar: I
Encoding: 73 73 45
Width: 330
GlyphClass: 2
Flags: W
LayerCount: 2
Fore
SplineSet
82 0 m 1,0,-1
 82 750 l 1,1,-1
 248 750 l 1,2,-1
 248 0 l 1,3,-1
 82 0 l 1,0,-1
EndSplineSet
EndChar

StartChar: J
Encoding: 74 74 46
Width: 583
GlyphClass: 2
Flags: W
LayerCount: 2
Fore
SplineSet
500 750 m 1,0,-1
 500 167 l 2,1,2
 500 83 500 83 458.5 41.5 c 128,-1,3
 417 0 417 0 333 0 c 2,4,-1
 167 0 l 2,5,6
 83 0 83 0 41.5 41.5 c 128,-1,7
 0 83 0 83 0 167 c 2,8,-1
 0 333 l 1,9,-1
 167 333 l 1,10,-1
 167 167 l 2,11,12
 167 132 167 132 191.5 107.5 c 128,-1,13
 216 83 216 83 250 83 c 256,14,15
 284 83 284 83 308.5 107.5 c 128,-1,16
 333 132 333 132 333 167 c 2,17,-1
 333 750 l 1,18,-1
 500 750 l 1,0,-1
EndSplineSet
Validated: 1
EndChar

StartChar: K
Encoding: 75 75 47
Width: 750
GlyphClass: 2
Flags: W
LayerCount: 2
Fore
SplineSet
83 0 m 1,0,-1
 83 750 l 1,1,-1
 250 750 l 1,2,-1
 250 444 l 1,3,-1
 520 750 l 1,4,-1
 667 750 l 1,5,-1
 333 375 l 1,6,-1
 667 0 l 1,7,-1
 500 0 l 1,8,-1
 250 292 l 1,9,-1
 250 0 l 1,10,-1
 83 0 l 1,0,-1
EndSplineSet
Validated: 1
EndChar

StartChar: L
Encoding: 76 76 48
Width: 583
GlyphClass: 2
Flags: W
LayerCount: 2
Fore
SplineSet
83 0 m 1,0,-1
 83 750 l 1,1,-1
 250 750 l 1,2,-1
 250 83 l 1,3,-1
 500 83 l 1,4,-1
 500 0 l 1,5,-1
 83 0 l 1,0,-1
EndSplineSet
Validated: 1
EndChar

StartChar: M
Encoding: 77 77 49
Width: 1000
GlyphClass: 2
Flags: W
LayerCount: 2
Fore
SplineSet
83 0 m 1,0,-1
 83 750 l 1,1,-1
 122 750 l 1,2,-1
 478 395 l 1,3,-1
 833 750 l 1,4,-1
 917 750 l 1,5,-1
 917 0 l 1,6,-1
 750 0 l 1,7,-1
 750 458 l 1,8,-1
 458 166 l 1,9,-1
 167 458 l 1,10,-1
 167 0 l 1,11,-1
 83 0 l 1,0,-1
EndSplineSet
Validated: 1
EndChar

StartChar: N
Encoding: 78 78 50
Width: 750
GlyphClass: 2
Flags: W
LayerCount: 2
Fore
SplineSet
83 0 m 1,0,-1
 83 750 l 1,1,-1
 122 750 l 1,2,-1
 583 333 l 1,3,-1
 583 750 l 1,4,-1
 667 750 l 1,5,-1
 667 0 l 1,6,-1
 629 0 l 1,7,-1
 167 417 l 1,8,-1
 167 0 l 1,9,-1
 83 0 l 1,0,-1
EndSplineSet
Validated: 1
EndChar

StartChar: O
Encoding: 79 79 51
Width: 667
GlyphClass: 2
Flags: W
LayerCount: 2
Fore
SplineSet
250 750 m 2,0,-1
 417 750 l 2,1,2
 485 750 485 750 534 700.5 c 128,-1,3
 583 651 583 651 583 583 c 2,4,-1
 583 167 l 2,5,6
 583 99 583 99 534 49.5 c 128,-1,7
 485 0 485 0 417 0 c 2,8,-1
 250 0 l 2,9,10
 182 0 182 0 132.5 49 c 128,-1,11
 83 98 83 98 83 167 c 2,12,-1
 83 583 l 2,13,14
 83 652 83 652 132.5 701 c 128,-1,15
 182 750 182 750 250 750 c 2,0,-1
250 583 m 2,16,-1
 250 167 l 2,17,18
 250 133 250 133 274.5 108 c 128,-1,19
 299 83 299 83 333 83 c 0,20,21
 368 83 368 83 392.5 108 c 128,-1,22
 417 133 417 133 417 167 c 2,23,-1
 417 583 l 2,24,25
 417 618 417 618 392.5 642.5 c 128,-1,26
 368 667 368 667 333 667 c 0,27,28
 299 667 299 667 274.5 642.5 c 128,-1,29
 250 618 250 618 250 583 c 2,16,-1
EndSplineSet
Validated: 1
EndChar

StartChar: P
Encoding: 80 80 52
Width: 667
GlyphClass: 2
Flags: W
LayerCount: 2
Fore
SplineSet
83 0 m 1,0,-1
 83 750 l 1,1,-1
 417 750 l 2,2,3
 485 750 485 750 534 700.5 c 128,-1,4
 583 651 583 651 583 583 c 2,5,-1
 583 500 l 2,6,7
 583 432 583 432 534 382.5 c 128,-1,8
 485 333 485 333 417 333 c 2,9,-1
 250 333 l 1,10,-1
 250 0 l 1,11,-1
 83 0 l 1,0,-1
250 417 m 1,12,-1
 333 417 l 2,13,14
 368 417 368 417 392.5 441.5 c 128,-1,15
 417 466 417 466 417 500 c 2,16,-1
 417 583 l 2,17,18
 417 618 417 618 392.5 642.5 c 128,-1,19
 368 667 368 667 333 667 c 2,20,-1
 250 667 l 1,21,-1
 250 417 l 1,12,-1
EndSplineSet
Validated: 1
EndChar

StartChar: Q
Encoding: 81 81 53
Width: 667
GlyphClass: 2
Flags: W
LayerCount: 2
Fore
SplineSet
375 0 m 1,0,-1
 250 0 l 2,1,2
 182 0 182 0 132.5 49 c 128,-1,3
 83 98 83 98 83 167 c 2,4,-1
 83 583 l 2,5,6
 83 652 83 652 132.5 701 c 128,-1,7
 182 750 182 750 250 750 c 2,8,-1
 417 750 l 2,9,10
 485 750 485 750 534 700.5 c 128,-1,11
 583 651 583 651 583 583 c 2,12,-1
 583 167 l 2,13,14
 583 19 583 19 417 0 c 1,15,-1
 583 0 l 1,16,-1
 583 -83 l 1,17,-1
 458 -83 l 2,18,19
 385 -83 385 -83 375 0 c 1,0,-1
250 583 m 2,20,-1
 250 167 l 2,21,22
 250 133 250 133 274.5 108 c 128,-1,23
 299 83 299 83 333 83 c 0,24,25
 368 83 368 83 392.5 108 c 128,-1,26
 417 133 417 133 417 167 c 2,27,-1
 417 583 l 2,28,29
 417 618 417 618 392.5 642.5 c 128,-1,30
 368 667 368 667 333 667 c 0,31,32
 299 667 299 667 274.5 642.5 c 128,-1,33
 250 618 250 618 250 583 c 2,20,-1
EndSplineSet
Validated: 1
EndChar

StartChar: R
Encoding: 82 82 54
Width: 667
GlyphClass: 2
Flags: W
LayerCount: 2
Fore
SplineSet
83 0 m 1,0,-1
 83 750 l 1,1,-1
 417 750 l 2,2,3
 485 750 485 750 534 700.5 c 128,-1,4
 583 651 583 651 583 583 c 2,5,-1
 583 538 l 2,6,7
 583 482 583 482 545 430.5 c 128,-1,8
 507 379 507 379 417 379 c 1,9,-1
 500 379 l 2,10,11
 534 379 534 379 558.5 354.5 c 128,-1,12
 583 330 583 330 583 295 c 2,13,-1
 583 0 l 1,14,-1
 417 0 l 1,15,-1
 417 250 l 2,16,17
 417 284 417 284 392.5 308.5 c 128,-1,18
 368 333 368 333 333 333 c 2,19,-1
 250 333 l 1,20,-1
 250 0 l 1,21,-1
 83 0 l 1,0,-1
250 417 m 1,22,-1
 333 417 l 2,23,24
 368 417 368 417 392.5 441.5 c 128,-1,25
 417 466 417 466 417 500 c 2,26,-1
 417 583 l 2,27,28
 417 618 417 618 392.5 642.5 c 128,-1,29
 368 667 368 667 333 667 c 2,30,-1
 250 667 l 1,31,-1
 250 417 l 1,22,-1
EndSplineSet
Validated: 1
EndChar

StartChar: S
Encoding: 83 83 55
Width: 583
GlyphClass: 2
Flags: W
LayerCount: 2
Fore
SplineSet
500 583 m 1,0,-1
 417 583 l 1,1,2
 406 667 406 667 338 667 c 0,3,4
 294 667 294 667 272 646 c 128,-1,5
 250 625 250 625 250 583 c 0,6,7
 250 552 250 552 274 524 c 2,8,-1
 451 326 l 2,9,10
 500 271 500 271 500 208 c 2,11,-1
 500 167 l 2,12,13
 500 99 500 99 451 49.5 c 128,-1,14
 402 0 402 0 333 0 c 2,15,-1
 250 0 l 2,16,17
 167 0 167 0 125 41.5 c 128,-1,18
 83 83 83 83 83 167 c 1,19,-1
 167 167 l 1,20,21
 167 158 167 158 167 153 c 0,22,23
 167 119 167 119 193 101 c 128,-1,24
 219 83 219 83 250 83 c 0,25,26
 294 83 294 83 313.5 104.5 c 128,-1,27
 333 126 333 126 333 167 c 0,28,29
 333 199 333 199 309 226 c 2,30,-1
 132 424 l 2,31,32
 83 478 83 478 83 542 c 2,33,-1
 83 583 l 2,34,35
 83 651 83 651 132 700.5 c 128,-1,36
 181 750 181 750 250 750 c 2,37,-1
 333 750 l 2,38,39
 490 750 490 750 500 583 c 1,0,-1
EndSplineSet
Validated: 1
EndChar

StartChar: T
Encoding: 84 84 56
Width: 500
GlyphClass: 2
Flags: W
LayerCount: 2
Fore
SplineSet
167 0 m 1,0,-1
 167 667 l 1,1,-1
 0 667 l 1,2,-1
 0 750 l 1,3,-1
 500 750 l 1,4,-1
 500 667 l 1,5,-1
 333 667 l 1,6,-1
 333 0 l 1,7,-1
 167 0 l 1,0,-1
EndSplineSet
Validated: 1
EndChar

StartChar: U
Encoding: 85 85 57
Width: 667
GlyphClass: 2
Flags: W
LayerCount: 2
Fore
SplineSet
417 750 m 1,0,-1
 583 750 l 1,1,-1
 583 167 l 2,2,3
 583 99 583 99 534 49.5 c 128,-1,4
 485 0 485 0 417 0 c 2,5,-1
 250 0 l 2,6,7
 182 0 182 0 132.5 49 c 128,-1,8
 83 98 83 98 83 167 c 2,9,-1
 83 750 l 1,10,-1
 250 750 l 1,11,-1
 250 167 l 2,12,13
 250 133 250 133 274.5 108 c 128,-1,14
 299 83 299 83 333 83 c 0,15,16
 368 83 368 83 392.5 108 c 128,-1,17
 417 133 417 133 417 167 c 2,18,-1
 417 750 l 1,0,-1
EndSplineSet
Validated: 1
EndChar

StartChar: V
Encoding: 86 86 58
Width: 667
GlyphClass: 2
Flags: W
LayerCount: 2
Fore
SplineSet
417 750 m 1,0,-1
 583 750 l 1,1,-1
 583 285 l 2,2,3
 583 168 583 168 499.5 84 c 128,-1,4
 416 0 416 0 299 0 c 2,5,-1
 83 0 l 1,6,-1
 83 750 l 1,7,-1
 250 750 l 1,8,-1
 250 83 l 1,9,-1
 333 83 l 2,10,11
 368 83 368 83 392.5 108 c 128,-1,12
 417 133 417 133 417 167 c 2,13,-1
 417 750 l 1,0,-1
EndSplineSet
Validated: 1
EndChar

StartChar: W
Encoding: 87 87 59
Width: 1000
GlyphClass: 2
Flags: W
LayerCount: 2
Fore
SplineSet
83 750 m 1,0,-1
 250 750 l 1,1,-1
 250 83 l 1,2,-1
 333 83 l 2,3,4
 368 83 368 83 392.5 108 c 128,-1,5
 417 133 417 133 417 167 c 2,6,-1
 417 750 l 1,7,-1
 583 750 l 1,8,-1
 583 83 l 1,9,-1
 667 83 l 2,10,11
 701 83 701 83 725.5 108 c 128,-1,12
 750 133 750 133 750 167 c 2,13,-1
 750 750 l 1,14,-1
 917 750 l 1,15,-1
 917 285 l 2,16,17
 917 168 917 168 833.5 84 c 128,-1,18
 750 0 750 0 632 0 c 2,19,-1
 417 0 l 1,20,-1
 417 26 l 1,21,22
 369 0 369 0 299 0 c 2,23,-1
 83 0 l 1,24,-1
 83 750 l 1,0,-1
EndSplineSet
Validated: 1
EndChar

StartChar: X
Encoding: 88 88 60
Width: 667
GlyphClass: 2
Flags: W
LayerCount: 2
Fore
SplineSet
83 0 m 1,0,-1
 83 208 l 2,1,2
 83 355 83 355 250 375 c 1,3,4
 83 395 83 395 83 542 c 2,5,-1
 83 750 l 1,6,-1
 250 750 l 1,7,-1
 250 500 l 2,8,9
 250 466 250 466 274.5 441.5 c 128,-1,10
 299 417 299 417 333 417 c 0,11,12
 368 417 368 417 392.5 441.5 c 128,-1,13
 417 466 417 466 417 500 c 2,14,-1
 417 750 l 1,15,-1
 583 750 l 1,16,-1
 583 542 l 2,17,18
 583 395 583 395 417 375 c 1,19,20
 583 354 583 354 583 208 c 2,21,-1
 583 0 l 1,22,-1
 417 0 l 1,23,-1
 417 250 l 2,24,25
 417 284 417 284 392.5 308.5 c 128,-1,26
 368 333 368 333 333 333 c 0,27,28
 299 333 299 333 274.5 308.5 c 128,-1,29
 250 284 250 284 250 250 c 2,30,-1
 250 0 l 1,31,-1
 83 0 l 1,0,-1
EndSplineSet
Validated: 1
EndChar

StartChar: Y
Encoding: 89 89 61
Width: 667
GlyphClass: 2
Flags: W
LayerCount: 2
Fore
SplineSet
250 0 m 1,0,-1
 250 333 l 1,1,2
 83 353 83 353 83 500 c 2,3,-1
 83 750 l 1,4,-1
 250 750 l 1,5,-1
 250 500 l 2,6,7
 250 466 250 466 274.5 441.5 c 128,-1,8
 299 417 299 417 333 417 c 0,9,10
 368 417 368 417 392.5 441.5 c 128,-1,11
 417 466 417 466 417 500 c 2,12,-1
 417 750 l 1,13,-1
 583 750 l 1,14,-1
 583 500 l 2,15,16
 583 353 583 353 417 333 c 1,17,-1
 417 0 l 1,18,-1
 250 0 l 1,0,-1
EndSplineSet
Validated: 1
EndChar

StartChar: Z
Encoding: 90 90 62
Width: 667
GlyphClass: 2
Flags: W
LayerCount: 2
Fore
SplineSet
83 750 m 1,0,-1
 583 750 l 1,1,-1
 583 667 l 1,2,-1
 250 83 l 1,3,-1
 583 83 l 1,4,-1
 583 0 l 1,5,-1
 83 0 l 1,6,-1
 83 83 l 1,7,-1
 417 667 l 1,8,-1
 83 667 l 1,9,-1
 83 750 l 1,0,-1
EndSplineSet
Validated: 1
EndChar

StartChar: bracketleft
Encoding: 91 91 63
Width: 417
GlyphClass: 2
Flags: W
LayerCount: 2
Fore
SplineSet
83 833 m 1,0,-1
 333 833 l 1,1,-1
 333 750 l 1,2,-1
 250 750 l 1,3,-1
 250 0 l 1,4,-1
 333 0 l 1,5,-1
 333 -83 l 1,6,-1
 83 -83 l 1,7,-1
 83 833 l 1,0,-1
EndSplineSet
Validated: 1
Substitution2: "'rtla' Right to Left Alternates lookup 0 subtable" bracketright
EndChar

StartChar: backslash
Encoding: 92 92 64
Width: 583
GlyphClass: 2
Flags: W
LayerCount: 2
Fore
SplineSet
500 0 m 1,0,-1
 417 0 l 1,1,-1
 83 833 l 1,2,-1
 167 833 l 1,3,-1
 500 0 l 1,0,-1
EndSplineSet
Validated: 1
EndChar

StartChar: bracketright
Encoding: 93 93 65
Width: 417
GlyphClass: 2
Flags: W
LayerCount: 2
Fore
SplineSet
333 -83 m 1,0,-1
 83 -83 l 1,1,-1
 83 0 l 1,2,-1
 167 0 l 1,3,-1
 167 750 l 1,4,-1
 83 750 l 1,5,-1
 83 833 l 1,6,-1
 333 833 l 1,7,-1
 333 -83 l 1,0,-1
EndSplineSet
Validated: 1
Substitution2: "'rtla' Right to Left Alternates lookup 0 subtable" bracketleft
EndChar

StartChar: asciicircum
Encoding: 94 94 66
Width: 667
GlyphClass: 2
Flags: W
LayerCount: 2
Fore
SplineSet
333 750 m 1,0,-1
 583 500 l 1,1,-1
 500 500 l 1,2,-1
 333 667 l 1,3,-1
 167 500 l 1,4,-1
 83 500 l 1,5,-1
 333 750 l 1,0,-1
EndSplineSet
Validated: 1
EndChar

StartChar: underscore
Encoding: 95 95 67
Width: 667
GlyphClass: 2
Flags: W
LayerCount: 2
Fore
SplineSet
0 -83 m 1,0,-1
 0 0 l 1,1,-1
 667 0 l 1,2,-1
 667 -83 l 1,3,-1
 0 -83 l 1,0,-1
EndSplineSet
Validated: 1
EndChar

StartChar: grave
Encoding: 96 96 68
Width: 500
GlyphClass: 2
Flags: W
LayerCount: 2
Fore
SplineSet
250 667 m 1,0,-1
 167 833 l 1,1,-1
 250 833 l 1,2,-1
 333 667 l 1,3,-1
 250 667 l 1,0,-1
EndSplineSet
Validated: 1
EndChar

StartChar: a
Encoding: 97 97 69
Width: 667
GlyphClass: 2
Flags: W
LayerCount: 2
Fore
SplineSet
417 333 m 1,0,-1
 417 417 l 2,1,2
 417 451 417 451 392.5 475.5 c 128,-1,3
 368 500 368 500 333 500 c 2,4,-1
 250 500 l 2,5,6
 176 500 176 500 167 417 c 1,7,-1
 83 417 l 1,8,9
 103 583 103 583 250 583 c 2,10,-1
 417 583 l 2,11,12
 485 583 485 583 534 534 c 128,-1,13
 583 485 583 485 583 417 c 2,14,-1
 583 0 l 1,15,-1
 417 0 l 1,16,-1
 417 83 l 1,17,18
 407 0 407 0 333 0 c 2,19,-1
 250 0 l 2,20,21
 182 0 182 0 132.5 49 c 128,-1,22
 83 98 83 98 83 167 c 1,23,-1
 83 167 l 1,24,25
 83 235 83 235 132.5 284 c 128,-1,26
 182 333 182 333 250 333 c 2,27,-1
 417 333 l 1,0,-1
417 250 m 1,28,-1
 333 250 l 2,29,30
 299 250 299 250 274.5 225.5 c 128,-1,31
 250 201 250 201 250 167 c 1,32,-1
 250 167 l 1,33,34
 250 133 250 133 274.5 108 c 128,-1,35
 299 83 299 83 333 83 c 0,36,37
 368 83 368 83 392.5 108 c 128,-1,38
 417 133 417 133 417 167 c 2,39,-1
 417 250 l 1,28,-1
EndSplineSet
Validated: 5
EndChar

StartChar: b
Encoding: 98 98 70
Width: 667
GlyphClass: 2
Flags: W
LayerCount: 2
Fore
SplineSet
83 0 m 1,0,-1
 83 750 l 1,1,-1
 250 750 l 1,2,-1
 250 500 l 1,3,4
 255 542 255 542 276 562.5 c 128,-1,5
 297 583 297 583 333 583 c 2,6,-1
 417 583 l 2,7,8
 485 583 485 583 534 534 c 128,-1,9
 583 485 583 485 583 417 c 2,10,-1
 583 167 l 2,11,12
 583 99 583 99 534 49.5 c 128,-1,13
 485 0 485 0 417 0 c 2,14,-1
 83 0 l 1,0,-1
250 83 m 1,15,-1
 333 83 l 2,16,17
 368 83 368 83 392.5 108 c 128,-1,18
 417 133 417 133 417 167 c 2,19,-1
 417 417 l 2,20,21
 417 451 417 451 392.5 475.5 c 128,-1,22
 368 500 368 500 333 500 c 0,23,24
 299 500 299 500 274.5 475.5 c 128,-1,25
 250 451 250 451 250 417 c 2,26,-1
 250 83 l 1,15,-1
EndSplineSet
Validated: 1
EndChar

StartChar: c
Encoding: 99 99 71
Width: 583
GlyphClass: 2
Flags: W
LayerCount: 2
Fore
SplineSet
500 417 m 1,0,-1
 417 417 l 1,1,2
 407 500 407 500 333 500 c 0,3,4
 299 500 299 500 274.5 475.5 c 128,-1,5
 250 451 250 451 250 417 c 2,6,-1
 250 167 l 2,7,8
 250 133 250 133 274.5 108 c 128,-1,9
 299 83 299 83 333 83 c 0,10,11
 407 83 407 83 417 167 c 1,12,-1
 500 167 l 1,13,14
 490 0 490 0 333 0 c 2,15,-1
 250 0 l 2,16,17
 182 0 182 0 132.5 49 c 128,-1,18
 83 98 83 98 83 167 c 2,19,-1
 83 417 l 2,20,21
 83 485 83 485 132.5 534 c 128,-1,22
 182 583 182 583 250 583 c 2,23,-1
 333 583 l 2,24,25
 491 583 491 583 500 417 c 1,0,-1
EndSplineSet
Validated: 1
EndChar

StartChar: d
Encoding: 100 100 72
Width: 667
GlyphClass: 2
Flags: W
LayerCount: 2
Fore
SplineSet
583 0 m 1,0,-1
 417 0 l 1,1,-1
 417 83 l 1,2,3
 407 0 407 0 333 0 c 2,4,-1
 250 0 l 2,5,6
 182 0 182 0 132.5 49 c 128,-1,7
 83 98 83 98 83 167 c 2,8,-1
 83 417 l 2,9,10
 83 485 83 485 132.5 534 c 128,-1,11
 182 583 182 583 250 583 c 2,12,-1
 417 583 l 1,13,-1
 417 750 l 1,14,-1
 583 750 l 1,15,-1
 583 0 l 1,0,-1
417 500 m 1,16,-1
 333 500 l 2,17,18
 299 500 299 500 274.5 475.5 c 128,-1,19
 250 451 250 451 250 417 c 2,20,-1
 250 167 l 2,21,22
 250 133 250 133 274.5 108 c 128,-1,23
 299 83 299 83 333 83 c 0,24,25
 368 83 368 83 392.5 108 c 128,-1,26
 417 133 417 133 417 167 c 2,27,-1
 417 500 l 1,16,-1
EndSplineSet
Validated: 1
EndChar

StartChar: e
Encoding: 101 101 73
Width: 667
GlyphClass: 2
Flags: W
LayerCount: 2
Fore
SplineSet
583 250 m 1,0,-1
 250 250 l 1,1,-1
 250 167 l 2,2,3
 250 133 250 133 274.5 108 c 128,-1,4
 299 83 299 83 333 83 c 2,5,-1
 417 83 l 2,6,7
 500 83 500 83 500 167 c 1,8,-1
 583 167 l 1,9,10
 564 0 564 0 417 0 c 2,11,-1
 250 0 l 2,12,13
 182 0 182 0 132.5 49 c 128,-1,14
 83 98 83 98 83 167 c 2,15,-1
 83 417 l 2,16,17
 83 485 83 485 132.5 534 c 128,-1,18
 182 583 182 583 250 583 c 2,19,-1
 417 583 l 2,20,21
 485 583 485 583 534 534 c 128,-1,22
 583 485 583 485 583 417 c 2,23,-1
 583 250 l 1,0,-1
250 333 m 1,24,-1
 417 333 l 1,25,-1
 417 417 l 2,26,27
 417 451 417 451 392.5 475.5 c 128,-1,28
 368 500 368 500 333 500 c 0,29,30
 299 500 299 500 274.5 475.5 c 128,-1,31
 250 451 250 451 250 417 c 2,32,-1
 250 333 l 1,24,-1
EndSplineSet
Validated: 1
EndChar

StartChar: f
Encoding: 102 102 74
Width: 500
GlyphClass: 2
Flags: W
LayerCount: 2
Fore
SplineSet
167 0 m 1,0,-1
 167 500 l 1,1,-1
 83 500 l 1,2,-1
 83 583 l 1,3,-1
 167 583 l 1,4,-1
 167 591 l 2,5,6
 167 656 167 656 214 703 c 128,-1,7
 261 750 261 750 326 750 c 2,8,-1
 500 750 l 1,9,-1
 500 667 l 1,10,-1
 409 667 l 2,11,12
 378 667 378 667 355.5 644.5 c 128,-1,13
 333 622 333 622 333 591 c 2,14,-1
 333 583 l 1,15,-1
 417 583 l 1,16,-1
 417 500 l 1,17,-1
 333 500 l 1,18,-1
 333 0 l 1,19,-1
 167 0 l 1,0,-1
EndSplineSet
Validated: 1
EndChar

StartChar: g
Encoding: 103 103 75
Width: 667
GlyphClass: 2
Flags: W
LayerCount: 2
Fore
SplineSet
583 583 m 1,0,-1
 583 -83 l 2,1,2
 583 -151 583 -151 534 -200.5 c 128,-1,3
 485 -250 485 -250 417 -250 c 2,4,-1
 250 -250 l 2,5,6
 103 -250 103 -250 83 -83 c 1,7,-1
 167 -83 l 1,8,9
 173 -167 173 -167 250 -167 c 2,10,-1
 333 -167 l 2,11,12
 368 -167 368 -167 392.5 -142.5 c 128,-1,13
 417 -118 417 -118 417 -83 c 2,14,-1
 417 83 l 1,15,16
 407 0 407 0 333 0 c 2,17,-1
 250 0 l 2,18,19
 182 0 182 0 132.5 49 c 128,-1,20
 83 98 83 98 83 167 c 2,21,-1
 83 417 l 2,22,23
 83 485 83 485 132.5 534 c 128,-1,24
 182 583 182 583 250 583 c 2,25,-1
 583 583 l 1,0,-1
417 500 m 1,26,-1
 333 500 l 2,27,28
 299 500 299 500 274.5 475.5 c 128,-1,29
 250 451 250 451 250 417 c 2,30,-1
 250 167 l 2,31,32
 250 133 250 133 274.5 108 c 128,-1,33
 299 83 299 83 333 83 c 0,34,35
 368 83 368 83 392.5 108 c 128,-1,36
 417 133 417 133 417 167 c 2,37,-1
 417 500 l 1,26,-1
EndSplineSet
Validated: 1
EndChar

StartChar: h
Encoding: 104 104 76
Width: 667
GlyphClass: 2
Flags: W
LayerCount: 2
Fore
SplineSet
83 0 m 1,0,-1
 83 750 l 1,1,-1
 250 750 l 1,2,-1
 250 500 l 1,3,4
 255 542 255 542 276 562.5 c 128,-1,5
 297 583 297 583 333 583 c 2,6,-1
 417 583 l 2,7,8
 485 583 485 583 534 534 c 128,-1,9
 583 485 583 485 583 417 c 2,10,-1
 583 0 l 1,11,-1
 417 0 l 1,12,-1
 417 417 l 2,13,14
 417 451 417 451 392.5 475.5 c 128,-1,15
 368 500 368 500 333 500 c 0,16,17
 299 500 299 500 274.5 475.5 c 128,-1,18
 250 451 250 451 250 417 c 2,19,-1
 250 0 l 1,20,-1
 83 0 l 1,0,-1
EndSplineSet
Validated: 1
EndChar

StartChar: i
Encoding: 105 105 77
Width: 333
GlyphClass: 2
Flags: W
LayerCount: 2
Fore
SplineSet
83 667 m 1,0,-1
 83 750 l 1,1,-1
 250 750 l 1,2,-1
 250 667 l 1,3,-1
 83 667 l 1,0,-1
83 0 m 1,4,-1
 83 583 l 1,5,-1
 250 583 l 1,6,-1
 250 0 l 1,7,-1
 83 0 l 1,4,-1
EndSplineSet
Validated: 1
EndChar

StartChar: j
Encoding: 106 106 78
Width: 500
GlyphClass: 2
Flags: W
LayerCount: 2
Fore
SplineSet
250 667 m 1,0,-1
 250 750 l 1,1,-1
 417 750 l 1,2,-1
 417 667 l 1,3,-1
 250 667 l 1,0,-1
250 583 m 1,4,-1
 417 583 l 1,5,-1
 417 0 l 2,6,7
 417 -68 417 -68 367.5 -117.5 c 128,-1,8
 318 -167 318 -167 250 -167 c 2,9,-1
 167 -167 l 2,10,11
 19 -167 19 -167 0 0 c 1,12,-1
 83 0 l 1,13,14
 91 -83 91 -83 167 -83 c 0,15,16
 201 -83 201 -83 225.5 -58.5 c 128,-1,17
 250 -34 250 -34 250 0 c 2,18,-1
 250 583 l 1,4,-1
EndSplineSet
Validated: 1
EndChar

StartChar: k
Encoding: 107 107 79
Width: 667
GlyphClass: 2
Flags: W
LayerCount: 2
Fore
SplineSet
83 0 m 1,0,-1
 83 750 l 1,1,-1
 250 750 l 1,2,-1
 250 375 l 1,3,-1
 500 583 l 1,4,-1
 667 583 l 1,5,-1
 318 292 l 1,6,-1
 667 0 l 1,7,-1
 500 0 l 1,8,-1
 250 208 l 1,9,-1
 250 0 l 1,10,-1
 83 0 l 1,0,-1
EndSplineSet
Validated: 1
EndChar

StartChar: l
Encoding: 108 108 80
Width: 333
GlyphClass: 2
Flags: W
LayerCount: 2
Fore
SplineSet
83 0 m 1,0,-1
 83 750 l 1,1,-1
 250 750 l 1,2,-1
 250 0 l 1,3,-1
 83 0 l 1,0,-1
EndSplineSet
Validated: 1
EndChar

StartChar: m
Encoding: 109 109 81
Width: 1000
GlyphClass: 2
Flags: W
LayerCount: 2
Fore
SplineSet
583 0 m 1,0,-1
 417 0 l 1,1,-1
 417 417 l 2,2,3
 417 451 417 451 392.5 475.5 c 128,-1,4
 368 500 368 500 333 500 c 0,5,6
 299 500 299 500 274.5 475.5 c 128,-1,7
 250 451 250 451 250 417 c 2,8,-1
 250 0 l 1,9,-1
 83 0 l 1,10,-1
 83 583 l 1,11,-1
 250 583 l 1,12,-1
 250 500 l 1,13,14
 255 542 255 542 276 562.5 c 128,-1,15
 297 583 297 583 333 583 c 2,16,-1
 417 583 l 2,17,18
 502 583 502 583 542 524 c 1,19,20
 562 554 562 554 593 568.5 c 128,-1,21
 624 583 624 583 667 583 c 2,22,-1
 750 583 l 2,23,24
 818 583 818 583 867.5 534 c 128,-1,25
 917 485 917 485 917 417 c 2,26,-1
 917 0 l 1,27,-1
 750 0 l 1,28,-1
 750 417 l 2,29,30
 750 450 750 450 725.5 475 c 128,-1,31
 701 500 701 500 667 500 c 256,32,33
 633 500 633 500 608 475.5 c 128,-1,34
 583 451 583 451 583 417 c 2,35,-1
 583 0 l 1,0,-1
EndSplineSet
Validated: 1
EndChar

StartChar: n
Encoding: 110 110 82
Width: 667
GlyphClass: 2
Flags: W
LayerCount: 2
Fore
SplineSet
83 0 m 1,0,-1
 83 583 l 1,1,-1
 250 583 l 1,2,-1
 250 500 l 1,3,4
 255 542 255 542 276 562.5 c 128,-1,5
 297 583 297 583 333 583 c 2,6,-1
 417 583 l 2,7,8
 485 583 485 583 534 534 c 128,-1,9
 583 485 583 485 583 417 c 2,10,-1
 583 0 l 1,11,-1
 417 0 l 1,12,-1
 417 417 l 2,13,14
 417 451 417 451 392.5 475.5 c 128,-1,15
 368 500 368 500 333 500 c 0,16,17
 299 500 299 500 274.5 475.5 c 128,-1,18
 250 451 250 451 250 417 c 2,19,-1
 250 0 l 1,20,-1
 83 0 l 1,0,-1
EndSplineSet
Validated: 1
EndChar

StartChar: o
Encoding: 111 111 83
Width: 667
GlyphClass: 2
Flags: W
LayerCount: 2
Fore
SplineSet
250 583 m 2,0,-1
 417 583 l 2,1,2
 485 583 485 583 534 534 c 128,-1,3
 583 485 583 485 583 417 c 2,4,-1
 583 167 l 2,5,6
 583 99 583 99 534 49.5 c 128,-1,7
 485 0 485 0 417 0 c 2,8,-1
 250 0 l 2,9,10
 182 0 182 0 132.5 49 c 128,-1,11
 83 98 83 98 83 167 c 2,12,-1
 83 417 l 2,13,14
 83 485 83 485 132.5 534 c 128,-1,15
 182 583 182 583 250 583 c 2,0,-1
250 417 m 2,16,-1
 250 167 l 2,17,18
 250 133 250 133 274.5 108 c 128,-1,19
 299 83 299 83 333 83 c 0,20,21
 368 83 368 83 392.5 108 c 128,-1,22
 417 133 417 133 417 167 c 2,23,-1
 417 417 l 2,24,25
 417 451 417 451 392.5 475.5 c 128,-1,26
 368 500 368 500 333 500 c 0,27,28
 299 500 299 500 274.5 475.5 c 128,-1,29
 250 451 250 451 250 417 c 2,16,-1
EndSplineSet
Validated: 1
EndChar

StartChar: p
Encoding: 112 112 84
Width: 667
GlyphClass: 2
Flags: W
LayerCount: 2
Fore
SplineSet
83 583 m 1,0,-1
 250 583 l 1,1,-1
 250 500 l 1,2,3
 250 542 250 542 271 562.5 c 128,-1,4
 292 583 292 583 333 583 c 2,5,-1
 417 583 l 2,6,7
 485 583 485 583 534 534 c 128,-1,8
 583 485 583 485 583 417 c 2,9,-1
 583 167 l 2,10,11
 583 98 583 98 534 49 c 128,-1,12
 485 0 485 0 417 0 c 2,13,-1
 250 0 l 1,14,-1
 250 -167 l 1,15,-1
 83 -167 l 1,16,-1
 83 583 l 1,0,-1
250 83 m 1,17,-1
 333 83 l 2,18,19
 368 83 368 83 392.5 107.5 c 128,-1,20
 417 132 417 132 417 167 c 2,21,-1
 417 417 l 2,22,23
 417 451 417 451 392.5 475.5 c 128,-1,24
 368 500 368 500 333 500 c 0,25,26
 299 500 299 500 274.5 475.5 c 128,-1,27
 250 451 250 451 250 417 c 2,28,-1
 250 83 l 1,17,-1
EndSplineSet
Validated: 1
EndChar

StartChar: q
Encoding: 113 113 85
Width: 667
GlyphClass: 2
Flags: W
LayerCount: 2
Fore
SplineSet
583 583 m 1,0,-1
 583 -167 l 1,1,-1
 417 -167 l 1,2,-1
 417 83 l 1,3,4
 407 0 407 0 333 0 c 2,5,-1
 250 0 l 2,6,7
 182 0 182 0 132.5 49.5 c 128,-1,8
 83 99 83 99 83 167 c 2,9,-1
 83 417 l 2,10,11
 83 485 83 485 132 534 c 128,-1,12
 181 583 181 583 250 583 c 2,13,-1
 583 583 l 1,0,-1
417 500 m 1,14,-1
 333 500 l 2,15,16
 299 500 299 500 274.5 475.5 c 128,-1,17
 250 451 250 451 250 417 c 2,18,-1
 250 167 l 2,19,20
 250 133 250 133 274.5 108 c 128,-1,21
 299 83 299 83 333 83 c 0,22,23
 368 83 368 83 392.5 108 c 128,-1,24
 417 133 417 133 417 167 c 2,25,-1
 417 500 l 1,14,-1
EndSplineSet
Validated: 1
EndChar

StartChar: r
Encoding: 114 114 86
Width: 500
GlyphClass: 2
Flags: W
LayerCount: 2
Fore
SplineSet
250 0 m 1,0,-1
 83 0 l 1,1,-1
 83 583 l 1,2,-1
 250 583 l 1,3,-1
 250 417 l 1,4,5
 260 500 260 500 301.5 541.5 c 128,-1,6
 343 583 343 583 417 583 c 2,7,-1
 500 583 l 1,8,-1
 500 417 l 1,9,-1
 333 417 l 2,10,11
 299 417 299 417 274.5 392.5 c 128,-1,12
 250 368 250 368 250 333 c 2,13,-1
 250 0 l 1,0,-1
EndSplineSet
Validated: 1
EndChar

StartChar: s
Encoding: 115 115 87
Width: 583
GlyphClass: 2
Flags: W
LayerCount: 2
Fore
SplineSet
500 417 m 1,0,-1
 417 417 l 1,1,2
 406 500 406 500 338 500 c 0,3,4
 294 500 294 500 272 482.5 c 128,-1,5
 250 465 250 465 250 431 c 0,6,7
 250 395 250 395 371 330 c 0,8,9
 470 277 470 277 485 242 c 128,-1,10
 500 207 500 207 500 167 c 0,11,12
 500 98 500 98 451 49 c 128,-1,13
 402 0 402 0 333 0 c 2,14,-1
 250 0 l 2,15,16
 83 0 83 0 83 167 c 1,17,-1
 167 167 l 1,18,19
 177 83 177 83 245 83 c 0,20,21
 290 83 290 83 312 100.5 c 128,-1,22
 334 118 334 118 334 153 c 256,23,24
 334 188 334 188 213 253 c 0,25,26
 114 306 114 306 98.5 341 c 128,-1,27
 83 376 83 376 83 416 c 0,28,29
 83 485 83 485 132.5 534 c 128,-1,30
 182 583 182 583 250 583 c 2,31,-1
 333 583 l 2,32,33
 490 583 490 583 500 417 c 1,0,-1
EndSplineSet
Validated: 1
EndChar

StartChar: t
Encoding: 116 116 88
Width: 500
GlyphClass: 2
Flags: W
LayerCount: 2
Fore
SplineSet
167 750 m 1,0,-1
 333 750 l 1,1,-1
 333 583 l 1,2,-1
 417 583 l 1,3,-1
 417 500 l 1,4,-1
 333 500 l 1,5,-1
 333 167 l 2,6,7
 333 126 333 126 360 104.5 c 128,-1,8
 387 83 387 83 409 83 c 2,9,-1
 417 83 l 1,10,-1
 417 0 l 1,11,-1
 333 0 l 2,12,13
 265 0 265 0 216 49 c 128,-1,14
 167 98 167 98 167 167 c 2,15,-1
 167 500 l 1,16,-1
 83 500 l 1,17,-1
 83 583 l 1,18,-1
 167 583 l 1,19,-1
 167 750 l 1,0,-1
EndSplineSet
Validated: 1
EndChar

StartChar: u
Encoding: 117 117 89
Width: 667
GlyphClass: 2
Flags: W
LayerCount: 2
Fore
SplineSet
583 583 m 1,0,-1
 583 0 l 1,1,-1
 417 0 l 1,2,-1
 417 83 l 1,3,4
 407 0 407 0 333 0 c 2,5,-1
 250 0 l 2,6,7
 182 0 182 0 132.5 49 c 128,-1,8
 83 98 83 98 83 167 c 2,9,-1
 83 583 l 1,10,-1
 250 583 l 1,11,-1
 250 167 l 2,12,13
 250 133 250 133 274.5 108 c 128,-1,14
 299 83 299 83 333 83 c 0,15,16
 368 83 368 83 392.5 108 c 128,-1,17
 417 133 417 133 417 167 c 2,18,-1
 417 583 l 1,19,-1
 583 583 l 1,0,-1
EndSplineSet
Validated: 1
EndChar

StartChar: v
Encoding: 118 118 90
Width: 667
GlyphClass: 2
Flags: W
LayerCount: 2
Fore
SplineSet
417 583 m 1,0,-1
 583 583 l 1,1,-1
 583 285 l 2,2,3
 583 168 583 168 499.5 84 c 128,-1,4
 416 0 416 0 299 0 c 2,5,-1
 83 0 l 1,6,-1
 83 583 l 1,7,-1
 250 583 l 1,8,-1
 250 83 l 1,9,-1
 333 83 l 2,10,11
 368 83 368 83 392.5 108 c 128,-1,12
 417 133 417 133 417 167 c 2,13,-1
 417 583 l 1,0,-1
EndSplineSet
Validated: 1
EndChar

StartChar: w
Encoding: 119 119 91
Width: 1000
GlyphClass: 2
Flags: W
LayerCount: 2
Fore
SplineSet
83 583 m 1,0,-1
 250 583 l 1,1,-1
 250 83 l 1,2,-1
 333 83 l 2,3,4
 368 83 368 83 392.5 108 c 128,-1,5
 417 133 417 133 417 167 c 2,6,-1
 417 583 l 1,7,-1
 583 583 l 1,8,-1
 583 83 l 1,9,-1
 667 83 l 2,10,11
 701 83 701 83 725.5 108 c 128,-1,12
 750 133 750 133 750 167 c 2,13,-1
 750 583 l 1,14,-1
 917 583 l 1,15,-1
 917 285 l 2,16,17
 917 168 917 168 833.5 84 c 128,-1,18
 750 0 750 0 632 0 c 2,19,-1
 417 0 l 1,20,-1
 417 26 l 1,21,22
 369 0 369 0 299 0 c 2,23,-1
 83 0 l 1,24,-1
 83 583 l 1,0,-1
EndSplineSet
Validated: 1
EndChar

StartChar: x
Encoding: 120 120 92
Width: 667
GlyphClass: 2
Flags: W
LayerCount: 2
Fore
SplineSet
83 0 m 1,0,-1
 83 125 l 2,1,2
 83 199 83 199 125 240.5 c 128,-1,3
 167 282 167 282 250 292 c 1,4,5
 167 301 167 301 125 343 c 128,-1,6
 83 385 83 385 83 458 c 2,7,-1
 83 583 l 1,8,-1
 250 583 l 1,9,-1
 250 417 l 2,10,11
 250 382 250 382 274.5 357.5 c 128,-1,12
 299 333 299 333 333 333 c 0,13,14
 368 333 368 333 392.5 357.5 c 128,-1,15
 417 382 417 382 417 417 c 2,16,-1
 417 583 l 1,17,-1
 583 583 l 1,18,-1
 583 458 l 2,19,20
 583 385 583 385 541.5 343 c 128,-1,21
 500 301 500 301 417 292 c 1,22,23
 500 282 500 282 541.5 240 c 128,-1,24
 583 198 583 198 583 125 c 2,25,-1
 583 0 l 1,26,-1
 417 0 l 1,27,-1
 417 167 l 2,28,29
 417 201 417 201 392.5 225.5 c 128,-1,30
 368 250 368 250 333 250 c 0,31,32
 299 250 299 250 274.5 225.5 c 128,-1,33
 250 201 250 201 250 167 c 2,34,-1
 250 0 l 1,35,-1
 83 0 l 1,0,-1
EndSplineSet
Validated: 1
EndChar

StartChar: y
Encoding: 121 121 93
Width: 667
GlyphClass: 2
Flags: W
LayerCount: 2
Fore
SplineSet
167 -83 m 1,0,1
 173 -167 173 -167 250 -167 c 2,2,-1
 333 -167 l 2,3,4
 368 -167 368 -167 392.5 -142.5 c 128,-1,5
 417 -118 417 -118 417 -83 c 2,6,-1
 417 83 l 1,7,8
 407 0 407 0 333 0 c 2,9,-1
 250 0 l 2,10,11
 182 0 182 0 132.5 49 c 128,-1,12
 83 98 83 98 83 167 c 2,13,-1
 83 583 l 1,14,-1
 250 583 l 1,15,-1
 250 167 l 2,16,17
 250 133 250 133 274.5 108 c 128,-1,18
 299 83 299 83 333 83 c 0,19,20
 368 83 368 83 392.5 108 c 128,-1,21
 417 133 417 133 417 167 c 2,22,-1
 417 583 l 1,23,-1
 583 583 l 1,24,-1
 583 -83 l 2,25,26
 583 -151 583 -151 534 -200.5 c 128,-1,27
 485 -250 485 -250 417 -250 c 2,28,-1
 250 -250 l 2,29,30
 103 -250 103 -250 83 -83 c 1,31,-1
 167 -83 l 1,0,1
EndSplineSet
Validated: 1
EndChar

StartChar: z
Encoding: 122 122 94
Width: 667
GlyphClass: 2
Flags: W
LayerCount: 2
Fore
SplineSet
83 583 m 1,0,-1
 583 583 l 1,1,-1
 583 500 l 1,2,-1
 250 83 l 1,3,-1
 583 83 l 1,4,-1
 583 0 l 1,5,-1
 83 0 l 1,6,-1
 83 83 l 1,7,-1
 417 500 l 1,8,-1
 83 500 l 1,9,-1
 83 583 l 1,0,-1
EndSplineSet
Validated: 1
EndChar

StartChar: braceleft
Encoding: 123 123 95
Width: 417
GlyphClass: 2
Flags: W
LayerCount: 2
Fore
SplineSet
83 333 m 1,0,-1
 83 417 l 1,1,-1
 91 417 l 2,2,3
 167 417 167 417 167 500 c 2,4,-1
 167 667 l 2,5,6
 167 813 167 813 333 833 c 1,7,-1
 333 750 l 1,8,9
 250 743 250 743 250 667 c 2,10,-1
 250 500 l 2,11,12
 250 427 250 427 193 375 c 1,13,14
 250 322 250 322 250 250 c 2,15,-1
 250 83 l 2,16,17
 250 6 250 6 333 0 c 1,18,-1
 333 -83 l 1,19,20
 167 -64 167 -64 167 83 c 2,21,-1
 167 250 l 2,22,23
 167 333 167 333 91 333 c 2,24,-1
 83 333 l 1,0,-1
EndSplineSet
Validated: 1
Substitution2: "'rtla' Right to Left Alternates lookup 0 subtable" braceright
EndChar

StartChar: bar
Encoding: 124 124 96
Width: 417
GlyphClass: 2
Flags: W
LayerCount: 2
Fore
SplineSet
167 833 m 1,0,-1
 250 833 l 1,1,-1
 250 -83 l 1,2,-1
 167 -83 l 1,3,-1
 167 833 l 1,0,-1
EndSplineSet
Validated: 1
EndChar

StartChar: braceright
Encoding: 125 125 97
Width: 417
GlyphClass: 2
Flags: W
LayerCount: 2
Fore
SplineSet
333 417 m 1,0,-1
 333 333 l 1,1,-1
 326 333 l 2,2,3
 250 333 250 333 250 250 c 2,4,-1
 250 83 l 2,5,6
 250 -64 250 -64 83 -83 c 1,7,-1
 83 0 l 1,8,9
 167 7 167 7 167 83 c 2,10,-1
 167 250 l 2,11,12
 167 322 167 322 223 375 c 1,13,14
 167 428 167 428 167 500 c 2,15,-1
 167 667 l 2,16,17
 167 744 167 744 83 750 c 1,18,-1
 83 833 l 1,19,20
 250 814 250 814 250 667 c 2,21,-1
 250 500 l 2,22,23
 250 417 250 417 326 417 c 2,24,-1
 333 417 l 1,0,-1
EndSplineSet
Validated: 1
Substitution2: "'rtla' Right to Left Alternates lookup 0 subtable" braceleft
EndChar

StartChar: asciitilde
Encoding: 126 126 98
Width: 667
GlyphClass: 2
Flags: W
LayerCount: 2
Fore
SplineSet
167 417 m 1,0,-1
 83 417 l 1,1,2
 103 583 103 583 250 583 c 0,3,4
 298 583 298 583 354 535 c 1,5,-1
 365 524 l 2,6,7
 393 500 393 500 417 500 c 0,8,9
 490 500 490 500 500 583 c 1,10,-1
 583 583 l 1,11,12
 564 417 564 417 417 417 c 0,13,14
 369 417 369 417 313 465 c 1,15,-1
 302 476 l 2,16,17
 274 500 274 500 250 500 c 0,18,19
 177 500 177 500 167 417 c 1,0,-1
EndSplineSet
Validated: 1
EndChar

StartChar: exclamdown
Encoding: 161 161 100
Width: 500
GlyphClass: 2
Flags: W
LayerCount: 2
Fore
SplineSet
333 500 m 1,0,-1
 333 0 l 1,1,-1
 167 0 l 1,2,-1
 167 500 l 1,3,-1
 333 500 l 1,0,-1
333 750 m 1,4,-1
 333 583 l 1,5,-1
 167 583 l 1,6,-1
 167 750 l 1,7,-1
 333 750 l 1,4,-1
EndSplineSet
Validated: 1
EndChar

StartChar: cent
Encoding: 162 162 101
Width: 583
GlyphClass: 2
Flags: W
LayerCount: 2
Fore
SplineSet
250 667 m 1,0,1
 167 657 167 657 167 583 c 2,2,-1
 167 417 l 2,3,4
 167 343 167 343 250 333 c 1,5,-1
 250 667 l 1,0,1
417 417 m 1,6,-1
 500 417 l 1,7,8
 491 266 491 266 333 250 c 1,9,-1
 333 167 l 1,10,-1
 250 167 l 1,11,-1
 250 250 l 1,12,13
 83 269 83 269 83 417 c 2,14,-1
 83 583 l 2,15,16
 83 730 83 730 250 750 c 1,17,-1
 250 833 l 1,18,-1
 333 833 l 1,19,-1
 333 750 l 1,20,21
 491 740 491 740 500 583 c 1,22,-1
 417 583 l 1,23,24
 408 658 408 658 333 667 c 1,25,-1
 333 333 l 1,26,27
 408 342 408 342 417 417 c 1,6,-1
EndSplineSet
Validated: 1
EndChar

StartChar: sterling
Encoding: 163 163 102
Width: 750
GlyphClass: 2
Flags: W
LayerCount: 2
Fore
SplineSet
583 167 m 1,0,-1
 667 167 l 1,1,2
 648 0 648 0 500 0 c 2,3,-1
 83 0 l 1,4,-1
 83 83 l 1,5,-1
 167 83 l 1,6,-1
 167 333 l 1,7,-1
 83 333 l 1,8,-1
 83 417 l 1,9,-1
 167 417 l 1,10,-1
 167 583 l 2,11,12
 167 651 167 651 216.5 700.5 c 128,-1,13
 266 750 266 750 333 750 c 2,14,-1
 417 750 l 2,15,16
 564 750 564 750 583 583 c 1,17,-1
 500 583 l 1,18,19
 494 667 494 667 421 667 c 0,20,21
 377 667 377 667 355 646 c 128,-1,22
 333 625 333 625 333 583 c 2,23,-1
 333 417 l 1,24,-1
 417 417 l 1,25,-1
 417 333 l 1,26,-1
 333 333 l 1,27,-1
 333 83 l 1,28,-1
 500 83 l 2,29,30
 578 83 578 83 583 167 c 1,0,-1
EndSplineSet
Validated: 1
EndChar

StartChar: currency
Encoding: 164 164 103
Width: 667
GlyphClass: 2
Flags: W
LayerCount: 2
Fore
SplineSet
143 667 m 1,0,-1
 249 560 l 1,1,2
 271 572 271 572 292 577.5 c 128,-1,3
 313 583 313 583 333 583 c 0,4,5
 354 583 354 583 375 577.5 c 128,-1,6
 396 572 396 572 418 560 c 1,7,-1
 524 667 l 1,8,-1
 583 607 l 1,9,-1
 477 501 l 1,10,11
 500 458 500 458 500 417 c 0,12,13
 500 396 500 396 494.5 375 c 128,-1,14
 489 354 489 354 477 332 c 1,15,-1
 583 226 l 1,16,-1
 524 167 l 1,17,-1
 418 273 l 1,18,19
 397 262 397 262 375.5 256 c 128,-1,20
 354 250 354 250 333 250 c 0,21,22
 313 250 313 250 291.5 256 c 128,-1,23
 270 262 270 262 249 273 c 1,24,-1
 143 167 l 1,25,-1
 83 226 l 1,26,-1
 190 332 l 1,27,28
 179 354 179 354 173 375 c 128,-1,29
 167 396 167 396 167 417 c 0,30,31
 167 458 167 458 190 501 c 1,32,-1
 83 607 l 1,33,-1
 143 667 l 1,0,-1
250 417 m 0,34,35
 250 382 250 382 275 357.5 c 128,-1,36
 300 333 300 333 333 333 c 0,37,38
 367 333 367 333 392 357.5 c 128,-1,39
 417 382 417 382 417 417 c 0,40,41
 417 451 417 451 392.5 475.5 c 128,-1,42
 368 500 368 500 333 500 c 0,43,44
 300 500 300 500 275 475.5 c 128,-1,45
 250 451 250 451 250 417 c 0,34,35
EndSplineSet
Validated: 1
EndChar

StartChar: yen
Encoding: 165 165 104
Width: 667
GlyphClass: 2
Flags: W
LayerCount: 2
Fore
SplineSet
250 0 m 1,0,-1
 250 167 l 1,1,-1
 83 167 l 1,2,-1
 83 250 l 1,3,-1
 250 250 l 1,4,-1
 250 333 l 1,5,-1
 83 333 l 1,6,-1
 83 417 l 1,7,-1
 250 417 l 1,8,9
 167 426 167 426 125 468 c 128,-1,10
 83 510 83 510 83 583 c 2,11,-1
 83 750 l 1,12,-1
 250 750 l 1,13,-1
 250 583 l 2,14,15
 250 549 250 549 274.5 524.5 c 128,-1,16
 299 500 299 500 333 500 c 0,17,18
 368 500 368 500 392.5 524.5 c 128,-1,19
 417 549 417 549 417 583 c 2,20,-1
 417 750 l 1,21,-1
 583 750 l 1,22,-1
 583 583 l 2,23,24
 583 510 583 510 541.5 468 c 128,-1,25
 500 426 500 426 417 417 c 1,26,-1
 583 417 l 1,27,-1
 583 333 l 1,28,-1
 417 333 l 1,29,-1
 417 250 l 1,30,-1
 583 250 l 1,31,-1
 583 167 l 1,32,-1
 417 167 l 1,33,-1
 417 0 l 1,34,-1
 250 0 l 1,0,-1
EndSplineSet
Validated: 1
EndChar

StartChar: brokenbar
Encoding: 166 166 105
Width: 417
GlyphClass: 2
Flags: W
LayerCount: 2
Fore
SplineSet
250 333 m 1,0,-1
 250 -83 l 1,1,-1
 167 -83 l 1,2,-1
 167 333 l 1,3,-1
 250 333 l 1,0,-1
167 417 m 1,4,-1
 167 833 l 1,5,-1
 250 833 l 1,6,-1
 250 417 l 1,7,-1
 167 417 l 1,4,-1
EndSplineSet
Validated: 1
EndChar

StartChar: section
Encoding: 167 167 106
Width: 583
GlyphClass: 2
Flags: W
LayerCount: 2
Fore
SplineSet
500 583 m 1,0,-1
 417 583 l 1,1,2
 406 667 406 667 333 667 c 2,3,-1
 250 667 l 2,4,5
 215 667 215 667 191 642 c 128,-1,6
 167 617 167 617 167 583 c 0,7,8
 167 547 167 547 191 524 c 2,9,-1
 451 285 l 2,10,11
 500 240 500 240 500 167 c 0,12,13
 500 91 500 91 443 42 c 1,14,-1
 452 35 l 1,15,16
 500 -9 500 -9 500 -83 c 0,17,18
 500 -151 500 -151 451.5 -200.5 c 128,-1,19
 403 -250 403 -250 333 -250 c 2,20,-1
 250 -250 l 2,21,22
 94 -250 94 -250 83 -83 c 1,23,-1
 167 -83 l 1,24,25
 177 -167 177 -167 250 -167 c 2,26,-1
 333 -167 l 2,27,28
 368 -167 368 -167 392.5 -142 c 128,-1,29
 417 -117 417 -117 417 -83 c 0,30,31
 417 -47 417 -47 393 -24 c 2,32,-1
 132 215 l 2,33,34
 83 260 83 260 83 333 c 0,35,36
 83 410 83 410 140 458 c 1,37,-1
 132 465 l 2,38,39
 83 511 83 511 83 583 c 0,40,41
 83 651 83 651 132 700.5 c 128,-1,42
 181 750 181 750 250 750 c 2,43,-1
 333 750 l 2,44,45
 490 750 490 750 500 583 c 1,0,-1
382 99 m 1,46,47
 417 130 417 130 417 167 c 256,48,49
 417 204 417 204 393 226 c 2,50,-1
 202 401 l 1,51,52
 167 371 167 371 167 333 c 0,53,54
 167 296 167 296 191 274 c 2,55,-1
 382 99 l 1,46,47
EndSplineSet
Validated: 1
EndChar

StartChar: dieresis
Encoding: 168 168 107
Width: 500
GlyphClass: 2
Flags: W
LayerCount: 2
Fore
SplineSet
83 667 m 1,0,-1
 83 770 l 1,1,-1
 181 770 l 1,2,-1
 181 667 l 1,3,-1
 83 667 l 1,0,-1
319 667 m 1,4,-1
 319 770 l 1,5,-1
 417 770 l 1,6,-1
 417 667 l 1,7,-1
 319 667 l 1,4,-1
EndSplineSet
Validated: 1
EndChar

StartChar: copyright
Encoding: 169 169 108
Width: 833
GlyphClass: 2
Flags: W
LayerCount: 2
Fore
SplineSet
333 750 m 2,0,-1
 500 750 l 2,1,2
 603 750 603 750 676.5 676.5 c 128,-1,3
 750 603 750 603 750 500 c 2,4,-1
 750 250 l 2,5,6
 750 148 750 148 676.5 74 c 128,-1,7
 603 0 603 0 500 0 c 2,8,-1
 333 0 l 2,9,10
 231 0 231 0 157 73.5 c 128,-1,11
 83 147 83 147 83 250 c 2,12,-1
 83 500 l 2,13,14
 83 603 83 603 157 676.5 c 128,-1,15
 231 750 231 750 333 750 c 2,0,-1
167 500 m 2,16,-1
 167 250 l 2,17,18
 167 182 167 182 216 132.5 c 128,-1,19
 265 83 265 83 333 83 c 2,20,-1
 500 83 l 2,21,22
 568 83 568 83 617.5 132.5 c 128,-1,23
 667 182 667 182 667 250 c 2,24,-1
 667 500 l 2,25,26
 667 568 667 568 617.5 617.5 c 128,-1,27
 568 667 568 667 500 667 c 2,28,-1
 333 667 l 2,29,30
 265 667 265 667 216 617.5 c 128,-1,31
 167 568 167 568 167 500 c 2,16,-1
583 417 m 1,32,-1
 500 417 l 1,33,34
 491 500 491 500 417 500 c 0,35,36
 383 500 383 500 358 475.5 c 128,-1,37
 333 451 333 451 333 417 c 2,38,-1
 333 333 l 2,39,40
 333 299 333 299 357.5 274.5 c 128,-1,41
 382 250 382 250 417 250 c 0,42,43
 491 250 491 250 500 333 c 1,44,-1
 583 333 l 1,45,46
 573 167 573 167 418 167 c 0,47,48
 348 167 348 167 299 216.5 c 128,-1,49
 250 266 250 266 250 333 c 2,50,-1
 250 417 l 2,51,52
 250 482 250 482 298 532.5 c 128,-1,53
 346 583 346 583 422 583 c 0,54,55
 574 583 574 583 583 417 c 1,32,-1
EndSplineSet
Validated: 1
EndChar

StartChar: ordfeminine
Encoding: 170 170 109
Width: 583
GlyphClass: 2
Flags: W
LayerCount: 2
Fore
SplineSet
361 560 m 1,0,-1
 361 607 l 2,1,2
 361 678 361 678 292 678 c 2,3,-1
 236 678 l 2,4,5
 175 678 175 678 167 607 c 1,6,-1
 83 607 l 1,7,8
 99 750 99 750 222 750 c 2,9,-1
 361 750 l 2,10,11
 418 750 418 750 459 708 c 128,-1,12
 500 666 500 666 500 607 c 2,13,-1
 500 250 l 1,14,-1
 361 250 l 1,15,-1
 361 321 l 1,16,17
 353 250 353 250 292 250 c 2,18,-1
 222 250 l 2,19,20
 166 250 166 250 124.5 292 c 128,-1,21
 83 334 83 334 83 393 c 2,22,-1
 83 417 l 2,23,24
 83 477 83 477 125 518.5 c 128,-1,25
 167 560 167 560 222 560 c 2,26,-1
 361 560 l 1,0,-1
361 477 m 1,27,-1
 292 477 l 2,28,29
 222 477 222 477 222 405 c 1,30,-1
 222 405 l 1,31,32
 222 369 222 369 239.5 351 c 128,-1,33
 257 333 257 333 292 333 c 0,34,35
 361 333 361 333 361 405 c 2,36,-1
 361 477 l 1,27,-1
83 167 m 1,37,-1
 500 167 l 1,38,-1
 500 83 l 1,39,-1
 83 83 l 1,40,-1
 83 167 l 1,37,-1
EndSplineSet
Validated: 5
EndChar

StartChar: guillemotleft
Encoding: 171 171 110
Width: 750
GlyphClass: 2
Flags: W
LayerCount: 2
Fore
SplineSet
83 292 m 1,0,-1
 375 583 l 1,1,-1
 375 500 l 1,2,-1
 167 292 l 1,3,-1
 375 83 l 1,4,-1
 375 0 l 1,5,-1
 83 292 l 1,0,-1
333 292 m 1,6,-1
 625 583 l 1,7,-1
 625 500 l 1,8,-1
 417 292 l 1,9,-1
 625 83 l 1,10,-1
 625 0 l 1,11,-1
 333 292 l 1,6,-1
EndSplineSet
Validated: 1
Substitution2: "'rtla' Right to Left Alternates lookup 0 subtable" guillemotright
EndChar

StartChar: logicalnot
Encoding: 172 172 111
Width: 583
GlyphClass: 2
Flags: W
LayerCount: 2
Fore
SplineSet
83 250 m 1,0,-1
 83 333 l 1,1,-1
 500 333 l 1,2,-1
 500 83 l 1,3,-1
 417 83 l 1,4,-1
 417 250 l 1,5,-1
 83 250 l 1,0,-1
EndSplineSet
Validated: 1
EndChar

StartChar: uni00AD
Encoding: 173 173 112
Width: 583
GlyphClass: 2
Flags: W
LayerCount: 2
Fore
SplineSet
83 250 m 1,0,-1
 83 333 l 1,1,-1
 500 333 l 1,2,-1
 500 250 l 1,3,-1
 83 250 l 1,0,-1
EndSplineSet
Validated: 1
EndChar

StartChar: registered
Encoding: 174 174 113
Width: 833
GlyphClass: 2
Flags: W
LayerCount: 2
Fore
SplineSet
333 750 m 2,0,-1
 500 750 l 2,1,2
 603 750 603 750 676.5 676.5 c 128,-1,3
 750 603 750 603 750 500 c 2,4,-1
 750 250 l 2,5,6
 750 148 750 148 676.5 74 c 128,-1,7
 603 0 603 0 500 0 c 2,8,-1
 333 0 l 2,9,10
 231 0 231 0 157 73.5 c 128,-1,11
 83 147 83 147 83 250 c 2,12,-1
 83 500 l 2,13,14
 83 603 83 603 157 676.5 c 128,-1,15
 231 750 231 750 333 750 c 2,0,-1
667 250 m 2,16,-1
 667 500 l 2,17,18
 667 568 667 568 617.5 617.5 c 128,-1,19
 568 667 568 667 500 667 c 2,20,-1
 333 667 l 2,21,22
 265 667 265 667 216 617.5 c 128,-1,23
 167 568 167 568 167 500 c 2,24,-1
 167 250 l 2,25,26
 167 182 167 182 216 132.5 c 128,-1,27
 265 83 265 83 333 83 c 2,28,-1
 500 83 l 2,29,30
 568 83 568 83 617.5 132.5 c 128,-1,31
 667 182 667 182 667 250 c 2,16,-1
583 167 m 1,32,-1
 500 167 l 1,33,-1
 500 250 l 2,34,35
 500 284 500 284 475.5 308.5 c 128,-1,36
 451 333 451 333 417 333 c 2,37,-1
 333 333 l 1,38,-1
 333 167 l 1,39,-1
 250 167 l 1,40,-1
 250 583 l 1,41,-1
 500 583 l 2,42,43
 534 583 534 583 558.5 558.5 c 128,-1,44
 583 534 583 534 583 500 c 2,45,-1
 583 458 l 2,46,47
 583 422 583 422 562.5 401 c 128,-1,48
 542 380 542 380 500 375 c 1,49,50
 542 375 542 375 562.5 355 c 128,-1,51
 583 335 583 335 583 295 c 2,52,-1
 583 167 l 1,32,-1
333 500 m 1,53,-1
 333 417 l 1,54,-1
 458 417 l 2,55,56
 479 417 479 417 489.5 427.5 c 128,-1,57
 500 438 500 438 500 458 c 0,58,59
 500 500 500 500 458 500 c 2,60,-1
 333 500 l 1,53,-1
EndSplineSet
Validated: 1
EndChar

StartChar: macron
Encoding: 175 175 114
Width: 500
GlyphClass: 2
Flags: W
LayerCount: 2
Fore
SplineSet
83 667 m 1,0,-1
 83 750 l 1,1,-1
 417 750 l 1,2,-1
 417 667 l 1,3,-1
 83 667 l 1,0,-1
EndSplineSet
Validated: 1
EndChar

StartChar: degree
Encoding: 176 176 115
Width: 500
GlyphClass: 2
Flags: W
LayerCount: 2
Fore
SplineSet
83 583 m 0,0,1
 83 652 83 652 132.5 701 c 128,-1,2
 182 750 182 750 250 750 c 256,3,4
 318 750 318 750 367.5 701 c 128,-1,5
 417 652 417 652 417 583 c 0,6,7
 417 516 417 516 368 466.5 c 128,-1,8
 319 417 319 417 250 417 c 256,9,10
 181 417 181 417 132 466.5 c 128,-1,11
 83 516 83 516 83 583 c 0,0,1
167 583 m 0,12,13
 167 549 167 549 191.5 524.5 c 128,-1,14
 216 500 216 500 250 500 c 0,15,16
 285 500 285 500 309 524.5 c 128,-1,17
 333 549 333 549 333 583 c 0,18,19
 333 618 333 618 308.5 642.5 c 128,-1,20
 284 667 284 667 250 667 c 256,21,22
 216 667 216 667 191.5 642.5 c 128,-1,23
 167 618 167 618 167 583 c 0,12,13
EndSplineSet
Validated: 1
EndChar

StartChar: plusminus
Encoding: 177 177 116
Width: 583
GlyphClass: 2
Flags: W
LayerCount: 2
Fore
SplineSet
83 333 m 1,0,-1
 83 417 l 1,1,-1
 250 417 l 1,2,-1
 250 583 l 1,3,-1
 333 583 l 1,4,-1
 333 417 l 1,5,-1
 500 417 l 1,6,-1
 500 333 l 1,7,-1
 333 333 l 1,8,-1
 333 167 l 1,9,-1
 250 167 l 1,10,-1
 250 333 l 1,11,-1
 83 333 l 1,0,-1
83 0 m 1,12,-1
 83 83 l 1,13,-1
 500 83 l 1,14,-1
 500 0 l 1,15,-1
 83 0 l 1,12,-1
EndSplineSet
Validated: 1
EndChar

StartChar: twosuperior
Encoding: 178 178 117
Width: 583
GlyphClass: 2
Flags: W
LayerCount: 2
Fore
SplineSet
153 602 m 1,0,-1
 83 602 l 1,1,2
 83 684 83 684 128 717 c 128,-1,3
 173 750 173 750 222 750 c 2,4,-1
 361 750 l 2,5,6
 418 750 418 750 459 711.5 c 128,-1,7
 500 673 500 673 500 620 c 2,8,-1
 500 588 l 2,9,10
 500 520 500 520 366 414 c 2,11,-1
 356 406 l 2,12,13
 222 299 222 299 222 253 c 2,14,-1
 222 250 l 1,15,-1
 500 250 l 1,16,-1
 500 167 l 1,17,-1
 83 167 l 1,18,-1
 83 250 l 2,19,20
 83 298 83 298 218 406 c 1,21,-1
 227 414 l 1,22,23
 361 521 361 521 361 588 c 2,24,-1
 361 602 l 2,25,26
 361 667 361 667 292 667 c 2,27,-1
 222 667 l 2,28,29
 158 667 158 667 153 602 c 1,0,-1
EndSplineSet
Validated: 1
EndChar

StartChar: threesuperior
Encoding: 179 179 118
Width: 583
GlyphClass: 2
Flags: W
LayerCount: 2
Fore
SplineSet
83 750 m 1,0,-1
 500 750 l 1,1,-1
 500 667 l 1,2,-1
 333 542 l 1,3,-1
 361 542 l 2,4,5
 421 542 421 542 460.5 499 c 128,-1,6
 500 456 500 456 500 412 c 2,7,-1
 500 296 l 2,8,9
 500 243 500 243 459 205 c 128,-1,10
 418 167 418 167 361 167 c 2,11,-1
 222 167 l 2,12,13
 173 167 173 167 128 199.5 c 128,-1,14
 83 232 83 232 83 315 c 1,15,-1
 167 315 l 1,16,17
 172 250 172 250 236 250 c 2,18,-1
 292 250 l 2,19,20
 361 250 361 250 361 315 c 2,21,-1
 361 394 l 2,22,23
 361 408 361 408 344.5 433 c 128,-1,24
 328 458 328 458 292 458 c 2,25,-1
 208 458 l 1,26,-1
 208 542 l 1,27,-1
 375 667 l 1,28,-1
 83 667 l 1,29,-1
 83 750 l 1,0,-1
EndSplineSet
Validated: 1
EndChar

StartChar: acute
Encoding: 180 180 119
Width: 500
GlyphClass: 2
Flags: W
LayerCount: 2
Fore
SplineSet
167 667 m 1,0,-1
 250 833 l 1,1,-1
 333 833 l 1,2,-1
 250 667 l 1,3,-1
 167 667 l 1,0,-1
EndSplineSet
Validated: 1
EndChar

StartChar: mu
Encoding: 181 181 120
Width: 833
GlyphClass: 2
Flags: W
LayerCount: 2
Fore
SplineSet
91 -167 m 1,0,-1
 241 583 l 1,1,-1
 408 583 l 1,2,-1
 325 167 l 2,3,4
 323 158 323 158 323 150 c 0,5,6
 323 83 323 83 391 83 c 0,7,8
 475 83 475 83 491 167 c 2,9,-1
 574 583 l 1,10,-1
 741 583 l 1,11,-1
 658 167 l 2,12,13
 656 158 656 158 656 150 c 0,14,15
 656 91 656 91 725 83 c 1,16,-1
 708 0 l 1,17,-1
 625 0 l 2,18,19
 557 0 557 0 557 64 c 0,20,21
 557 70 557 70 558 83 c 1,22,23
 531 0 531 0 458 0 c 2,24,-1
 375 0 l 2,25,26
 307 0 307 0 307 64 c 0,27,28
 307 70 307 70 308 83 c 1,29,-1
 258 -167 l 1,30,-1
 91 -167 l 1,0,-1
EndSplineSet
Validated: 1
EndChar

StartChar: paragraph
Encoding: 182 182 121
Width: 750
GlyphClass: 2
Flags: W
LayerCount: 2
Fore
SplineSet
417 667 m 1,0,-1
 250 667 l 1,1,-1
 250 417 l 1,2,-1
 417 417 l 1,3,-1
 417 667 l 1,0,-1
667 0 m 1,4,-1
 583 0 l 1,5,-1
 583 667 l 1,6,-1
 500 667 l 1,7,-1
 500 0 l 1,8,-1
 417 0 l 1,9,-1
 417 333 l 1,10,-1
 250 333 l 2,11,12
 164 333 164 333 103 395 c 128,-1,13
 42 457 42 457 42 542 c 256,14,15
 42 627 42 627 103.5 688.5 c 128,-1,16
 165 750 165 750 250 750 c 2,17,-1
 667 750 l 1,18,-1
 667 0 l 1,4,-1
EndSplineSet
Validated: 1
EndChar

StartChar: periodcentered
Encoding: 183 183 122
Width: 333
GlyphClass: 2
Flags: W
LayerCount: 2
Fore
SplineSet
83 250 m 1,0,-1
 83 417 l 1,1,-1
 250 417 l 1,2,-1
 250 250 l 1,3,-1
 83 250 l 1,0,-1
EndSplineSet
Validated: 1
EndChar

StartChar: cedilla
Encoding: 184 184 123
Width: 500
GlyphClass: 2
Flags: W
LayerCount: 2
Fore
SplineSet
189 -83 m 1,0,-1
 189 0 l 1,1,-1
 231 0 l 2,2,3
 283 0 283 0 319.5 -37 c 128,-1,4
 356 -74 356 -74 356 -125 c 0,5,6
 356 -179 356 -179 317 -214.5 c 128,-1,7
 278 -250 278 -250 236 -250 c 0,8,9
 218 -250 218 -250 184 -241 c 1,10,-1
 215 -164 l 1,11,12
 227 -167 227 -167 233 -167 c 0,13,14
 253 -167 253 -167 263 -156.5 c 128,-1,15
 273 -146 273 -146 273 -125 c 256,16,17
 273 -104 273 -104 262.5 -93.5 c 128,-1,18
 252 -83 252 -83 231 -83 c 2,19,-1
 189 -83 l 1,0,-1
EndSplineSet
Validated: 1
EndChar

StartChar: onesuperior
Encoding: 185 185 124
Width: 583
GlyphClass: 2
Flags: W
LayerCount: 2
Fore
SplineSet
238 167 m 1,0,-1
 238 592 l 1,1,-1
 154 592 l 1,2,-1
 154 667 l 1,3,-1
 307 750 l 1,4,-1
 376 750 l 1,5,-1
 376 167 l 1,6,-1
 238 167 l 1,0,-1
EndSplineSet
Validated: 1
EndChar

StartChar: ordmasculine
Encoding: 186 186 125
Width: 583
GlyphClass: 2
Flags: W
LayerCount: 2
Fore
SplineSet
83 83 m 1,0,-1
 83 167 l 1,1,-1
 500 167 l 1,2,-1
 500 83 l 1,3,-1
 83 83 l 1,0,-1
222 750 m 2,4,-1
 361 750 l 2,5,6
 418 750 418 750 459 708 c 128,-1,7
 500 666 500 666 500 607 c 2,8,-1
 500 393 l 2,9,10
 500 334 500 334 459 292 c 128,-1,11
 418 250 418 250 361 250 c 2,12,-1
 222 250 l 2,13,14
 166 250 166 250 124.5 292 c 128,-1,15
 83 334 83 334 83 393 c 2,16,-1
 83 607 l 2,17,18
 83 666 83 666 124.5 708 c 128,-1,19
 166 750 166 750 222 750 c 2,4,-1
222 595 m 2,20,-1
 222 405 l 2,21,22
 222 333 222 333 292 333 c 0,23,24
 361 333 361 333 361 405 c 2,25,-1
 361 595 l 2,26,27
 361 667 361 667 292 667 c 0,28,29
 222 667 222 667 222 595 c 2,20,-1
EndSplineSet
Validated: 1
EndChar

StartChar: guillemotright
Encoding: 187 187 126
Width: 750
GlyphClass: 2
Flags: W
LayerCount: 2
Fore
SplineSet
667 292 m 1,0,-1
 375 0 l 1,1,-1
 375 83 l 1,2,-1
 583 292 l 1,3,-1
 375 500 l 1,4,-1
 375 583 l 1,5,-1
 667 292 l 1,0,-1
417 292 m 1,6,-1
 125 0 l 1,7,-1
 125 83 l 1,8,-1
 333 292 l 1,9,-1
 125 500 l 1,10,-1
 125 583 l 1,11,-1
 417 292 l 1,6,-1
EndSplineSet
Validated: 1
Substitution2: "'rtla' Right to Left Alternates lookup 0 subtable" guillemotleft
EndChar

StartChar: onequarter
Encoding: 188 188 127
Width: 1167
GlyphClass: 2
Flags: W
LayerCount: 2
Fore
SplineSet
333 0 m 1,0,-1
 583 750 l 1,1,-1
 667 750 l 1,2,-1
 417 0 l 1,3,-1
 333 0 l 1,0,-1
167 167 m 1,4,-1
 167 592 l 1,5,-1
 83 592 l 1,6,-1
 83 667 l 1,7,-1
 236 750 l 1,8,-1
 306 750 l 1,9,-1
 306 167 l 1,10,-1
 167 167 l 1,4,-1
861 250 m 1,11,-1
 861 467 l 1,12,-1
 680 250 l 1,13,-1
 861 250 l 1,11,-1
861 0 m 1,14,-1
 861 167 l 1,15,-1
 583 167 l 1,16,-1
 583 250 l 1,17,-1
 861 583 l 1,18,-1
 1000 583 l 1,19,-1
 1000 250 l 1,20,-1
 1083 250 l 1,21,-1
 1083 167 l 1,22,-1
 1000 167 l 1,23,-1
 1000 0 l 1,24,-1
 861 0 l 1,14,-1
EndSplineSet
Validated: 1
EndChar

StartChar: onehalf
Encoding: 189 189 128
Width: 1167
GlyphClass: 2
Flags: W
LayerCount: 2
Fore
SplineSet
333 0 m 1,0,-1
 583 750 l 1,1,-1
 667 750 l 1,2,-1
 417 0 l 1,3,-1
 333 0 l 1,0,-1
167 167 m 1,4,-1
 167 592 l 1,5,-1
 83 592 l 1,6,-1
 83 667 l 1,7,-1
 236 750 l 1,8,-1
 306 750 l 1,9,-1
 306 167 l 1,10,-1
 167 167 l 1,4,-1
736 435 m 1,11,-1
 667 435 l 1,12,13
 667 517 667 517 711.5 550 c 128,-1,14
 756 583 756 583 806 583 c 2,15,-1
 944 583 l 2,16,17
 1002 583 1002 583 1042.5 544.5 c 128,-1,18
 1083 506 1083 506 1083 454 c 2,19,-1
 1083 421 l 2,20,21
 1083 354 1083 354 949 247 c 2,22,-1
 939 239 l 2,23,24
 806 133 806 133 806 86 c 2,25,-1
 806 83 l 1,26,-1
 1083 83 l 1,27,-1
 1083 0 l 1,28,-1
 667 0 l 1,29,-1
 667 83 l 2,30,31
 667 132 667 132 801 239 c 1,32,-1
 810 247 l 1,33,34
 944 354 944 354 944 421 c 2,35,-1
 944 435 l 2,36,37
 944 500 944 500 875 500 c 2,38,-1
 806 500 l 2,39,40
 741 500 741 500 736 435 c 1,11,-1
EndSplineSet
Validated: 1
EndChar

StartChar: threequarters
Encoding: 190 190 129
Width: 1333
GlyphClass: 2
Flags: W
LayerCount: 2
Fore
SplineSet
500 0 m 1,0,-1
 750 750 l 1,1,-1
 833 750 l 1,2,-1
 583 0 l 1,3,-1
 500 0 l 1,0,-1
1028 250 m 1,4,-1
 1028 467 l 1,5,-1
 847 250 l 1,6,-1
 1028 250 l 1,4,-1
1028 0 m 1,7,-1
 1028 167 l 1,8,-1
 750 167 l 1,9,-1
 750 250 l 1,10,-1
 1028 583 l 1,11,-1
 1167 583 l 1,12,-1
 1167 250 l 1,13,-1
 1250 250 l 1,14,-1
 1250 167 l 1,15,-1
 1167 167 l 1,16,-1
 1167 0 l 1,17,-1
 1028 0 l 1,7,-1
83 750 m 1,18,-1
 500 750 l 1,19,-1
 500 667 l 1,20,-1
 333 542 l 1,21,-1
 361 542 l 2,22,23
 421 542 421 542 460.5 499 c 128,-1,24
 500 456 500 456 500 412 c 2,25,-1
 500 296 l 2,26,27
 500 243 500 243 459 205 c 128,-1,28
 418 167 418 167 361 167 c 2,29,-1
 222 167 l 2,30,31
 173 167 173 167 128 199.5 c 128,-1,32
 83 232 83 232 83 315 c 1,33,-1
 167 315 l 1,34,35
 172 250 172 250 236 250 c 2,36,-1
 292 250 l 2,37,38
 361 250 361 250 361 315 c 2,39,-1
 361 394 l 2,40,41
 361 408 361 408 344.5 433 c 128,-1,42
 328 458 328 458 292 458 c 2,43,-1
 208 458 l 1,44,-1
 208 542 l 1,45,-1
 375 667 l 1,46,-1
 83 667 l 1,47,-1
 83 750 l 1,18,-1
EndSplineSet
Validated: 1
EndChar

StartChar: questiondown
Encoding: 191 191 130
Width: 667
GlyphClass: 2
Flags: W
LayerCount: 2
Fore
SplineSet
417 750 m 1,0,-1
 417 583 l 1,1,-1
 250 583 l 1,2,-1
 250 750 l 1,3,-1
 417 750 l 1,0,-1
417 500 m 1,4,-1
 417 417 l 2,5,6
 417 313 417 313 308 248 c 2,7,-1
 295 240 l 2,8,9
 250 213 250 213 250 167 c 0,10,11
 250 132 250 132 274.5 107.5 c 128,-1,12
 299 83 299 83 333 83 c 2,13,-1
 417 83 l 2,14,15
 494 83 494 83 500 167 c 1,16,-1
 583 167 l 1,17,18
 564 0 564 0 417 0 c 2,19,-1
 250 0 l 2,20,21
 182 0 182 0 132.5 49 c 128,-1,22
 83 98 83 98 83 167 c 0,23,24
 83 275 83 275 178 317 c 2,25,-1
 192 323 l 2,26,27
 237 343 237 343 243.5 362 c 128,-1,28
 250 381 250 381 250 417 c 2,29,-1
 250 500 l 1,30,-1
 417 500 l 1,4,-1
EndSplineSet
Validated: 1
EndChar

StartChar: Agrave
Encoding: 192 192 131
Width: 667
GlyphClass: 3
Flags: W
LayerCount: 2
Fore
SplineSet
83 0 m 1,0,-1
 83 583 l 2,1,2
 83 652 83 652 132.5 701 c 128,-1,3
 182 750 182 750 250 750 c 2,4,-1
 417 750 l 2,5,6
 485 750 485 750 534 700.5 c 128,-1,7
 583 651 583 651 583 583 c 2,8,-1
 583 0 l 1,9,-1
 417 0 l 1,10,-1
 417 333 l 1,11,-1
 250 333 l 1,12,-1
 250 0 l 1,13,-1
 83 0 l 1,0,-1
250 417 m 1,14,-1
 417 417 l 1,15,-1
 417 583 l 2,16,17
 417 618 417 618 392.5 642.5 c 128,-1,18
 368 667 368 667 333 667 c 0,19,20
 299 667 299 667 274.5 642.5 c 128,-1,21
 250 618 250 618 250 583 c 2,22,-1
 250 417 l 1,14,-1
333 833 m 1,23,-1
 250 1000 l 1,24,-1
 333 1000 l 1,25,-1
 417 833 l 1,26,-1
 333 833 l 1,23,-1
EndSplineSet
Validated: 1
EndChar

StartChar: Aacute
Encoding: 193 193 132
Width: 667
GlyphClass: 3
Flags: W
LayerCount: 2
Fore
SplineSet
83 0 m 1,0,-1
 83 583 l 2,1,2
 83 652 83 652 132.5 701 c 128,-1,3
 182 750 182 750 250 750 c 2,4,-1
 417 750 l 2,5,6
 485 750 485 750 534 700.5 c 128,-1,7
 583 651 583 651 583 583 c 2,8,-1
 583 0 l 1,9,-1
 417 0 l 1,10,-1
 417 333 l 1,11,-1
 250 333 l 1,12,-1
 250 0 l 1,13,-1
 83 0 l 1,0,-1
250 417 m 1,14,-1
 417 417 l 1,15,-1
 417 583 l 2,16,17
 417 618 417 618 392.5 642.5 c 128,-1,18
 368 667 368 667 333 667 c 0,19,20
 299 667 299 667 274.5 642.5 c 128,-1,21
 250 618 250 618 250 583 c 2,22,-1
 250 417 l 1,14,-1
250 833 m 1,23,-1
 333 1000 l 1,24,-1
 417 1000 l 1,25,-1
 333 833 l 1,26,-1
 250 833 l 1,23,-1
EndSplineSet
Validated: 1
EndChar

StartChar: Acircumflex
Encoding: 194 194 133
Width: 667
GlyphClass: 3
Flags: W
LayerCount: 2
Fore
SplineSet
83 0 m 1,0,-1
 83 583 l 2,1,2
 83 652 83 652 132.5 701 c 128,-1,3
 182 750 182 750 250 750 c 2,4,-1
 417 750 l 2,5,6
 485 750 485 750 534 700.5 c 128,-1,7
 583 651 583 651 583 583 c 2,8,-1
 583 0 l 1,9,-1
 417 0 l 1,10,-1
 417 333 l 1,11,-1
 250 333 l 1,12,-1
 250 0 l 1,13,-1
 83 0 l 1,0,-1
250 417 m 1,14,-1
 417 417 l 1,15,-1
 417 583 l 2,16,17
 417 618 417 618 392.5 642.5 c 128,-1,18
 368 667 368 667 333 667 c 0,19,20
 299 667 299 667 274.5 642.5 c 128,-1,21
 250 618 250 618 250 583 c 2,22,-1
 250 417 l 1,14,-1
167 833 m 1,23,-1
 292 1000 l 1,24,-1
 375 1000 l 1,25,-1
 500 833 l 1,26,-1
 417 833 l 1,27,-1
 333 917 l 1,28,-1
 250 833 l 1,29,-1
 167 833 l 1,23,-1
EndSplineSet
Validated: 1
EndChar

StartChar: Atilde
Encoding: 195 195 134
Width: 667
GlyphClass: 3
Flags: W
LayerCount: 2
Fore
SplineSet
83 0 m 1,0,-1
 83 583 l 2,1,2
 83 652 83 652 132.5 701 c 128,-1,3
 182 750 182 750 250 750 c 2,4,-1
 417 750 l 2,5,6
 485 750 485 750 534 700.5 c 128,-1,7
 583 651 583 651 583 583 c 2,8,-1
 583 0 l 1,9,-1
 417 0 l 1,10,-1
 417 333 l 1,11,-1
 250 333 l 1,12,-1
 250 0 l 1,13,-1
 83 0 l 1,0,-1
250 417 m 1,14,-1
 417 417 l 1,15,-1
 417 583 l 2,16,17
 417 618 417 618 392.5 642.5 c 128,-1,18
 368 667 368 667 333 667 c 0,19,20
 299 667 299 667 274.5 642.5 c 128,-1,21
 250 618 250 618 250 583 c 2,22,-1
 250 417 l 1,14,-1
167 833 m 1,23,-1
 83 833 l 1,24,25
 103 1000 103 1000 250 1000 c 0,26,27
 298 1000 298 1000 354 951 c 2,28,-1
 365 941 l 2,29,30
 393 917 393 917 417 917 c 0,31,32
 490 917 490 917 500 1000 c 1,33,-1
 583 1000 l 1,34,35
 564 833 564 833 417 833 c 0,36,37
 369 833 369 833 313 882 c 2,38,-1
 302 892 l 2,39,40
 274 917 274 917 250 917 c 0,41,42
 177 917 177 917 167 833 c 1,23,-1
EndSplineSet
Validated: 1
EndChar

StartChar: Adieresis
Encoding: 196 196 135
Width: 667
GlyphClass: 3
Flags: W
LayerCount: 2
Fore
SplineSet
83 0 m 1,0,-1
 83 583 l 2,1,2
 83 652 83 652 132.5 701 c 128,-1,3
 182 750 182 750 250 750 c 2,4,-1
 417 750 l 2,5,6
 485 750 485 750 534 700.5 c 128,-1,7
 583 651 583 651 583 583 c 2,8,-1
 583 0 l 1,9,-1
 417 0 l 1,10,-1
 417 333 l 1,11,-1
 250 333 l 1,12,-1
 250 0 l 1,13,-1
 83 0 l 1,0,-1
250 417 m 1,14,-1
 417 417 l 1,15,-1
 417 583 l 2,16,17
 417 618 417 618 392.5 642.5 c 128,-1,18
 368 667 368 667 333 667 c 0,19,20
 299 667 299 667 274.5 642.5 c 128,-1,21
 250 618 250 618 250 583 c 2,22,-1
 250 417 l 1,14,-1
167 833 m 1,23,-1
 167 936 l 1,24,-1
 265 936 l 1,25,-1
 265 833 l 1,26,-1
 167 833 l 1,23,-1
402 833 m 1,27,-1
 402 936 l 1,28,-1
 500 936 l 1,29,-1
 500 833 l 1,30,-1
 402 833 l 1,27,-1
EndSplineSet
Validated: 1
EndChar

StartChar: Aring
Encoding: 197 197 136
Width: 667
GlyphClass: 3
Flags: W
LayerCount: 2
Fore
SplineSet
250 417 m 1,0,-1
 417 417 l 1,1,-1
 417 583 l 2,2,3
 417 618 417 618 392.5 642.5 c 128,-1,4
 368 667 368 667 333 667 c 0,5,6
 299 667 299 667 274.5 642.5 c 128,-1,7
 250 618 250 618 250 583 c 2,8,-1
 250 417 l 1,0,-1
83 0 m 1,9,-1
 83 583 l 2,10,11
 83 700 83 700 195 741 c 1,12,13
 181 766 181 766 174 789 c 128,-1,14
 167 812 167 812 167 832 c 0,15,16
 167 902 167 902 216.5 951 c 128,-1,17
 266 1000 266 1000 333 1000 c 0,18,19
 401 1000 401 1000 450.5 951 c 128,-1,20
 500 902 500 902 500 833 c 0,21,22
 500 811 500 811 493 788 c 128,-1,23
 486 765 486 765 472 741 c 1,24,25
 583 700 583 700 583 583 c 2,26,-1
 583 0 l 1,27,-1
 417 0 l 1,28,-1
 417 333 l 1,29,-1
 250 333 l 1,30,-1
 250 0 l 1,31,-1
 83 0 l 1,9,-1
333 750 m 0,32,33
 368 750 368 750 392.5 774.5 c 128,-1,34
 417 799 417 799 417 833 c 0,35,36
 417 868 417 868 392.5 892.5 c 128,-1,37
 368 917 368 917 333 917 c 0,38,39
 299 917 299 917 274.5 892.5 c 128,-1,40
 250 868 250 868 250 833 c 0,41,42
 250 799 250 799 274.5 774.5 c 128,-1,43
 299 750 299 750 333 750 c 0,32,33
EndSplineSet
Validated: 1
EndChar

StartChar: AE
Encoding: 198 198 137
Width: 917
GlyphClass: 2
Flags: W
LayerCount: 2
Fore
SplineSet
83 0 m 1,0,-1
 83 583 l 2,1,2
 83 652 83 652 132.5 701 c 128,-1,3
 182 750 182 750 250 750 c 2,4,-1
 833 750 l 1,5,-1
 833 667 l 1,6,-1
 583 667 l 1,7,-1
 583 417 l 1,8,-1
 750 417 l 1,9,-1
 750 333 l 1,10,-1
 583 333 l 1,11,-1
 583 83 l 1,12,-1
 833 83 l 1,13,-1
 833 0 l 1,14,-1
 417 0 l 1,15,-1
 417 333 l 1,16,-1
 250 333 l 1,17,-1
 250 0 l 1,18,-1
 83 0 l 1,0,-1
250 417 m 1,19,-1
 417 417 l 1,20,-1
 417 583 l 2,21,22
 417 618 417 618 392.5 642.5 c 128,-1,23
 368 667 368 667 333 667 c 0,24,25
 299 667 299 667 274.5 642.5 c 128,-1,26
 250 618 250 618 250 583 c 2,27,-1
 250 417 l 1,19,-1
EndSplineSet
Validated: 1
EndChar

StartChar: Ccedilla
Encoding: 199 199 138
Width: 667
GlyphClass: 3
Flags: W
LayerCount: 2
Fore
SplineSet
286 -241 m 1,0,-1
 317 -164 l 1,1,2
 329 -167 329 -167 335 -167 c 0,3,4
 355 -167 355 -167 365 -156.5 c 128,-1,5
 375 -146 375 -146 375 -125 c 256,6,7
 375 -104 375 -104 364.5 -93.5 c 128,-1,8
 354 -83 354 -83 333 -83 c 2,9,-1
 292 -83 l 1,10,-1
 292 0 l 1,11,-1
 250 0 l 2,12,13
 182 0 182 0 132.5 49 c 128,-1,14
 83 98 83 98 83 167 c 2,15,-1
 83 583 l 2,16,17
 83 651 83 651 131.5 700.5 c 128,-1,18
 180 750 180 750 250 750 c 2,19,-1
 417 750 l 2,20,21
 574 750 574 750 583 583 c 1,22,-1
 500 583 l 1,23,24
 490 667 490 667 417 667 c 2,25,-1
 333 667 l 2,26,27
 299 667 299 667 274.5 642.5 c 128,-1,28
 250 618 250 618 250 583 c 2,29,-1
 250 167 l 2,30,31
 250 133 250 133 274.5 108 c 128,-1,32
 299 83 299 83 333 83 c 2,33,-1
 417 83 l 2,34,35
 491 83 491 83 500 167 c 1,36,-1
 583 167 l 1,37,38
 573 0 573 0 417 0 c 2,39,-1
 333 0 l 1,40,41
 385 0 385 0 421.5 -37 c 128,-1,42
 458 -74 458 -74 458 -125 c 256,43,44
 458 -176 458 -176 424 -213 c 128,-1,45
 390 -250 390 -250 338 -250 c 0,46,47
 320 -250 320 -250 286 -241 c 1,0,-1
EndSplineSet
Validated: 1
EndChar

StartChar: Egrave
Encoding: 200 200 139
Width: 583
GlyphClass: 3
Flags: W
LayerCount: 2
Fore
SplineSet
83 0 m 1,0,-1
 83 750 l 1,1,-1
 500 750 l 1,2,-1
 500 667 l 1,3,-1
 250 667 l 1,4,-1
 250 417 l 1,5,-1
 417 417 l 1,6,-1
 417 333 l 1,7,-1
 250 333 l 1,8,-1
 250 83 l 1,9,-1
 500 83 l 1,10,-1
 500 0 l 1,11,-1
 83 0 l 1,0,-1
250 833 m 1,12,-1
 167 1000 l 1,13,-1
 250 1000 l 1,14,-1
 333 833 l 1,15,-1
 250 833 l 1,12,-1
EndSplineSet
Validated: 1
EndChar

StartChar: Eacute
Encoding: 201 201 140
Width: 583
GlyphClass: 3
Flags: W
LayerCount: 2
Fore
SplineSet
83 0 m 1,0,-1
 83 750 l 1,1,-1
 500 750 l 1,2,-1
 500 667 l 1,3,-1
 250 667 l 1,4,-1
 250 417 l 1,5,-1
 417 417 l 1,6,-1
 417 333 l 1,7,-1
 250 333 l 1,8,-1
 250 83 l 1,9,-1
 500 83 l 1,10,-1
 500 0 l 1,11,-1
 83 0 l 1,0,-1
250 833 m 1,12,-1
 333 1000 l 1,13,-1
 417 1000 l 1,14,-1
 333 833 l 1,15,-1
 250 833 l 1,12,-1
EndSplineSet
Validated: 1
EndChar

StartChar: Ecircumflex
Encoding: 202 202 141
Width: 583
GlyphClass: 3
Flags: W
LayerCount: 2
Fore
SplineSet
83 0 m 1,0,-1
 83 750 l 1,1,-1
 500 750 l 1,2,-1
 500 667 l 1,3,-1
 250 667 l 1,4,-1
 250 417 l 1,5,-1
 417 417 l 1,6,-1
 417 333 l 1,7,-1
 250 333 l 1,8,-1
 250 83 l 1,9,-1
 500 83 l 1,10,-1
 500 0 l 1,11,-1
 83 0 l 1,0,-1
108 833 m 1,12,-1
 233 1000 l 1,13,-1
 316 1000 l 1,14,-1
 441 833 l 1,15,-1
 358 833 l 1,16,-1
 274 917 l 1,17,-1
 191 833 l 1,18,-1
 108 833 l 1,12,-1
EndSplineSet
Validated: 1
EndChar

StartChar: Edieresis
Encoding: 203 203 142
Width: 583
GlyphClass: 3
Flags: W
LayerCount: 2
Fore
SplineSet
83 0 m 1,0,-1
 83 750 l 1,1,-1
 500 750 l 1,2,-1
 500 667 l 1,3,-1
 250 667 l 1,4,-1
 250 417 l 1,5,-1
 417 417 l 1,6,-1
 417 333 l 1,7,-1
 250 333 l 1,8,-1
 250 83 l 1,9,-1
 500 83 l 1,10,-1
 500 0 l 1,11,-1
 83 0 l 1,0,-1
118 833 m 1,12,-1
 118 936 l 1,13,-1
 216 936 l 1,14,-1
 216 833 l 1,15,-1
 118 833 l 1,12,-1
354 833 m 1,16,-1
 354 936 l 1,17,-1
 451 936 l 1,18,-1
 451 833 l 1,19,-1
 354 833 l 1,16,-1
EndSplineSet
Validated: 1
EndChar

StartChar: Igrave
Encoding: 204 204 143
Width: 500
GlyphClass: 3
Flags: W
LayerCount: 2
Fore
SplineSet
167 0 m 1,0,-1
 167 750 l 1,1,-1
 333 750 l 1,2,-1
 333 0 l 1,3,-1
 167 0 l 1,0,-1
250 833 m 1,4,-1
 167 1000 l 1,5,-1
 250 1000 l 1,6,-1
 333 833 l 1,7,-1
 250 833 l 1,4,-1
EndSplineSet
Validated: 1
EndChar

StartChar: Iacute
Encoding: 205 205 144
Width: 500
GlyphClass: 3
Flags: W
LayerCount: 2
Fore
SplineSet
167 0 m 1,0,-1
 167 750 l 1,1,-1
 333 750 l 1,2,-1
 333 0 l 1,3,-1
 167 0 l 1,0,-1
167 833 m 1,4,-1
 250 1000 l 1,5,-1
 333 1000 l 1,6,-1
 250 833 l 1,7,-1
 167 833 l 1,4,-1
EndSplineSet
Validated: 1
EndChar

StartChar: Icircumflex
Encoding: 206 206 145
Width: 500
GlyphClass: 3
Flags: W
LayerCount: 2
Fore
SplineSet
167 0 m 1,0,-1
 167 750 l 1,1,-1
 333 750 l 1,2,-1
 333 0 l 1,3,-1
 167 0 l 1,0,-1
83 833 m 1,4,-1
 208 1000 l 1,5,-1
 292 1000 l 1,6,-1
 417 833 l 1,7,-1
 333 833 l 1,8,-1
 250 917 l 1,9,-1
 167 833 l 1,10,-1
 83 833 l 1,4,-1
EndSplineSet
Validated: 1
EndChar

StartChar: Idieresis
Encoding: 207 207 146
Width: 500
GlyphClass: 3
Flags: W
LayerCount: 2
Fore
SplineSet
167 0 m 1,0,-1
 167 750 l 1,1,-1
 333 750 l 1,2,-1
 333 0 l 1,3,-1
 167 0 l 1,0,-1
83 833 m 1,4,-1
 83 936 l 1,5,-1
 181 936 l 1,6,-1
 181 833 l 1,7,-1
 83 833 l 1,4,-1
319 833 m 1,8,-1
 319 936 l 1,9,-1
 417 936 l 1,10,-1
 417 833 l 1,11,-1
 319 833 l 1,8,-1
EndSplineSet
Validated: 1
EndChar

StartChar: Eth
Encoding: 208 208 147
Width: 667
GlyphClass: 2
Flags: W
LayerCount: 2
Fore
SplineSet
83 0 m 1,0,-1
 83 333 l 1,1,-1
 0 333 l 1,2,-1
 0 417 l 1,3,-1
 83 417 l 1,4,-1
 83 750 l 1,5,-1
 417 750 l 2,6,7
 485 750 485 750 534 700.5 c 128,-1,8
 583 651 583 651 583 583 c 2,9,-1
 583 167 l 2,10,11
 583 99 583 99 534 49.5 c 128,-1,12
 485 0 485 0 417 0 c 2,13,-1
 83 0 l 1,0,-1
250 83 m 1,14,-1
 333 83 l 2,15,16
 368 83 368 83 392.5 108 c 128,-1,17
 417 133 417 133 417 167 c 2,18,-1
 417 583 l 2,19,20
 417 618 417 618 392.5 642.5 c 128,-1,21
 368 667 368 667 333 667 c 2,22,-1
 250 667 l 1,23,-1
 250 417 l 1,24,-1
 333 417 l 1,25,-1
 333 333 l 1,26,-1
 250 333 l 1,27,-1
 250 83 l 1,14,-1
EndSplineSet
Validated: 1
EndChar

StartChar: Ntilde
Encoding: 209 209 148
Width: 750
GlyphClass: 3
Flags: W
LayerCount: 2
Fore
SplineSet
83 0 m 1,0,-1
 83 750 l 1,1,-1
 122 750 l 1,2,-1
 583 333 l 1,3,-1
 583 750 l 1,4,-1
 667 750 l 1,5,-1
 667 0 l 1,6,-1
 629 0 l 1,7,-1
 167 417 l 1,8,-1
 167 0 l 1,9,-1
 83 0 l 1,0,-1
208 833 m 1,10,-1
 125 833 l 1,11,12
 145 1000 145 1000 292 1000 c 0,13,14
 340 1000 340 1000 395 951 c 2,15,-1
 407 941 l 2,16,17
 435 917 435 917 458 917 c 0,18,19
 532 917 532 917 542 1000 c 1,20,-1
 625 1000 l 1,21,22
 605 833 605 833 458 833 c 0,23,24
 410 833 410 833 354 882 c 2,25,-1
 343 892 l 2,26,27
 315 917 315 917 292 917 c 0,28,29
 218 917 218 917 208 833 c 1,10,-1
EndSplineSet
Validated: 1
EndChar

StartChar: Ograve
Encoding: 210 210 149
Width: 667
GlyphClass: 3
Flags: W
LayerCount: 2
Fore
SplineSet
250 750 m 2,0,-1
 417 750 l 2,1,2
 485 750 485 750 534 700.5 c 128,-1,3
 583 651 583 651 583 583 c 2,4,-1
 583 167 l 2,5,6
 583 99 583 99 534 49.5 c 128,-1,7
 485 0 485 0 417 0 c 2,8,-1
 250 0 l 2,9,10
 182 0 182 0 132.5 49 c 128,-1,11
 83 98 83 98 83 167 c 2,12,-1
 83 583 l 2,13,14
 83 652 83 652 132.5 701 c 128,-1,15
 182 750 182 750 250 750 c 2,0,-1
250 583 m 2,16,-1
 250 167 l 2,17,18
 250 133 250 133 274.5 108 c 128,-1,19
 299 83 299 83 333 83 c 0,20,21
 368 83 368 83 392.5 108 c 128,-1,22
 417 133 417 133 417 167 c 2,23,-1
 417 583 l 2,24,25
 417 618 417 618 392.5 642.5 c 128,-1,26
 368 667 368 667 333 667 c 0,27,28
 299 667 299 667 274.5 642.5 c 128,-1,29
 250 618 250 618 250 583 c 2,16,-1
333 833 m 1,30,-1
 250 1000 l 1,31,-1
 333 1000 l 1,32,-1
 417 833 l 1,33,-1
 333 833 l 1,30,-1
EndSplineSet
Validated: 1
EndChar

StartChar: Oacute
Encoding: 211 211 150
Width: 667
GlyphClass: 3
Flags: W
LayerCount: 2
Fore
SplineSet
250 750 m 2,0,-1
 417 750 l 2,1,2
 485 750 485 750 534 700.5 c 128,-1,3
 583 651 583 651 583 583 c 2,4,-1
 583 167 l 2,5,6
 583 99 583 99 534 49.5 c 128,-1,7
 485 0 485 0 417 0 c 2,8,-1
 250 0 l 2,9,10
 182 0 182 0 132.5 49 c 128,-1,11
 83 98 83 98 83 167 c 2,12,-1
 83 583 l 2,13,14
 83 652 83 652 132.5 701 c 128,-1,15
 182 750 182 750 250 750 c 2,0,-1
250 583 m 2,16,-1
 250 167 l 2,17,18
 250 133 250 133 274.5 108 c 128,-1,19
 299 83 299 83 333 83 c 0,20,21
 368 83 368 83 392.5 108 c 128,-1,22
 417 133 417 133 417 167 c 2,23,-1
 417 583 l 2,24,25
 417 618 417 618 392.5 642.5 c 128,-1,26
 368 667 368 667 333 667 c 0,27,28
 299 667 299 667 274.5 642.5 c 128,-1,29
 250 618 250 618 250 583 c 2,16,-1
250 833 m 1,30,-1
 333 1000 l 1,31,-1
 417 1000 l 1,32,-1
 333 833 l 1,33,-1
 250 833 l 1,30,-1
EndSplineSet
Validated: 1
EndChar

StartChar: Ocircumflex
Encoding: 212 212 151
Width: 667
GlyphClass: 3
Flags: W
LayerCount: 2
Fore
SplineSet
250 750 m 2,0,-1
 417 750 l 2,1,2
 485 750 485 750 534 700.5 c 128,-1,3
 583 651 583 651 583 583 c 2,4,-1
 583 167 l 2,5,6
 583 99 583 99 534 49.5 c 128,-1,7
 485 0 485 0 417 0 c 2,8,-1
 250 0 l 2,9,10
 182 0 182 0 132.5 49 c 128,-1,11
 83 98 83 98 83 167 c 2,12,-1
 83 583 l 2,13,14
 83 652 83 652 132.5 701 c 128,-1,15
 182 750 182 750 250 750 c 2,0,-1
250 583 m 2,16,-1
 250 167 l 2,17,18
 250 133 250 133 274.5 108 c 128,-1,19
 299 83 299 83 333 83 c 0,20,21
 368 83 368 83 392.5 108 c 128,-1,22
 417 133 417 133 417 167 c 2,23,-1
 417 583 l 2,24,25
 417 618 417 618 392.5 642.5 c 128,-1,26
 368 667 368 667 333 667 c 0,27,28
 299 667 299 667 274.5 642.5 c 128,-1,29
 250 618 250 618 250 583 c 2,16,-1
167 833 m 1,30,-1
 292 1000 l 1,31,-1
 375 1000 l 1,32,-1
 500 833 l 1,33,-1
 417 833 l 1,34,-1
 333 917 l 1,35,-1
 250 833 l 1,36,-1
 167 833 l 1,30,-1
EndSplineSet
Validated: 1
EndChar

StartChar: Otilde
Encoding: 213 213 152
Width: 667
GlyphClass: 3
Flags: W
LayerCount: 2
Fore
SplineSet
250 750 m 2,0,-1
 417 750 l 2,1,2
 485 750 485 750 534 700.5 c 128,-1,3
 583 651 583 651 583 583 c 2,4,-1
 583 167 l 2,5,6
 583 99 583 99 534 49.5 c 128,-1,7
 485 0 485 0 417 0 c 2,8,-1
 250 0 l 2,9,10
 182 0 182 0 132.5 49 c 128,-1,11
 83 98 83 98 83 167 c 2,12,-1
 83 583 l 2,13,14
 83 652 83 652 132.5 701 c 128,-1,15
 182 750 182 750 250 750 c 2,0,-1
250 583 m 2,16,-1
 250 167 l 2,17,18
 250 133 250 133 274.5 108 c 128,-1,19
 299 83 299 83 333 83 c 0,20,21
 368 83 368 83 392.5 108 c 128,-1,22
 417 133 417 133 417 167 c 2,23,-1
 417 583 l 2,24,25
 417 618 417 618 392.5 642.5 c 128,-1,26
 368 667 368 667 333 667 c 0,27,28
 299 667 299 667 274.5 642.5 c 128,-1,29
 250 618 250 618 250 583 c 2,16,-1
167 833 m 1,30,-1
 83 833 l 1,31,32
 103 1000 103 1000 250 1000 c 0,33,34
 298 1000 298 1000 354 951 c 2,35,-1
 365 941 l 2,36,37
 393 917 393 917 417 917 c 0,38,39
 490 917 490 917 500 1000 c 1,40,-1
 583 1000 l 1,41,42
 564 833 564 833 417 833 c 0,43,44
 369 833 369 833 313 882 c 2,45,-1
 302 892 l 2,46,47
 274 917 274 917 250 917 c 0,48,49
 177 917 177 917 167 833 c 1,30,-1
EndSplineSet
Validated: 1
EndChar

StartChar: Odieresis
Encoding: 214 214 153
Width: 667
GlyphClass: 3
Flags: W
LayerCount: 2
Fore
SplineSet
250 750 m 2,0,-1
 417 750 l 2,1,2
 485 750 485 750 534 700.5 c 128,-1,3
 583 651 583 651 583 583 c 2,4,-1
 583 167 l 2,5,6
 583 99 583 99 534 49.5 c 128,-1,7
 485 0 485 0 417 0 c 2,8,-1
 250 0 l 2,9,10
 182 0 182 0 132.5 49 c 128,-1,11
 83 98 83 98 83 167 c 2,12,-1
 83 583 l 2,13,14
 83 652 83 652 132.5 701 c 128,-1,15
 182 750 182 750 250 750 c 2,0,-1
250 583 m 2,16,-1
 250 167 l 2,17,18
 250 133 250 133 274.5 108 c 128,-1,19
 299 83 299 83 333 83 c 0,20,21
 368 83 368 83 392.5 108 c 128,-1,22
 417 133 417 133 417 167 c 2,23,-1
 417 583 l 2,24,25
 417 618 417 618 392.5 642.5 c 128,-1,26
 368 667 368 667 333 667 c 0,27,28
 299 667 299 667 274.5 642.5 c 128,-1,29
 250 618 250 618 250 583 c 2,16,-1
167 833 m 1,30,-1
 167 936 l 1,31,-1
 265 936 l 1,32,-1
 265 833 l 1,33,-1
 167 833 l 1,30,-1
402 833 m 1,34,-1
 402 936 l 1,35,-1
 500 936 l 1,36,-1
 500 833 l 1,37,-1
 402 833 l 1,34,-1
EndSplineSet
Validated: 1
EndChar

StartChar: multiply
Encoding: 215 215 154
Width: 667
GlyphClass: 2
Flags: W
LayerCount: 2
Fore
SplineSet
83 482 m 1,0,-1
 143 542 l 1,1,-1
 333 351 l 1,2,-1
 524 542 l 1,3,-1
 583 482 l 1,4,-1
 393 292 l 1,5,-1
 583 101 l 1,6,-1
 524 42 l 1,7,-1
 333 232 l 1,8,-1
 143 42 l 1,9,-1
 83 101 l 1,10,-1
 274 292 l 1,11,-1
 83 482 l 1,0,-1
EndSplineSet
Validated: 1
EndChar

StartChar: Oslash
Encoding: 216 216 155
Width: 667
GlyphClass: 2
Flags: W
LayerCount: 2
Fore
SplineSet
83 0 m 1,0,-1
 119 63 l 1,1,2
 83 118 83 118 83 167 c 2,3,-1
 83 583 l 2,4,5
 83 652 83 652 132.5 701 c 128,-1,6
 182 750 182 750 250 750 c 2,7,-1
 417 750 l 2,8,9
 454 750 454 750 491 733 c 1,10,-1
 500 750 l 1,11,-1
 583 750 l 1,12,-1
 548 686 l 1,13,14
 583 632 583 632 583 583 c 2,15,-1
 583 167 l 2,16,17
 583 99 583 99 534 49.5 c 128,-1,18
 485 0 485 0 417 0 c 2,19,-1
 250 0 l 2,20,21
 214 0 214 0 176 17 c 1,22,-1
 167 0 l 1,23,-1
 83 0 l 1,0,-1
252 153 m 1,24,25
 265 83 265 83 333 83 c 0,26,27
 368 83 368 83 392.5 108 c 128,-1,28
 417 133 417 133 417 167 c 2,29,-1
 417 450 l 1,30,-1
 252 153 l 1,24,25
416 598 m 1,31,32
 398 667 398 667 333 667 c 0,33,34
 299 667 299 667 274.5 642.5 c 128,-1,35
 250 618 250 618 250 583 c 2,36,-1
 250 300 l 1,37,-1
 416 598 l 1,31,32
EndSplineSet
Validated: 1
EndChar

StartChar: Ugrave
Encoding: 217 217 156
Width: 667
GlyphClass: 3
Flags: W
LayerCount: 2
Fore
SplineSet
417 750 m 1,0,-1
 583 750 l 1,1,-1
 583 167 l 2,2,3
 583 99 583 99 534 49.5 c 128,-1,4
 485 0 485 0 417 0 c 2,5,-1
 250 0 l 2,6,7
 182 0 182 0 132.5 49 c 128,-1,8
 83 98 83 98 83 167 c 2,9,-1
 83 750 l 1,10,-1
 250 750 l 1,11,-1
 250 167 l 2,12,13
 250 133 250 133 274.5 108 c 128,-1,14
 299 83 299 83 333 83 c 0,15,16
 368 83 368 83 392.5 108 c 128,-1,17
 417 133 417 133 417 167 c 2,18,-1
 417 750 l 1,0,-1
333 833 m 1,19,-1
 250 1000 l 1,20,-1
 333 1000 l 1,21,-1
 417 833 l 1,22,-1
 333 833 l 1,19,-1
EndSplineSet
Validated: 1
EndChar

StartChar: Uacute
Encoding: 218 218 157
Width: 667
GlyphClass: 3
Flags: W
LayerCount: 2
Fore
SplineSet
417 750 m 1,0,-1
 583 750 l 1,1,-1
 583 167 l 2,2,3
 583 99 583 99 534 49.5 c 128,-1,4
 485 0 485 0 417 0 c 2,5,-1
 250 0 l 2,6,7
 182 0 182 0 132.5 49 c 128,-1,8
 83 98 83 98 83 167 c 2,9,-1
 83 750 l 1,10,-1
 250 750 l 1,11,-1
 250 167 l 2,12,13
 250 133 250 133 274.5 108 c 128,-1,14
 299 83 299 83 333 83 c 0,15,16
 368 83 368 83 392.5 108 c 128,-1,17
 417 133 417 133 417 167 c 2,18,-1
 417 750 l 1,0,-1
250 833 m 1,19,-1
 333 1000 l 1,20,-1
 417 1000 l 1,21,-1
 333 833 l 1,22,-1
 250 833 l 1,19,-1
EndSplineSet
Validated: 1
EndChar

StartChar: Ucircumflex
Encoding: 219 219 158
Width: 667
GlyphClass: 3
Flags: W
LayerCount: 2
Fore
SplineSet
417 750 m 1,0,-1
 583 750 l 1,1,-1
 583 167 l 2,2,3
 583 99 583 99 534 49.5 c 128,-1,4
 485 0 485 0 417 0 c 2,5,-1
 250 0 l 2,6,7
 182 0 182 0 132.5 49 c 128,-1,8
 83 98 83 98 83 167 c 2,9,-1
 83 750 l 1,10,-1
 250 750 l 1,11,-1
 250 167 l 2,12,13
 250 133 250 133 274.5 108 c 128,-1,14
 299 83 299 83 333 83 c 0,15,16
 368 83 368 83 392.5 108 c 128,-1,17
 417 133 417 133 417 167 c 2,18,-1
 417 750 l 1,0,-1
167 833 m 1,19,-1
 292 1000 l 1,20,-1
 375 1000 l 1,21,-1
 500 833 l 1,22,-1
 417 833 l 1,23,-1
 333 917 l 1,24,-1
 250 833 l 1,25,-1
 167 833 l 1,19,-1
EndSplineSet
Validated: 1
EndChar

StartChar: Udieresis
Encoding: 220 220 159
Width: 667
GlyphClass: 3
Flags: W
LayerCount: 2
Fore
SplineSet
417 750 m 1,0,-1
 583 750 l 1,1,-1
 583 167 l 2,2,3
 583 99 583 99 534 49.5 c 128,-1,4
 485 0 485 0 417 0 c 2,5,-1
 250 0 l 2,6,7
 182 0 182 0 132.5 49 c 128,-1,8
 83 98 83 98 83 167 c 2,9,-1
 83 750 l 1,10,-1
 250 750 l 1,11,-1
 250 167 l 2,12,13
 250 133 250 133 274.5 108 c 128,-1,14
 299 83 299 83 333 83 c 0,15,16
 368 83 368 83 392.5 108 c 128,-1,17
 417 133 417 133 417 167 c 2,18,-1
 417 750 l 1,0,-1
167 833 m 1,19,-1
 167 936 l 1,20,-1
 265 936 l 1,21,-1
 265 833 l 1,22,-1
 167 833 l 1,19,-1
402 833 m 1,23,-1
 402 936 l 1,24,-1
 500 936 l 1,25,-1
 500 833 l 1,26,-1
 402 833 l 1,23,-1
EndSplineSet
Validated: 1
EndChar

StartChar: Yacute
Encoding: 221 221 160
Width: 667
GlyphClass: 3
Flags: W
LayerCount: 2
Fore
SplineSet
250 0 m 1,0,-1
 250 333 l 1,1,2
 83 353 83 353 83 500 c 2,3,-1
 83 750 l 1,4,-1
 250 750 l 1,5,-1
 250 500 l 2,6,7
 250 466 250 466 274.5 441.5 c 128,-1,8
 299 417 299 417 333 417 c 0,9,10
 368 417 368 417 392.5 441.5 c 128,-1,11
 417 466 417 466 417 500 c 2,12,-1
 417 750 l 1,13,-1
 583 750 l 1,14,-1
 583 500 l 2,15,16
 583 353 583 353 417 333 c 1,17,-1
 417 0 l 1,18,-1
 250 0 l 1,0,-1
250 833 m 1,19,-1
 333 1000 l 1,20,-1
 417 1000 l 1,21,-1
 333 833 l 1,22,-1
 250 833 l 1,19,-1
EndSplineSet
Validated: 1
EndChar

StartChar: Thorn
Encoding: 222 222 161
Width: 667
GlyphClass: 2
Flags: W
LayerCount: 2
Fore
SplineSet
83 0 m 1,0,-1
 83 750 l 1,1,-1
 250 750 l 1,2,-1
 250 583 l 1,3,-1
 417 583 l 2,4,5
 485 583 485 583 534 534 c 128,-1,6
 583 485 583 485 583 417 c 2,7,-1
 583 333 l 2,8,9
 583 265 583 265 534 216 c 128,-1,10
 485 167 485 167 417 167 c 2,11,-1
 250 167 l 1,12,-1
 250 0 l 1,13,-1
 83 0 l 1,0,-1
250 250 m 1,14,-1
 333 250 l 2,15,16
 368 250 368 250 392.5 274.5 c 128,-1,17
 417 299 417 299 417 333 c 2,18,-1
 417 417 l 2,19,20
 417 451 417 451 392.5 475.5 c 128,-1,21
 368 500 368 500 333 500 c 2,22,-1
 250 500 l 1,23,-1
 250 250 l 1,14,-1
EndSplineSet
Validated: 1
EndChar

StartChar: germandbls
Encoding: 223 223 162
Width: 667
GlyphClass: 2
Flags: W
LayerCount: 2
Fore
SplineSet
83 0 m 1,0,-1
 83 583 l 2,1,2
 83 651 83 651 132.5 700.5 c 128,-1,3
 182 750 182 750 250 750 c 2,4,-1
 417 750 l 2,5,6
 485 750 485 750 534 700.5 c 128,-1,7
 583 651 583 651 583 583 c 0,8,9
 583 510 583 510 541.5 468 c 128,-1,10
 500 426 500 426 417 417 c 1,11,12
 500 417 500 417 541.5 363 c 128,-1,13
 583 309 583 309 583 250 c 2,14,-1
 583 167 l 2,15,16
 583 111 583 111 535 55.5 c 128,-1,17
 487 0 487 0 417 0 c 2,18,-1
 333 0 l 1,19,-1
 333 83 l 1,20,-1
 341 83 l 2,21,22
 351 83 351 83 375 93.5 c 128,-1,23
 399 104 399 104 408 122.5 c 128,-1,24
 417 141 417 141 417 167 c 2,25,-1
 417 292 l 2,26,27
 417 334 417 334 390 354.5 c 128,-1,28
 363 375 363 375 341 375 c 2,29,-1
 333 375 l 1,30,-1
 333 458 l 1,31,-1
 341 458 l 2,32,33
 361 458 361 458 389 479.5 c 128,-1,34
 417 501 417 501 417 542 c 2,35,-1
 417 583 l 2,36,37
 417 618 417 618 392.5 642.5 c 128,-1,38
 368 667 368 667 333 667 c 0,39,40
 299 667 299 667 274.5 642.5 c 128,-1,41
 250 618 250 618 250 583 c 2,42,-1
 250 0 l 1,43,-1
 83 0 l 1,0,-1
EndSplineSet
Validated: 1
EndChar

StartChar: agrave
Encoding: 224 224 163
Width: 667
GlyphClass: 3
Flags: W
LayerCount: 2
Fore
SplineSet
417 333 m 1,0,-1
 417 417 l 2,1,2
 417 451 417 451 392.5 475.5 c 128,-1,3
 368 500 368 500 333 500 c 2,4,-1
 250 500 l 2,5,6
 176 500 176 500 167 417 c 1,7,-1
 83 417 l 1,8,9
 103 583 103 583 250 583 c 2,10,-1
 417 583 l 2,11,12
 485 583 485 583 534 534 c 128,-1,13
 583 485 583 485 583 417 c 2,14,-1
 583 0 l 1,15,-1
 417 0 l 1,16,-1
 417 83 l 1,17,18
 407 0 407 0 333 0 c 2,19,-1
 250 0 l 2,20,21
 182 0 182 0 132.5 49 c 128,-1,22
 83 98 83 98 83 167 c 1,23,-1
 83 167 l 1,24,25
 83 235 83 235 132.5 284 c 128,-1,26
 182 333 182 333 250 333 c 2,27,-1
 417 333 l 1,0,-1
417 250 m 1,28,-1
 333 250 l 2,29,30
 299 250 299 250 274.5 225.5 c 128,-1,31
 250 201 250 201 250 167 c 1,32,-1
 250 167 l 1,33,34
 250 133 250 133 274.5 108 c 128,-1,35
 299 83 299 83 333 83 c 0,36,37
 368 83 368 83 392.5 108 c 128,-1,38
 417 133 417 133 417 167 c 2,39,-1
 417 250 l 1,28,-1
333 667 m 1,40,-1
 250 833 l 1,41,-1
 333 833 l 1,42,-1
 417 667 l 1,43,-1
 333 667 l 1,40,-1
EndSplineSet
Validated: 5
EndChar

StartChar: aacute
Encoding: 225 225 164
Width: 667
GlyphClass: 3
Flags: W
LayerCount: 2
Fore
SplineSet
417 333 m 1,0,-1
 417 417 l 2,1,2
 417 451 417 451 392.5 475.5 c 128,-1,3
 368 500 368 500 333 500 c 2,4,-1
 250 500 l 2,5,6
 176 500 176 500 167 417 c 1,7,-1
 83 417 l 1,8,9
 103 583 103 583 250 583 c 2,10,-1
 417 583 l 2,11,12
 485 583 485 583 534 534 c 128,-1,13
 583 485 583 485 583 417 c 2,14,-1
 583 0 l 1,15,-1
 417 0 l 1,16,-1
 417 83 l 1,17,18
 407 0 407 0 333 0 c 2,19,-1
 250 0 l 2,20,21
 182 0 182 0 132.5 49 c 128,-1,22
 83 98 83 98 83 167 c 1,23,-1
 83 167 l 1,24,25
 83 235 83 235 132.5 284 c 128,-1,26
 182 333 182 333 250 333 c 2,27,-1
 417 333 l 1,0,-1
417 250 m 1,28,-1
 333 250 l 2,29,30
 299 250 299 250 274.5 225.5 c 128,-1,31
 250 201 250 201 250 167 c 1,32,-1
 250 167 l 1,33,34
 250 133 250 133 274.5 108 c 128,-1,35
 299 83 299 83 333 83 c 0,36,37
 368 83 368 83 392.5 108 c 128,-1,38
 417 133 417 133 417 167 c 2,39,-1
 417 250 l 1,28,-1
250 667 m 1,40,-1
 333 833 l 1,41,-1
 417 833 l 1,42,-1
 333 667 l 1,43,-1
 250 667 l 1,40,-1
EndSplineSet
Validated: 5
EndChar

StartChar: acircumflex
Encoding: 226 226 165
Width: 667
GlyphClass: 3
Flags: W
LayerCount: 2
Fore
SplineSet
417 333 m 1,0,-1
 417 417 l 2,1,2
 417 451 417 451 392.5 475.5 c 128,-1,3
 368 500 368 500 333 500 c 2,4,-1
 250 500 l 2,5,6
 176 500 176 500 167 417 c 1,7,-1
 83 417 l 1,8,9
 103 583 103 583 250 583 c 2,10,-1
 417 583 l 2,11,12
 485 583 485 583 534 534 c 128,-1,13
 583 485 583 485 583 417 c 2,14,-1
 583 0 l 1,15,-1
 417 0 l 1,16,-1
 417 83 l 1,17,18
 407 0 407 0 333 0 c 2,19,-1
 250 0 l 2,20,21
 182 0 182 0 132.5 49 c 128,-1,22
 83 98 83 98 83 167 c 1,23,-1
 83 167 l 1,24,25
 83 235 83 235 132.5 284 c 128,-1,26
 182 333 182 333 250 333 c 2,27,-1
 417 333 l 1,0,-1
417 250 m 1,28,-1
 333 250 l 2,29,30
 299 250 299 250 274.5 225.5 c 128,-1,31
 250 201 250 201 250 167 c 1,32,-1
 250 167 l 1,33,34
 250 133 250 133 274.5 108 c 128,-1,35
 299 83 299 83 333 83 c 0,36,37
 368 83 368 83 392.5 108 c 128,-1,38
 417 133 417 133 417 167 c 2,39,-1
 417 250 l 1,28,-1
167 667 m 1,40,-1
 292 833 l 1,41,-1
 375 833 l 1,42,-1
 500 667 l 1,43,-1
 417 667 l 1,44,-1
 333 750 l 1,45,-1
 250 667 l 1,46,-1
 167 667 l 1,40,-1
EndSplineSet
Validated: 5
EndChar

StartChar: atilde
Encoding: 227 227 166
Width: 667
GlyphClass: 3
Flags: W
LayerCount: 2
Fore
SplineSet
417 333 m 1,0,-1
 417 417 l 2,1,2
 417 451 417 451 392.5 475.5 c 128,-1,3
 368 500 368 500 333 500 c 2,4,-1
 250 500 l 2,5,6
 176 500 176 500 167 417 c 1,7,-1
 83 417 l 1,8,9
 103 583 103 583 250 583 c 2,10,-1
 417 583 l 2,11,12
 485 583 485 583 534 534 c 128,-1,13
 583 485 583 485 583 417 c 2,14,-1
 583 0 l 1,15,-1
 417 0 l 1,16,-1
 417 83 l 1,17,18
 407 0 407 0 333 0 c 2,19,-1
 250 0 l 2,20,21
 182 0 182 0 132.5 49 c 128,-1,22
 83 98 83 98 83 167 c 1,23,-1
 83 167 l 1,24,25
 83 235 83 235 132.5 284 c 128,-1,26
 182 333 182 333 250 333 c 2,27,-1
 417 333 l 1,0,-1
417 250 m 1,28,-1
 333 250 l 2,29,30
 299 250 299 250 274.5 225.5 c 128,-1,31
 250 201 250 201 250 167 c 1,32,-1
 250 167 l 1,33,34
 250 133 250 133 274.5 108 c 128,-1,35
 299 83 299 83 333 83 c 0,36,37
 368 83 368 83 392.5 108 c 128,-1,38
 417 133 417 133 417 167 c 2,39,-1
 417 250 l 1,28,-1
167 667 m 1,40,-1
 83 667 l 1,41,42
 103 833 103 833 250 833 c 0,43,44
 298 833 298 833 354 785 c 1,45,-1
 365 774 l 2,46,47
 393 750 393 750 417 750 c 0,48,49
 490 750 490 750 500 833 c 1,50,-1
 583 833 l 1,51,52
 564 667 564 667 417 667 c 0,53,54
 369 667 369 667 313 715 c 1,55,-1
 302 726 l 2,56,57
 274 750 274 750 250 750 c 0,58,59
 177 750 177 750 167 667 c 1,40,-1
EndSplineSet
Validated: 5
EndChar

StartChar: adieresis
Encoding: 228 228 167
Width: 667
GlyphClass: 3
Flags: W
LayerCount: 2
Fore
SplineSet
417 333 m 1,0,-1
 417 417 l 2,1,2
 417 451 417 451 392.5 475.5 c 128,-1,3
 368 500 368 500 333 500 c 2,4,-1
 250 500 l 2,5,6
 176 500 176 500 167 417 c 1,7,-1
 83 417 l 1,8,9
 103 583 103 583 250 583 c 2,10,-1
 417 583 l 2,11,12
 485 583 485 583 534 534 c 128,-1,13
 583 485 583 485 583 417 c 2,14,-1
 583 0 l 1,15,-1
 417 0 l 1,16,-1
 417 83 l 1,17,18
 407 0 407 0 333 0 c 2,19,-1
 250 0 l 2,20,21
 182 0 182 0 132.5 49 c 128,-1,22
 83 98 83 98 83 167 c 1,23,-1
 83 167 l 1,24,25
 83 235 83 235 132.5 284 c 128,-1,26
 182 333 182 333 250 333 c 2,27,-1
 417 333 l 1,0,-1
417 250 m 1,28,-1
 333 250 l 2,29,30
 299 250 299 250 274.5 225.5 c 128,-1,31
 250 201 250 201 250 167 c 1,32,-1
 250 167 l 1,33,34
 250 133 250 133 274.5 108 c 128,-1,35
 299 83 299 83 333 83 c 0,36,37
 368 83 368 83 392.5 108 c 128,-1,38
 417 133 417 133 417 167 c 2,39,-1
 417 250 l 1,28,-1
167 667 m 1,40,-1
 167 770 l 1,41,-1
 265 770 l 1,42,-1
 265 667 l 1,43,-1
 167 667 l 1,40,-1
402 667 m 1,44,-1
 402 770 l 1,45,-1
 500 770 l 1,46,-1
 500 667 l 1,47,-1
 402 667 l 1,44,-1
EndSplineSet
Validated: 5
EndChar

StartChar: aring
Encoding: 229 229 168
Width: 667
GlyphClass: 3
Flags: W
LayerCount: 2
Fore
SplineSet
417 333 m 1,0,-1
 417 417 l 2,1,2
 417 451 417 451 392.5 475.5 c 128,-1,3
 368 500 368 500 333 500 c 2,4,-1
 250 500 l 2,5,6
 176 500 176 500 167 417 c 1,7,-1
 83 417 l 1,8,9
 103 583 103 583 250 583 c 2,10,-1
 417 583 l 2,11,12
 485 583 485 583 534 534 c 128,-1,13
 583 485 583 485 583 417 c 2,14,-1
 583 0 l 1,15,-1
 417 0 l 1,16,-1
 417 83 l 1,17,18
 407 0 407 0 333 0 c 2,19,-1
 250 0 l 2,20,21
 182 0 182 0 132.5 49 c 128,-1,22
 83 98 83 98 83 167 c 1,23,-1
 83 167 l 1,24,25
 83 235 83 235 132.5 284 c 128,-1,26
 182 333 182 333 250 333 c 2,27,-1
 417 333 l 1,0,-1
417 250 m 1,28,-1
 333 250 l 2,29,30
 299 250 299 250 274.5 225.5 c 128,-1,31
 250 201 250 201 250 167 c 1,32,-1
 250 167 l 1,33,34
 250 133 250 133 274.5 108 c 128,-1,35
 299 83 299 83 333 83 c 0,36,37
 368 83 368 83 392.5 108 c 128,-1,38
 417 133 417 133 417 167 c 2,39,-1
 417 250 l 1,28,-1
167 833 m 0,40,41
 167 902 167 902 216 951 c 128,-1,42
 265 1000 265 1000 333 1000 c 0,43,44
 402 1000 402 1000 451 951 c 128,-1,45
 500 902 500 902 500 833 c 0,46,47
 500 766 500 766 451 716.5 c 128,-1,48
 402 667 402 667 333 667 c 0,49,50
 265 667 265 667 216 716.5 c 128,-1,51
 167 766 167 766 167 833 c 0,40,41
250 833 m 0,52,53
 250 799 250 799 274.5 774.5 c 128,-1,54
 299 750 299 750 333 750 c 0,55,56
 368 750 368 750 392.5 774.5 c 128,-1,57
 417 799 417 799 417 833 c 0,58,59
 417 868 417 868 392.5 892.5 c 128,-1,60
 368 917 368 917 333 917 c 0,61,62
 299 917 299 917 274.5 892.5 c 128,-1,63
 250 868 250 868 250 833 c 0,52,53
EndSplineSet
Validated: 5
EndChar

StartChar: ae
Encoding: 230 230 169
Width: 1000
GlyphClass: 2
Flags: W
LayerCount: 2
Fore
SplineSet
417 250 m 1,0,-1
 333 250 l 2,1,2
 299 250 299 250 274.5 225.5 c 128,-1,3
 250 201 250 201 250 167 c 1,4,-1
 250 167 l 1,5,6
 250 133 250 133 274.5 108 c 128,-1,7
 299 83 299 83 333 83 c 0,8,9
 368 83 368 83 392.5 108 c 128,-1,10
 417 133 417 133 417 167 c 2,11,-1
 417 250 l 1,0,-1
583 333 m 1,12,-1
 750 333 l 1,13,-1
 750 417 l 2,14,15
 750 450 750 450 725.5 475 c 128,-1,16
 701 500 701 500 667 500 c 256,17,18
 633 500 633 500 608 475.5 c 128,-1,19
 583 451 583 451 583 417 c 2,20,-1
 583 333 l 1,12,-1
167 417 m 1,21,-1
 83 417 l 1,22,23
 103 583 103 583 250 583 c 2,24,-1
 417 583 l 2,25,26
 458 583 458 583 500 561 c 1,27,28
 542 583 542 583 583 583 c 2,29,-1
 750 583 l 2,30,31
 818 583 818 583 867.5 534 c 128,-1,32
 917 485 917 485 917 417 c 2,33,-1
 917 250 l 1,34,-1
 583 250 l 1,35,-1
 583 167 l 2,36,37
 583 133 583 133 607.5 108 c 128,-1,38
 632 83 632 83 667 83 c 2,39,-1
 750 83 l 2,40,41
 833 83 833 83 833 167 c 1,42,-1
 917 167 l 1,43,44
 897 0 897 0 750 0 c 2,45,-1
 583 0 l 2,46,47
 542 0 542 0 500 22 c 1,48,49
 458 0 458 0 417 0 c 2,50,-1
 250 0 l 2,51,52
 182 0 182 0 132.5 49 c 128,-1,53
 83 98 83 98 83 167 c 1,54,-1
 83 167 l 1,55,56
 83 235 83 235 132.5 284 c 128,-1,57
 182 333 182 333 250 333 c 2,58,-1
 417 333 l 1,59,-1
 417 417 l 2,60,61
 417 451 417 451 392.5 475.5 c 128,-1,62
 368 500 368 500 333 500 c 2,63,-1
 250 500 l 2,64,65
 176 500 176 500 167 417 c 1,21,-1
EndSplineSet
Validated: 5
EndChar

StartChar: ccedilla
Encoding: 231 231 170
Width: 583
GlyphClass: 3
Flags: W
LayerCount: 2
Fore
SplineSet
250 0 m 1,0,1
 83 19 83 19 83 167 c 2,2,-1
 83 417 l 2,3,4
 83 485 83 485 132.5 534 c 128,-1,5
 182 583 182 583 250 583 c 2,6,-1
 333 583 l 2,7,8
 491 583 491 583 500 417 c 1,9,-1
 417 417 l 1,10,11
 407 500 407 500 333 500 c 0,12,13
 299 500 299 500 274.5 475.5 c 128,-1,14
 250 451 250 451 250 417 c 2,15,-1
 250 167 l 2,16,17
 250 133 250 133 274.5 108 c 128,-1,18
 299 83 299 83 333 83 c 0,19,20
 407 83 407 83 417 167 c 1,21,-1
 500 167 l 1,22,23
 490 0 490 0 333 0 c 2,24,-1
 292 0 l 1,25,26
 344 0 344 0 380.5 -37.5 c 128,-1,27
 417 -75 417 -75 417 -125 c 0,28,29
 417 -176 417 -176 382.5 -213 c 128,-1,30
 348 -250 348 -250 297 -250 c 0,31,32
 278 -250 278 -250 244 -241 c 1,33,-1
 276 -164 l 1,34,35
 287 -167 287 -167 293 -167 c 0,36,37
 313 -167 313 -167 323 -156.5 c 128,-1,38
 333 -146 333 -146 333 -125 c 256,39,40
 333 -104 333 -104 323 -93.5 c 128,-1,41
 313 -83 313 -83 292 -83 c 2,42,-1
 250 -83 l 1,43,-1
 250 0 l 1,0,1
EndSplineSet
Validated: 1
EndChar

StartChar: egrave
Encoding: 232 232 171
Width: 667
GlyphClass: 3
Flags: W
LayerCount: 2
Fore
SplineSet
583 250 m 1,0,-1
 250 250 l 1,1,-1
 250 167 l 2,2,3
 250 133 250 133 274.5 108 c 128,-1,4
 299 83 299 83 333 83 c 2,5,-1
 417 83 l 2,6,7
 500 83 500 83 500 167 c 1,8,-1
 583 167 l 1,9,10
 564 0 564 0 417 0 c 2,11,-1
 250 0 l 2,12,13
 182 0 182 0 132.5 49 c 128,-1,14
 83 98 83 98 83 167 c 2,15,-1
 83 417 l 2,16,17
 83 485 83 485 132.5 534 c 128,-1,18
 182 583 182 583 250 583 c 2,19,-1
 417 583 l 2,20,21
 485 583 485 583 534 534 c 128,-1,22
 583 485 583 485 583 417 c 2,23,-1
 583 250 l 1,0,-1
250 333 m 1,24,-1
 417 333 l 1,25,-1
 417 417 l 2,26,27
 417 451 417 451 392.5 475.5 c 128,-1,28
 368 500 368 500 333 500 c 0,29,30
 299 500 299 500 274.5 475.5 c 128,-1,31
 250 451 250 451 250 417 c 2,32,-1
 250 333 l 1,24,-1
333 667 m 1,33,-1
 250 833 l 1,34,-1
 333 833 l 1,35,-1
 417 667 l 1,36,-1
 333 667 l 1,33,-1
EndSplineSet
Validated: 1
EndChar

StartChar: eacute
Encoding: 233 233 172
Width: 667
GlyphClass: 3
Flags: W
LayerCount: 2
Fore
SplineSet
583 250 m 1,0,-1
 250 250 l 1,1,-1
 250 167 l 2,2,3
 250 133 250 133 274.5 108 c 128,-1,4
 299 83 299 83 333 83 c 2,5,-1
 417 83 l 2,6,7
 500 83 500 83 500 167 c 1,8,-1
 583 167 l 1,9,10
 564 0 564 0 417 0 c 2,11,-1
 250 0 l 2,12,13
 182 0 182 0 132.5 49 c 128,-1,14
 83 98 83 98 83 167 c 2,15,-1
 83 417 l 2,16,17
 83 485 83 485 132.5 534 c 128,-1,18
 182 583 182 583 250 583 c 2,19,-1
 417 583 l 2,20,21
 485 583 485 583 534 534 c 128,-1,22
 583 485 583 485 583 417 c 2,23,-1
 583 250 l 1,0,-1
250 333 m 1,24,-1
 417 333 l 1,25,-1
 417 417 l 2,26,27
 417 451 417 451 392.5 475.5 c 128,-1,28
 368 500 368 500 333 500 c 0,29,30
 299 500 299 500 274.5 475.5 c 128,-1,31
 250 451 250 451 250 417 c 2,32,-1
 250 333 l 1,24,-1
250 667 m 1,33,-1
 333 833 l 1,34,-1
 417 833 l 1,35,-1
 333 667 l 1,36,-1
 250 667 l 1,33,-1
EndSplineSet
Validated: 1
EndChar

StartChar: ecircumflex
Encoding: 234 234 173
Width: 667
GlyphClass: 3
Flags: W
LayerCount: 2
Fore
SplineSet
583 250 m 1,0,-1
 250 250 l 1,1,-1
 250 167 l 2,2,3
 250 133 250 133 274.5 108 c 128,-1,4
 299 83 299 83 333 83 c 2,5,-1
 417 83 l 2,6,7
 500 83 500 83 500 167 c 1,8,-1
 583 167 l 1,9,10
 564 0 564 0 417 0 c 2,11,-1
 250 0 l 2,12,13
 182 0 182 0 132.5 49 c 128,-1,14
 83 98 83 98 83 167 c 2,15,-1
 83 417 l 2,16,17
 83 485 83 485 132.5 534 c 128,-1,18
 182 583 182 583 250 583 c 2,19,-1
 417 583 l 2,20,21
 485 583 485 583 534 534 c 128,-1,22
 583 485 583 485 583 417 c 2,23,-1
 583 250 l 1,0,-1
250 333 m 1,24,-1
 417 333 l 1,25,-1
 417 417 l 2,26,27
 417 451 417 451 392.5 475.5 c 128,-1,28
 368 500 368 500 333 500 c 0,29,30
 299 500 299 500 274.5 475.5 c 128,-1,31
 250 451 250 451 250 417 c 2,32,-1
 250 333 l 1,24,-1
167 667 m 1,33,-1
 292 833 l 1,34,-1
 375 833 l 1,35,-1
 500 667 l 1,36,-1
 417 667 l 1,37,-1
 333 750 l 1,38,-1
 250 667 l 1,39,-1
 167 667 l 1,33,-1
EndSplineSet
Validated: 1
EndChar

StartChar: edieresis
Encoding: 235 235 174
Width: 667
GlyphClass: 3
Flags: W
LayerCount: 2
Fore
SplineSet
583 250 m 1,0,-1
 250 250 l 1,1,-1
 250 167 l 2,2,3
 250 133 250 133 274.5 108 c 128,-1,4
 299 83 299 83 333 83 c 2,5,-1
 417 83 l 2,6,7
 500 83 500 83 500 167 c 1,8,-1
 583 167 l 1,9,10
 564 0 564 0 417 0 c 2,11,-1
 250 0 l 2,12,13
 182 0 182 0 132.5 49 c 128,-1,14
 83 98 83 98 83 167 c 2,15,-1
 83 417 l 2,16,17
 83 485 83 485 132.5 534 c 128,-1,18
 182 583 182 583 250 583 c 2,19,-1
 417 583 l 2,20,21
 485 583 485 583 534 534 c 128,-1,22
 583 485 583 485 583 417 c 2,23,-1
 583 250 l 1,0,-1
250 333 m 1,24,-1
 417 333 l 1,25,-1
 417 417 l 2,26,27
 417 451 417 451 392.5 475.5 c 128,-1,28
 368 500 368 500 333 500 c 0,29,30
 299 500 299 500 274.5 475.5 c 128,-1,31
 250 451 250 451 250 417 c 2,32,-1
 250 333 l 1,24,-1
167 667 m 1,33,-1
 167 770 l 1,34,-1
 265 770 l 1,35,-1
 265 667 l 1,36,-1
 167 667 l 1,33,-1
402 667 m 1,37,-1
 402 770 l 1,38,-1
 500 770 l 1,39,-1
 500 667 l 1,40,-1
 402 667 l 1,37,-1
EndSplineSet
Validated: 1
EndChar

StartChar: igrave
Encoding: 236 236 175
Width: 333
GlyphClass: 3
Flags: W
LayerCount: 2
Fore
SplineSet
84 0 m 1,0,-1
 84 583 l 1,1,-1
 250 583 l 1,2,-1
 250 0 l 1,3,-1
 84 0 l 1,0,-1
167 667 m 1,4,-1
 83 833 l 1,5,-1
 167 833 l 1,6,-1
 250 667 l 1,7,-1
 167 667 l 1,4,-1
EndSplineSet
Validated: 1
EndChar

StartChar: iacute
Encoding: 237 237 176
Width: 333
GlyphClass: 3
Flags: W
LayerCount: 2
Fore
SplineSet
84 0 m 1,0,-1
 84 583 l 1,1,-1
 250 583 l 1,2,-1
 250 0 l 1,3,-1
 84 0 l 1,0,-1
83 667 m 1,4,-1
 167 833 l 1,5,-1
 250 833 l 1,6,-1
 167 667 l 1,7,-1
 83 667 l 1,4,-1
EndSplineSet
Validated: 1
EndChar

StartChar: icircumflex
Encoding: 238 238 177
Width: 333
GlyphClass: 3
Flags: W
LayerCount: 2
Fore
SplineSet
83 0 m 1,0,-1
 83 583 l 1,1,-1
 250 583 l 1,2,-1
 250 0 l 1,3,-1
 83 0 l 1,0,-1
0 667 m 1,4,-1
 125 833 l 1,5,-1
 208 833 l 1,6,-1
 333 667 l 1,7,-1
 250 667 l 1,8,-1
 167 750 l 1,9,-1
 83 667 l 1,10,-1
 0 667 l 1,4,-1
EndSplineSet
Validated: 1
EndChar

StartChar: idieresis
Encoding: 239 239 178
Width: 333
GlyphClass: 3
Flags: W
LayerCount: 2
Fore
SplineSet
83 0 m 1,0,-1
 83 583 l 1,1,-1
 250 583 l 1,2,-1
 250 0 l 1,3,-1
 83 0 l 1,0,-1
0 667 m 1,4,-1
 0 770 l 1,5,-1
 98 770 l 1,6,-1
 98 667 l 1,7,-1
 0 667 l 1,4,-1
235 667 m 1,8,-1
 235 770 l 1,9,-1
 333 770 l 1,10,-1
 333 667 l 1,11,-1
 235 667 l 1,8,-1
EndSplineSet
Validated: 1
EndChar

StartChar: eth
Encoding: 240 240 179
Width: 667
GlyphClass: 2
Flags: W
LayerCount: 2
Fore
SplineSet
167 667 m 1,0,-1
 167 750 l 1,1,-1
 208 750 l 2,2,3
 296 750 296 750 382 715 c 1,4,-1
 417 750 l 1,5,-1
 500 750 l 1,6,-1
 435 684 l 1,7,8
 583 562 583 562 583 333 c 2,9,-1
 583 167 l 2,10,11
 583 99 583 99 534.5 49.5 c 128,-1,12
 486 0 486 0 417 0 c 2,13,-1
 250 0 l 2,14,15
 182 0 182 0 132.5 49 c 128,-1,16
 83 98 83 98 83 167 c 2,17,-1
 83 333 l 2,18,19
 83 403 83 403 133 451.5 c 128,-1,20
 183 500 183 500 250 500 c 2,21,-1
 417 500 l 1,22,23
 406 578 406 578 368 618 c 1,24,-1
 333 583 l 1,25,-1
 250 583 l 1,26,-1
 319 652 l 1,27,28
 284 667 284 667 245 667 c 2,29,-1
 167 667 l 1,0,-1
250 333 m 2,30,-1
 250 167 l 2,31,32
 250 133 250 133 274.5 108 c 128,-1,33
 299 83 299 83 333 83 c 0,34,35
 368 83 368 83 392.5 108 c 128,-1,36
 417 133 417 133 417 167 c 2,37,-1
 417 333 l 2,38,39
 417 368 417 368 392.5 392.5 c 128,-1,40
 368 417 368 417 333 417 c 0,41,42
 299 417 299 417 274.5 392.5 c 128,-1,43
 250 368 250 368 250 333 c 2,30,-1
EndSplineSet
Validated: 1
EndChar

StartChar: ntilde
Encoding: 241 241 180
Width: 667
GlyphClass: 3
Flags: W
LayerCount: 2
Fore
SplineSet
83 0 m 1,0,-1
 83 583 l 1,1,-1
 250 583 l 1,2,-1
 250 500 l 1,3,4
 255 542 255 542 276 562.5 c 128,-1,5
 297 583 297 583 333 583 c 2,6,-1
 417 583 l 2,7,8
 485 583 485 583 534 534 c 128,-1,9
 583 485 583 485 583 417 c 2,10,-1
 583 0 l 1,11,-1
 417 0 l 1,12,-1
 417 417 l 2,13,14
 417 451 417 451 392.5 475.5 c 128,-1,15
 368 500 368 500 333 500 c 0,16,17
 299 500 299 500 274.5 475.5 c 128,-1,18
 250 451 250 451 250 417 c 2,19,-1
 250 0 l 1,20,-1
 83 0 l 1,0,-1
167 667 m 1,21,-1
 83 667 l 1,22,23
 103 833 103 833 250 833 c 0,24,25
 298 833 298 833 354 785 c 1,26,-1
 365 774 l 2,27,28
 393 750 393 750 417 750 c 0,29,30
 490 750 490 750 500 833 c 1,31,-1
 583 833 l 1,32,33
 564 667 564 667 417 667 c 0,34,35
 369 667 369 667 313 715 c 1,36,-1
 302 726 l 2,37,38
 274 750 274 750 250 750 c 0,39,40
 177 750 177 750 167 667 c 1,21,-1
EndSplineSet
Validated: 1
EndChar

StartChar: ograve
Encoding: 242 242 181
Width: 667
GlyphClass: 3
Flags: W
LayerCount: 2
Fore
SplineSet
250 583 m 2,0,-1
 417 583 l 2,1,2
 485 583 485 583 534 534 c 128,-1,3
 583 485 583 485 583 417 c 2,4,-1
 583 167 l 2,5,6
 583 99 583 99 534 49.5 c 128,-1,7
 485 0 485 0 417 0 c 2,8,-1
 250 0 l 2,9,10
 182 0 182 0 132.5 49 c 128,-1,11
 83 98 83 98 83 167 c 2,12,-1
 83 417 l 2,13,14
 83 485 83 485 132.5 534 c 128,-1,15
 182 583 182 583 250 583 c 2,0,-1
250 417 m 2,16,-1
 250 167 l 2,17,18
 250 133 250 133 274.5 108 c 128,-1,19
 299 83 299 83 333 83 c 0,20,21
 368 83 368 83 392.5 108 c 128,-1,22
 417 133 417 133 417 167 c 2,23,-1
 417 417 l 2,24,25
 417 451 417 451 392.5 475.5 c 128,-1,26
 368 500 368 500 333 500 c 0,27,28
 299 500 299 500 274.5 475.5 c 128,-1,29
 250 451 250 451 250 417 c 2,16,-1
333 667 m 1,30,-1
 250 833 l 1,31,-1
 333 833 l 1,32,-1
 417 667 l 1,33,-1
 333 667 l 1,30,-1
EndSplineSet
Validated: 1
EndChar

StartChar: oacute
Encoding: 243 243 182
Width: 667
GlyphClass: 3
Flags: W
LayerCount: 2
Fore
SplineSet
250 583 m 2,0,-1
 417 583 l 2,1,2
 485 583 485 583 534 534 c 128,-1,3
 583 485 583 485 583 417 c 2,4,-1
 583 167 l 2,5,6
 583 99 583 99 534 49.5 c 128,-1,7
 485 0 485 0 417 0 c 2,8,-1
 250 0 l 2,9,10
 182 0 182 0 132.5 49 c 128,-1,11
 83 98 83 98 83 167 c 2,12,-1
 83 417 l 2,13,14
 83 485 83 485 132.5 534 c 128,-1,15
 182 583 182 583 250 583 c 2,0,-1
250 417 m 2,16,-1
 250 167 l 2,17,18
 250 133 250 133 274.5 108 c 128,-1,19
 299 83 299 83 333 83 c 0,20,21
 368 83 368 83 392.5 108 c 128,-1,22
 417 133 417 133 417 167 c 2,23,-1
 417 417 l 2,24,25
 417 451 417 451 392.5 475.5 c 128,-1,26
 368 500 368 500 333 500 c 0,27,28
 299 500 299 500 274.5 475.5 c 128,-1,29
 250 451 250 451 250 417 c 2,16,-1
250 667 m 1,30,-1
 333 833 l 1,31,-1
 417 833 l 1,32,-1
 333 667 l 1,33,-1
 250 667 l 1,30,-1
EndSplineSet
Validated: 1
EndChar

StartChar: ocircumflex
Encoding: 244 244 183
Width: 667
GlyphClass: 3
Flags: W
LayerCount: 2
Fore
SplineSet
250 583 m 2,0,-1
 417 583 l 2,1,2
 485 583 485 583 534 534 c 128,-1,3
 583 485 583 485 583 417 c 2,4,-1
 583 167 l 2,5,6
 583 99 583 99 534 49.5 c 128,-1,7
 485 0 485 0 417 0 c 2,8,-1
 250 0 l 2,9,10
 182 0 182 0 132.5 49 c 128,-1,11
 83 98 83 98 83 167 c 2,12,-1
 83 417 l 2,13,14
 83 485 83 485 132.5 534 c 128,-1,15
 182 583 182 583 250 583 c 2,0,-1
250 417 m 2,16,-1
 250 167 l 2,17,18
 250 133 250 133 274.5 108 c 128,-1,19
 299 83 299 83 333 83 c 0,20,21
 368 83 368 83 392.5 108 c 128,-1,22
 417 133 417 133 417 167 c 2,23,-1
 417 417 l 2,24,25
 417 451 417 451 392.5 475.5 c 128,-1,26
 368 500 368 500 333 500 c 0,27,28
 299 500 299 500 274.5 475.5 c 128,-1,29
 250 451 250 451 250 417 c 2,16,-1
167 667 m 1,30,-1
 292 833 l 1,31,-1
 375 833 l 1,32,-1
 500 667 l 1,33,-1
 417 667 l 1,34,-1
 333 750 l 1,35,-1
 250 667 l 1,36,-1
 167 667 l 1,30,-1
EndSplineSet
Validated: 1
EndChar

StartChar: otilde
Encoding: 245 245 184
Width: 667
GlyphClass: 3
Flags: W
LayerCount: 2
Fore
SplineSet
250 583 m 2,0,-1
 417 583 l 2,1,2
 485 583 485 583 534 534 c 128,-1,3
 583 485 583 485 583 417 c 2,4,-1
 583 167 l 2,5,6
 583 99 583 99 534 49.5 c 128,-1,7
 485 0 485 0 417 0 c 2,8,-1
 250 0 l 2,9,10
 182 0 182 0 132.5 49 c 128,-1,11
 83 98 83 98 83 167 c 2,12,-1
 83 417 l 2,13,14
 83 485 83 485 132.5 534 c 128,-1,15
 182 583 182 583 250 583 c 2,0,-1
250 417 m 2,16,-1
 250 167 l 2,17,18
 250 133 250 133 274.5 108 c 128,-1,19
 299 83 299 83 333 83 c 0,20,21
 368 83 368 83 392.5 108 c 128,-1,22
 417 133 417 133 417 167 c 2,23,-1
 417 417 l 2,24,25
 417 451 417 451 392.5 475.5 c 128,-1,26
 368 500 368 500 333 500 c 0,27,28
 299 500 299 500 274.5 475.5 c 128,-1,29
 250 451 250 451 250 417 c 2,16,-1
167 667 m 1,30,-1
 83 667 l 1,31,32
 103 833 103 833 250 833 c 0,33,34
 298 833 298 833 354 785 c 1,35,-1
 365 774 l 2,36,37
 393 750 393 750 417 750 c 0,38,39
 490 750 490 750 500 833 c 1,40,-1
 583 833 l 1,41,42
 564 667 564 667 417 667 c 0,43,44
 369 667 369 667 313 715 c 1,45,-1
 302 726 l 2,46,47
 274 750 274 750 250 750 c 0,48,49
 177 750 177 750 167 667 c 1,30,-1
EndSplineSet
Validated: 1
EndChar

StartChar: odieresis
Encoding: 246 246 185
Width: 667
GlyphClass: 3
Flags: W
LayerCount: 2
Fore
SplineSet
250 583 m 2,0,-1
 417 583 l 2,1,2
 485 583 485 583 534 534 c 128,-1,3
 583 485 583 485 583 417 c 2,4,-1
 583 167 l 2,5,6
 583 99 583 99 534 49.5 c 128,-1,7
 485 0 485 0 417 0 c 2,8,-1
 250 0 l 2,9,10
 182 0 182 0 132.5 49 c 128,-1,11
 83 98 83 98 83 167 c 2,12,-1
 83 417 l 2,13,14
 83 485 83 485 132.5 534 c 128,-1,15
 182 583 182 583 250 583 c 2,0,-1
250 417 m 2,16,-1
 250 167 l 2,17,18
 250 133 250 133 274.5 108 c 128,-1,19
 299 83 299 83 333 83 c 0,20,21
 368 83 368 83 392.5 108 c 128,-1,22
 417 133 417 133 417 167 c 2,23,-1
 417 417 l 2,24,25
 417 451 417 451 392.5 475.5 c 128,-1,26
 368 500 368 500 333 500 c 0,27,28
 299 500 299 500 274.5 475.5 c 128,-1,29
 250 451 250 451 250 417 c 2,16,-1
167 667 m 1,30,-1
 167 770 l 1,31,-1
 265 770 l 1,32,-1
 265 667 l 1,33,-1
 167 667 l 1,30,-1
402 667 m 1,34,-1
 402 770 l 1,35,-1
 500 770 l 1,36,-1
 500 667 l 1,37,-1
 402 667 l 1,34,-1
EndSplineSet
Validated: 1
EndChar

StartChar: divide
Encoding: 247 247 186
Width: 583
GlyphClass: 2
Flags: W
LayerCount: 2
Fore
SplineSet
250 417 m 1,0,-1
 250 500 l 1,1,-1
 333 500 l 1,2,-1
 333 417 l 1,3,-1
 250 417 l 1,0,-1
250 83 m 1,4,-1
 250 167 l 1,5,-1
 333 167 l 1,6,-1
 333 83 l 1,7,-1
 250 83 l 1,4,-1
83 250 m 1,8,-1
 83 333 l 1,9,-1
 500 333 l 1,10,-1
 500 250 l 1,11,-1
 83 250 l 1,8,-1
EndSplineSet
Validated: 1
EndChar

StartChar: oslash
Encoding: 248 248 187
Width: 667
GlyphClass: 2
Flags: W
LayerCount: 2
Fore
SplineSet
583 583 m 1,0,-1
 542 526 l 1,1,2
 583 469 583 469 583 417 c 2,3,-1
 583 167 l 2,4,5
 583 99 583 99 534 49.5 c 128,-1,6
 485 0 485 0 417 0 c 2,7,-1
 250 0 l 2,8,9
 214 0 214 0 178 16 c 1,10,-1
 167 0 l 1,11,-1
 83 0 l 1,12,-1
 125 57 l 1,13,14
 83 114 83 114 83 167 c 2,15,-1
 83 417 l 2,16,17
 83 485 83 485 132.5 534 c 128,-1,18
 182 583 182 583 250 583 c 2,19,-1
 417 583 l 2,20,21
 453 583 453 583 489 567 c 1,22,-1
 500 583 l 1,23,-1
 583 583 l 1,0,-1
250 233 m 1,24,-1
 408 454 l 1,25,26
 379 500 379 500 333 500 c 0,27,28
 299 500 299 500 274.5 475.5 c 128,-1,29
 250 451 250 451 250 417 c 2,30,-1
 250 233 l 1,24,-1
417 350 m 1,31,-1
 259 129 l 1,32,33
 288 83 288 83 333 83 c 0,34,35
 368 83 368 83 392.5 108 c 128,-1,36
 417 133 417 133 417 167 c 2,37,-1
 417 350 l 1,31,-1
EndSplineSet
Validated: 1
EndChar

StartChar: ugrave
Encoding: 249 249 188
Width: 667
GlyphClass: 3
Flags: W
LayerCount: 2
Fore
SplineSet
583 583 m 1,0,-1
 583 0 l 1,1,-1
 417 0 l 1,2,-1
 417 83 l 1,3,4
 407 0 407 0 333 0 c 2,5,-1
 250 0 l 2,6,7
 182 0 182 0 132.5 49 c 128,-1,8
 83 98 83 98 83 167 c 2,9,-1
 83 583 l 1,10,-1
 250 583 l 1,11,-1
 250 167 l 2,12,13
 250 133 250 133 274.5 108 c 128,-1,14
 299 83 299 83 333 83 c 0,15,16
 368 83 368 83 392.5 108 c 128,-1,17
 417 133 417 133 417 167 c 2,18,-1
 417 583 l 1,19,-1
 583 583 l 1,0,-1
333 667 m 1,20,-1
 250 833 l 1,21,-1
 333 833 l 1,22,-1
 417 667 l 1,23,-1
 333 667 l 1,20,-1
EndSplineSet
Validated: 1
EndChar

StartChar: uacute
Encoding: 250 250 189
Width: 667
GlyphClass: 3
Flags: W
LayerCount: 2
Fore
SplineSet
583 583 m 1,0,-1
 583 0 l 1,1,-1
 417 0 l 1,2,-1
 417 83 l 1,3,4
 407 0 407 0 333 0 c 2,5,-1
 250 0 l 2,6,7
 182 0 182 0 132.5 49 c 128,-1,8
 83 98 83 98 83 167 c 2,9,-1
 83 583 l 1,10,-1
 250 583 l 1,11,-1
 250 167 l 2,12,13
 250 133 250 133 274.5 108 c 128,-1,14
 299 83 299 83 333 83 c 0,15,16
 368 83 368 83 392.5 108 c 128,-1,17
 417 133 417 133 417 167 c 2,18,-1
 417 583 l 1,19,-1
 583 583 l 1,0,-1
271 667 m 1,20,-1
 354 833 l 1,21,-1
 438 833 l 1,22,-1
 354 667 l 1,23,-1
 271 667 l 1,20,-1
EndSplineSet
Validated: 1
EndChar

StartChar: ucircumflex
Encoding: 251 251 190
Width: 667
GlyphClass: 3
Flags: W
LayerCount: 2
Fore
SplineSet
583 583 m 1,0,-1
 583 0 l 1,1,-1
 417 0 l 1,2,-1
 417 83 l 1,3,4
 407 0 407 0 333 0 c 2,5,-1
 250 0 l 2,6,7
 182 0 182 0 132.5 49 c 128,-1,8
 83 98 83 98 83 167 c 2,9,-1
 83 583 l 1,10,-1
 250 583 l 1,11,-1
 250 167 l 2,12,13
 250 133 250 133 274.5 108 c 128,-1,14
 299 83 299 83 333 83 c 0,15,16
 368 83 368 83 392.5 108 c 128,-1,17
 417 133 417 133 417 167 c 2,18,-1
 417 583 l 1,19,-1
 583 583 l 1,0,-1
167 667 m 1,20,-1
 292 833 l 1,21,-1
 375 833 l 1,22,-1
 500 667 l 1,23,-1
 417 667 l 1,24,-1
 333 750 l 1,25,-1
 250 667 l 1,26,-1
 167 667 l 1,20,-1
EndSplineSet
Validated: 1
EndChar

StartChar: udieresis
Encoding: 252 252 191
Width: 667
GlyphClass: 3
Flags: W
LayerCount: 2
Fore
SplineSet
583 583 m 1,0,-1
 583 0 l 1,1,-1
 417 0 l 1,2,-1
 417 83 l 1,3,4
 407 0 407 0 333 0 c 2,5,-1
 250 0 l 2,6,7
 182 0 182 0 132.5 49 c 128,-1,8
 83 98 83 98 83 167 c 2,9,-1
 83 583 l 1,10,-1
 250 583 l 1,11,-1
 250 167 l 2,12,13
 250 133 250 133 274.5 108 c 128,-1,14
 299 83 299 83 333 83 c 0,15,16
 368 83 368 83 392.5 108 c 128,-1,17
 417 133 417 133 417 167 c 2,18,-1
 417 583 l 1,19,-1
 583 583 l 1,0,-1
167 667 m 1,20,-1
 167 770 l 1,21,-1
 265 770 l 1,22,-1
 265 667 l 1,23,-1
 167 667 l 1,20,-1
402 667 m 1,24,-1
 402 770 l 1,25,-1
 500 770 l 1,26,-1
 500 667 l 1,27,-1
 402 667 l 1,24,-1
EndSplineSet
Validated: 1
EndChar

StartChar: yacute
Encoding: 253 253 192
Width: 667
GlyphClass: 3
Flags: W
LayerCount: 2
Fore
SplineSet
167 -83 m 1,0,1
 173 -167 173 -167 250 -167 c 2,2,-1
 333 -167 l 2,3,4
 368 -167 368 -167 392.5 -142.5 c 128,-1,5
 417 -118 417 -118 417 -83 c 2,6,-1
 417 83 l 1,7,8
 407 0 407 0 333 0 c 2,9,-1
 250 0 l 2,10,11
 182 0 182 0 132.5 49 c 128,-1,12
 83 98 83 98 83 167 c 2,13,-1
 83 583 l 1,14,-1
 250 583 l 1,15,-1
 250 167 l 2,16,17
 250 133 250 133 274.5 108 c 128,-1,18
 299 83 299 83 333 83 c 0,19,20
 368 83 368 83 392.5 108 c 128,-1,21
 417 133 417 133 417 167 c 2,22,-1
 417 583 l 1,23,-1
 583 583 l 1,24,-1
 583 -83 l 2,25,26
 583 -151 583 -151 534 -200.5 c 128,-1,27
 485 -250 485 -250 417 -250 c 2,28,-1
 250 -250 l 2,29,30
 103 -250 103 -250 83 -83 c 1,31,-1
 167 -83 l 1,0,1
250 667 m 1,32,-1
 333 833 l 1,33,-1
 417 833 l 1,34,-1
 333 667 l 1,35,-1
 250 667 l 1,32,-1
EndSplineSet
Validated: 1
EndChar

StartChar: thorn
Encoding: 254 254 193
Width: 667
GlyphClass: 2
Flags: W
LayerCount: 2
Fore
SplineSet
83 -167 m 1,0,-1
 83 750 l 1,1,-1
 250 750 l 1,2,-1
 250 500 l 1,3,4
 255 542 255 542 276 562.5 c 128,-1,5
 297 583 297 583 333 583 c 2,6,-1
 417 583 l 2,7,8
 485 583 485 583 534 534 c 128,-1,9
 583 485 583 485 583 417 c 2,10,-1
 583 167 l 2,11,12
 583 99 583 99 534 49.5 c 128,-1,13
 485 0 485 0 417 0 c 2,14,-1
 250 0 l 1,15,-1
 250 -167 l 1,16,-1
 83 -167 l 1,0,-1
250 83 m 1,17,-1
 333 83 l 2,18,19
 368 83 368 83 392.5 108 c 128,-1,20
 417 133 417 133 417 167 c 2,21,-1
 417 417 l 2,22,23
 417 451 417 451 392.5 475.5 c 128,-1,24
 368 500 368 500 333 500 c 0,25,26
 299 500 299 500 274.5 475.5 c 128,-1,27
 250 451 250 451 250 417 c 2,28,-1
 250 83 l 1,17,-1
EndSplineSet
Validated: 1
EndChar

StartChar: ydieresis
Encoding: 255 255 194
Width: 667
GlyphClass: 3
Flags: W
LayerCount: 2
Fore
SplineSet
167 -83 m 1,0,1
 173 -167 173 -167 250 -167 c 2,2,-1
 333 -167 l 2,3,4
 368 -167 368 -167 392.5 -142.5 c 128,-1,5
 417 -118 417 -118 417 -83 c 2,6,-1
 417 83 l 1,7,8
 407 0 407 0 333 0 c 2,9,-1
 250 0 l 2,10,11
 182 0 182 0 132.5 49 c 128,-1,12
 83 98 83 98 83 167 c 2,13,-1
 83 583 l 1,14,-1
 250 583 l 1,15,-1
 250 167 l 2,16,17
 250 133 250 133 274.5 108 c 128,-1,18
 299 83 299 83 333 83 c 0,19,20
 368 83 368 83 392.5 108 c 128,-1,21
 417 133 417 133 417 167 c 2,22,-1
 417 583 l 1,23,-1
 583 583 l 1,24,-1
 583 -83 l 2,25,26
 583 -151 583 -151 534 -200.5 c 128,-1,27
 485 -250 485 -250 417 -250 c 2,28,-1
 250 -250 l 2,29,30
 103 -250 103 -250 83 -83 c 1,31,-1
 167 -83 l 1,0,1
167 667 m 1,32,-1
 167 770 l 1,33,-1
 265 770 l 1,34,-1
 265 667 l 1,35,-1
 167 667 l 1,32,-1
402 667 m 1,36,-1
 402 770 l 1,37,-1
 500 770 l 1,38,-1
 500 667 l 1,39,-1
 402 667 l 1,36,-1
EndSplineSet
Validated: 1
EndChar

StartChar: Amacron
Encoding: 256 256 195
Width: 667
GlyphClass: 3
Flags: W
LayerCount: 2
Fore
SplineSet
83 0 m 1,0,-1
 83 583 l 2,1,2
 83 652 83 652 132.5 701 c 128,-1,3
 182 750 182 750 250 750 c 2,4,-1
 417 750 l 2,5,6
 485 750 485 750 534 700.5 c 128,-1,7
 583 651 583 651 583 583 c 2,8,-1
 583 0 l 1,9,-1
 417 0 l 1,10,-1
 417 333 l 1,11,-1
 250 333 l 1,12,-1
 250 0 l 1,13,-1
 83 0 l 1,0,-1
250 417 m 1,14,-1
 417 417 l 1,15,-1
 417 583 l 2,16,17
 417 618 417 618 392.5 642.5 c 128,-1,18
 368 667 368 667 333 667 c 0,19,20
 299 667 299 667 274.5 642.5 c 128,-1,21
 250 618 250 618 250 583 c 2,22,-1
 250 417 l 1,14,-1
167 800 m 1,23,-1
 167 883 l 1,24,-1
 500 883 l 1,25,-1
 500 800 l 1,26,-1
 167 800 l 1,23,-1
EndSplineSet
Validated: 1
EndChar

StartChar: amacron
Encoding: 257 257 196
Width: 667
GlyphClass: 3
Flags: W
LayerCount: 2
Fore
SplineSet
417 333 m 1,0,-1
 417 417 l 2,1,2
 417 451 417 451 392.5 475.5 c 128,-1,3
 368 500 368 500 333 500 c 2,4,-1
 250 500 l 2,5,6
 176 500 176 500 167 417 c 1,7,-1
 83 417 l 1,8,9
 103 583 103 583 250 583 c 2,10,-1
 417 583 l 2,11,12
 485 583 485 583 534 534 c 128,-1,13
 583 485 583 485 583 417 c 2,14,-1
 583 0 l 1,15,-1
 417 0 l 1,16,-1
 417 83 l 1,17,18
 407 0 407 0 333 0 c 2,19,-1
 250 0 l 2,20,21
 182 0 182 0 132.5 49 c 128,-1,22
 83 98 83 98 83 167 c 1,23,-1
 83 167 l 1,24,25
 83 235 83 235 132.5 284 c 128,-1,26
 182 333 182 333 250 333 c 2,27,-1
 417 333 l 1,0,-1
417 250 m 1,28,-1
 333 250 l 2,29,30
 299 250 299 250 274.5 225.5 c 128,-1,31
 250 201 250 201 250 167 c 1,32,-1
 250 167 l 1,33,34
 250 133 250 133 274.5 108 c 128,-1,35
 299 83 299 83 333 83 c 0,36,37
 368 83 368 83 392.5 108 c 128,-1,38
 417 133 417 133 417 167 c 2,39,-1
 417 250 l 1,28,-1
167 633 m 1,40,-1
 167 717 l 1,41,-1
 500 717 l 1,42,-1
 500 633 l 1,43,-1
 167 633 l 1,40,-1
EndSplineSet
Validated: 5
EndChar

StartChar: Abreve
Encoding: 258 258 197
Width: 667
GlyphClass: 3
Flags: W
LayerCount: 2
Fore
SplineSet
83 0 m 1,0,-1
 83 583 l 2,1,2
 83 652 83 652 132.5 701 c 128,-1,3
 182 750 182 750 250 750 c 2,4,-1
 417 750 l 2,5,6
 485 750 485 750 534 700.5 c 128,-1,7
 583 651 583 651 583 583 c 2,8,-1
 583 0 l 1,9,-1
 417 0 l 1,10,-1
 417 333 l 1,11,-1
 250 333 l 1,12,-1
 250 0 l 1,13,-1
 83 0 l 1,0,-1
250 417 m 1,14,-1
 417 417 l 1,15,-1
 417 583 l 2,16,17
 417 618 417 618 392.5 642.5 c 128,-1,18
 368 667 368 667 333 667 c 0,19,20
 299 667 299 667 274.5 642.5 c 128,-1,21
 250 618 250 618 250 583 c 2,22,-1
 250 417 l 1,14,-1
417 967 m 1,23,-1
 500 967 l 1,24,25
 481 800 481 800 333 800 c 0,26,27
 187 800 187 800 167 967 c 1,28,-1
 250 967 l 1,29,30
 260 883 260 883 333 883 c 0,31,32
 407 883 407 883 417 967 c 1,23,-1
EndSplineSet
Validated: 1
EndChar

StartChar: abreve
Encoding: 259 259 198
Width: 667
GlyphClass: 3
Flags: W
LayerCount: 2
Fore
SplineSet
417 333 m 1,0,-1
 417 417 l 2,1,2
 417 451 417 451 392.5 475.5 c 128,-1,3
 368 500 368 500 333 500 c 2,4,-1
 250 500 l 2,5,6
 176 500 176 500 167 417 c 1,7,-1
 83 417 l 1,8,9
 103 583 103 583 250 583 c 2,10,-1
 417 583 l 2,11,12
 485 583 485 583 534 534 c 128,-1,13
 583 485 583 485 583 417 c 2,14,-1
 583 0 l 1,15,-1
 417 0 l 1,16,-1
 417 83 l 1,17,18
 407 0 407 0 333 0 c 2,19,-1
 250 0 l 2,20,21
 182 0 182 0 132.5 49 c 128,-1,22
 83 98 83 98 83 167 c 1,23,-1
 83 167 l 1,24,25
 83 235 83 235 132.5 284 c 128,-1,26
 182 333 182 333 250 333 c 2,27,-1
 417 333 l 1,0,-1
417 250 m 1,28,-1
 333 250 l 2,29,30
 299 250 299 250 274.5 225.5 c 128,-1,31
 250 201 250 201 250 167 c 1,32,-1
 250 167 l 1,33,34
 250 133 250 133 274.5 108 c 128,-1,35
 299 83 299 83 333 83 c 0,36,37
 368 83 368 83 392.5 108 c 128,-1,38
 417 133 417 133 417 167 c 2,39,-1
 417 250 l 1,28,-1
417 800 m 1,40,-1
 500 800 l 1,41,42
 481 633 481 633 333 633 c 0,43,44
 187 633 187 633 167 800 c 1,45,-1
 250 800 l 1,46,47
 260 717 260 717 333 717 c 0,48,49
 407 717 407 717 417 800 c 1,40,-1
EndSplineSet
Validated: 5
EndChar

StartChar: Aogonek
Encoding: 260 260 199
Width: 667
GlyphClass: 3
Flags: W
LayerCount: 2
Fore
SplineSet
83 0 m 1,0,-1
 83 583 l 2,1,2
 83 652 83 652 132.5 701 c 128,-1,3
 182 750 182 750 250 750 c 2,4,-1
 417 750 l 2,5,6
 485 750 485 750 534 700.5 c 128,-1,7
 583 651 583 651 583 583 c 2,8,-1
 583 0 l 1,9,-1
 417 0 l 1,10,-1
 417 333 l 1,11,-1
 250 333 l 1,12,-1
 250 0 l 1,13,-1
 83 0 l 1,0,-1
250 417 m 1,14,-1
 417 417 l 1,15,-1
 417 583 l 2,16,17
 417 618 417 618 392.5 642.5 c 128,-1,18
 368 667 368 667 333 667 c 0,19,20
 299 667 299 667 274.5 642.5 c 128,-1,21
 250 618 250 618 250 583 c 2,22,-1
 250 417 l 1,14,-1
578 -83 m 1,23,-1
 536 -83 l 2,24,25
 515 -83 515 -83 504.5 -93.5 c 128,-1,26
 494 -104 494 -104 494 -125 c 256,27,28
 494 -146 494 -146 504 -156.5 c 128,-1,29
 514 -167 514 -167 534 -167 c 0,30,31
 541 -167 541 -167 552 -164 c 1,32,-1
 583 -241 l 1,33,34
 549 -250 549 -250 531 -250 c 0,35,36
 489 -250 489 -250 450 -214.5 c 128,-1,37
 411 -179 411 -179 411 -125 c 0,38,39
 411 -74 411 -74 448 -37 c 128,-1,40
 485 0 485 0 536 0 c 2,41,-1
 578 0 l 1,42,-1
 578 -83 l 1,23,-1
EndSplineSet
Validated: 5
EndChar

StartChar: aogonek
Encoding: 261 261 200
Width: 667
GlyphClass: 3
Flags: W
LayerCount: 2
Fore
SplineSet
417 333 m 1,0,-1
 417 417 l 2,1,2
 417 451 417 451 392.5 475.5 c 128,-1,3
 368 500 368 500 333 500 c 2,4,-1
 250 500 l 2,5,6
 176 500 176 500 167 417 c 1,7,-1
 83 417 l 1,8,9
 103 583 103 583 250 583 c 2,10,-1
 417 583 l 2,11,12
 485 583 485 583 534 534 c 128,-1,13
 583 485 583 485 583 417 c 2,14,-1
 583 0 l 1,15,-1
 417 0 l 1,16,-1
 417 83 l 1,17,18
 407 0 407 0 333 0 c 2,19,-1
 250 0 l 2,20,21
 182 0 182 0 132.5 49 c 128,-1,22
 83 98 83 98 83 167 c 1,23,-1
 83 167 l 1,24,25
 83 235 83 235 132.5 284 c 128,-1,26
 182 333 182 333 250 333 c 2,27,-1
 417 333 l 1,0,-1
417 250 m 1,28,-1
 333 250 l 2,29,30
 299 250 299 250 274.5 225.5 c 128,-1,31
 250 201 250 201 250 167 c 1,32,-1
 250 167 l 1,33,34
 250 133 250 133 274.5 108 c 128,-1,35
 299 83 299 83 333 83 c 0,36,37
 368 83 368 83 392.5 108 c 128,-1,38
 417 133 417 133 417 167 c 2,39,-1
 417 250 l 1,28,-1
578 -83 m 1,40,-1
 536 -83 l 2,41,42
 515 -83 515 -83 504.5 -93.5 c 128,-1,43
 494 -104 494 -104 494 -125 c 256,44,45
 494 -146 494 -146 504 -156.5 c 128,-1,46
 514 -167 514 -167 534 -167 c 0,47,48
 541 -167 541 -167 552 -164 c 1,49,-1
 583 -241 l 1,50,51
 549 -250 549 -250 531 -250 c 0,52,53
 489 -250 489 -250 450 -214.5 c 128,-1,54
 411 -179 411 -179 411 -125 c 0,55,56
 411 -74 411 -74 448 -37 c 128,-1,57
 485 0 485 0 536 0 c 2,58,-1
 578 0 l 1,59,-1
 578 -83 l 1,40,-1
EndSplineSet
Validated: 5
EndChar

StartChar: Cacute
Encoding: 262 262 201
Width: 667
GlyphClass: 3
Flags: W
LayerCount: 2
Fore
SplineSet
583 167 m 1,0,1
 573 0 573 0 417 0 c 2,2,-1
 250 0 l 2,3,4
 182 0 182 0 132.5 49 c 128,-1,5
 83 98 83 98 83 167 c 2,6,-1
 83 583 l 2,7,8
 83 651 83 651 131.5 700.5 c 128,-1,9
 180 750 180 750 250 750 c 2,10,-1
 417 750 l 2,11,12
 574 750 574 750 583 583 c 1,13,-1
 500 583 l 1,14,15
 490 667 490 667 417 667 c 2,16,-1
 333 667 l 2,17,18
 299 667 299 667 274.5 642.5 c 128,-1,19
 250 618 250 618 250 583 c 2,20,-1
 250 167 l 2,21,22
 250 133 250 133 274.5 108 c 128,-1,23
 299 83 299 83 333 83 c 2,24,-1
 417 83 l 2,25,26
 491 83 491 83 500 167 c 1,27,-1
 583 167 l 1,0,1
250 833 m 1,28,-1
 333 1000 l 1,29,-1
 417 1000 l 1,30,-1
 333 833 l 1,31,-1
 250 833 l 1,28,-1
EndSplineSet
Validated: 1
EndChar

StartChar: cacute
Encoding: 263 263 202
Width: 583
GlyphClass: 3
Flags: W
LayerCount: 2
Fore
SplineSet
500 417 m 1,0,-1
 417 417 l 1,1,2
 407 500 407 500 333 500 c 0,3,4
 299 500 299 500 274.5 475.5 c 128,-1,5
 250 451 250 451 250 417 c 2,6,-1
 250 167 l 2,7,8
 250 133 250 133 274.5 108 c 128,-1,9
 299 83 299 83 333 83 c 0,10,11
 407 83 407 83 417 167 c 1,12,-1
 500 167 l 1,13,14
 490 0 490 0 333 0 c 2,15,-1
 250 0 l 2,16,17
 182 0 182 0 132.5 49 c 128,-1,18
 83 98 83 98 83 167 c 2,19,-1
 83 417 l 2,20,21
 83 485 83 485 132.5 534 c 128,-1,22
 182 583 182 583 250 583 c 2,23,-1
 333 583 l 2,24,25
 491 583 491 583 500 417 c 1,0,-1
250 667 m 1,26,-1
 333 833 l 1,27,-1
 417 833 l 1,28,-1
 333 667 l 1,29,-1
 250 667 l 1,26,-1
EndSplineSet
Validated: 1
EndChar

StartChar: Ccircumflex
Encoding: 264 264 203
Width: 667
GlyphClass: 3
Flags: W
LayerCount: 2
Fore
SplineSet
583 167 m 1,0,1
 573 0 573 0 417 0 c 2,2,-1
 250 0 l 2,3,4
 182 0 182 0 132.5 49 c 128,-1,5
 83 98 83 98 83 167 c 2,6,-1
 83 583 l 2,7,8
 83 651 83 651 131.5 700.5 c 128,-1,9
 180 750 180 750 250 750 c 2,10,-1
 417 750 l 2,11,12
 574 750 574 750 583 583 c 1,13,-1
 500 583 l 1,14,15
 490 667 490 667 417 667 c 2,16,-1
 333 667 l 2,17,18
 299 667 299 667 274.5 642.5 c 128,-1,19
 250 618 250 618 250 583 c 2,20,-1
 250 167 l 2,21,22
 250 133 250 133 274.5 108 c 128,-1,23
 299 83 299 83 333 83 c 2,24,-1
 417 83 l 2,25,26
 491 83 491 83 500 167 c 1,27,-1
 583 167 l 1,0,1
167 800 m 1,28,-1
 292 967 l 1,29,-1
 375 967 l 1,30,-1
 500 800 l 1,31,-1
 417 800 l 1,32,-1
 333 883 l 1,33,-1
 250 800 l 1,34,-1
 167 800 l 1,28,-1
EndSplineSet
Validated: 1
EndChar

StartChar: ccircumflex
Encoding: 265 265 204
Width: 583
GlyphClass: 3
Flags: W
LayerCount: 2
Fore
SplineSet
500 417 m 1,0,-1
 417 417 l 1,1,2
 407 500 407 500 333 500 c 0,3,4
 299 500 299 500 274.5 475.5 c 128,-1,5
 250 451 250 451 250 417 c 2,6,-1
 250 167 l 2,7,8
 250 133 250 133 274.5 108 c 128,-1,9
 299 83 299 83 333 83 c 0,10,11
 407 83 407 83 417 167 c 1,12,-1
 500 167 l 1,13,14
 490 0 490 0 333 0 c 2,15,-1
 250 0 l 2,16,17
 182 0 182 0 132.5 49 c 128,-1,18
 83 98 83 98 83 167 c 2,19,-1
 83 417 l 2,20,21
 83 485 83 485 132.5 534 c 128,-1,22
 182 583 182 583 250 583 c 2,23,-1
 333 583 l 2,24,25
 491 583 491 583 500 417 c 1,0,-1
125 633 m 1,26,-1
 250 800 l 1,27,-1
 333 800 l 1,28,-1
 458 633 l 1,29,-1
 375 633 l 1,30,-1
 292 717 l 1,31,-1
 208 633 l 1,32,-1
 125 633 l 1,26,-1
EndSplineSet
Validated: 1
EndChar

StartChar: Cdotaccent
Encoding: 266 266 205
Width: 667
GlyphClass: 3
Flags: W
LayerCount: 2
Fore
SplineSet
583 167 m 1,0,1
 573 0 573 0 417 0 c 2,2,-1
 250 0 l 2,3,4
 182 0 182 0 132.5 49 c 128,-1,5
 83 98 83 98 83 167 c 2,6,-1
 83 583 l 2,7,8
 83 651 83 651 131.5 700.5 c 128,-1,9
 180 750 180 750 250 750 c 2,10,-1
 417 750 l 2,11,12
 574 750 574 750 583 583 c 1,13,-1
 500 583 l 1,14,15
 490 667 490 667 417 667 c 2,16,-1
 333 667 l 2,17,18
 299 667 299 667 274.5 642.5 c 128,-1,19
 250 618 250 618 250 583 c 2,20,-1
 250 167 l 2,21,22
 250 133 250 133 274.5 108 c 128,-1,23
 299 83 299 83 333 83 c 2,24,-1
 417 83 l 2,25,26
 491 83 491 83 500 167 c 1,27,-1
 583 167 l 1,0,1
294 800 m 1,28,-1
 294 903 l 1,29,-1
 393 903 l 1,30,-1
 393 800 l 1,31,-1
 294 800 l 1,28,-1
EndSplineSet
Validated: 1
EndChar

StartChar: cdotaccent
Encoding: 267 267 206
Width: 583
GlyphClass: 3
Flags: W
LayerCount: 2
Fore
SplineSet
500 417 m 1,0,-1
 417 417 l 1,1,2
 407 500 407 500 333 500 c 0,3,4
 299 500 299 500 274.5 475.5 c 128,-1,5
 250 451 250 451 250 417 c 2,6,-1
 250 167 l 2,7,8
 250 133 250 133 274.5 108 c 128,-1,9
 299 83 299 83 333 83 c 0,10,11
 407 83 407 83 417 167 c 1,12,-1
 500 167 l 1,13,14
 490 0 490 0 333 0 c 2,15,-1
 250 0 l 2,16,17
 182 0 182 0 132.5 49 c 128,-1,18
 83 98 83 98 83 167 c 2,19,-1
 83 417 l 2,20,21
 83 485 83 485 132.5 534 c 128,-1,22
 182 583 182 583 250 583 c 2,23,-1
 333 583 l 2,24,25
 491 583 491 583 500 417 c 1,0,-1
252 633 m 1,26,-1
 252 736 l 1,27,-1
 351 736 l 1,28,-1
 351 633 l 1,29,-1
 252 633 l 1,26,-1
EndSplineSet
Validated: 1
EndChar

StartChar: Ccaron
Encoding: 268 268 207
Width: 667
GlyphClass: 3
Flags: W
LayerCount: 2
Fore
SplineSet
583 167 m 1,0,1
 573 0 573 0 417 0 c 2,2,-1
 250 0 l 2,3,4
 182 0 182 0 132.5 49 c 128,-1,5
 83 98 83 98 83 167 c 2,6,-1
 83 583 l 2,7,8
 83 651 83 651 131.5 700.5 c 128,-1,9
 180 750 180 750 250 750 c 2,10,-1
 417 750 l 2,11,12
 574 750 574 750 583 583 c 1,13,-1
 500 583 l 1,14,15
 490 667 490 667 417 667 c 2,16,-1
 333 667 l 2,17,18
 299 667 299 667 274.5 642.5 c 128,-1,19
 250 618 250 618 250 583 c 2,20,-1
 250 167 l 2,21,22
 250 133 250 133 274.5 108 c 128,-1,23
 299 83 299 83 333 83 c 2,24,-1
 417 83 l 2,25,26
 491 83 491 83 500 167 c 1,27,-1
 583 167 l 1,0,1
500 1000 m 1,28,-1
 375 833 l 1,29,-1
 292 833 l 1,30,-1
 167 1000 l 1,31,-1
 250 1000 l 1,32,-1
 333 917 l 1,33,-1
 417 1000 l 1,34,-1
 500 1000 l 1,28,-1
EndSplineSet
Validated: 1
EndChar

StartChar: ccaron
Encoding: 269 269 208
Width: 583
GlyphClass: 3
Flags: W
LayerCount: 2
Fore
SplineSet
500 417 m 1,0,-1
 417 417 l 1,1,2
 407 500 407 500 333 500 c 0,3,4
 299 500 299 500 274.5 475.5 c 128,-1,5
 250 451 250 451 250 417 c 2,6,-1
 250 167 l 2,7,8
 250 133 250 133 274.5 108 c 128,-1,9
 299 83 299 83 333 83 c 0,10,11
 407 83 407 83 417 167 c 1,12,-1
 500 167 l 1,13,14
 490 0 490 0 333 0 c 2,15,-1
 250 0 l 2,16,17
 182 0 182 0 132.5 49 c 128,-1,18
 83 98 83 98 83 167 c 2,19,-1
 83 417 l 2,20,21
 83 485 83 485 132.5 534 c 128,-1,22
 182 583 182 583 250 583 c 2,23,-1
 333 583 l 2,24,25
 491 583 491 583 500 417 c 1,0,-1
458 833 m 1,26,-1
 333 667 l 1,27,-1
 250 667 l 1,28,-1
 125 833 l 1,29,-1
 208 833 l 1,30,-1
 292 750 l 1,31,-1
 375 833 l 1,32,-1
 458 833 l 1,26,-1
EndSplineSet
Validated: 1
EndChar

StartChar: Dcaron
Encoding: 270 270 209
Width: 667
GlyphClass: 3
Flags: W
LayerCount: 2
Fore
SplineSet
83 0 m 1,0,-1
 83 750 l 1,1,-1
 417 750 l 2,2,3
 485 750 485 750 534 700.5 c 128,-1,4
 583 651 583 651 583 583 c 2,5,-1
 583 167 l 2,6,7
 583 99 583 99 534 49.5 c 128,-1,8
 485 0 485 0 417 0 c 2,9,-1
 83 0 l 1,0,-1
250 83 m 1,10,-1
 333 83 l 2,11,12
 368 83 368 83 392.5 108 c 128,-1,13
 417 133 417 133 417 167 c 2,14,-1
 417 583 l 2,15,16
 417 618 417 618 392.5 642.5 c 128,-1,17
 368 667 368 667 333 667 c 2,18,-1
 250 667 l 1,19,-1
 250 83 l 1,10,-1
500 966 m 1,20,-1
 375 800 l 1,21,-1
 292 800 l 1,22,-1
 167 967 l 1,23,-1
 250 967 l 1,24,-1
 333 883 l 1,25,-1
 417 966 l 1,26,-1
 500 966 l 1,20,-1
EndSplineSet
Validated: 1
EndChar

StartChar: dcaron
Encoding: 271 271 210
Width: 667
GlyphClass: 3
Flags: W
LayerCount: 2
Fore
SplineSet
583 0 m 1,0,-1
 417 0 l 1,1,-1
 417 83 l 1,2,3
 407 0 407 0 333 0 c 2,4,-1
 250 0 l 2,5,6
 182 0 182 0 132.5 49 c 128,-1,7
 83 98 83 98 83 167 c 2,8,-1
 83 417 l 2,9,10
 83 485 83 485 132.5 534 c 128,-1,11
 182 583 182 583 250 583 c 2,12,-1
 417 583 l 1,13,-1
 417 750 l 1,14,-1
 583 750 l 1,15,-1
 583 0 l 1,0,-1
417 500 m 1,16,-1
 333 500 l 2,17,18
 299 500 299 500 274.5 475.5 c 128,-1,19
 250 451 250 451 250 417 c 2,20,-1
 250 167 l 2,21,22
 250 133 250 133 274.5 108 c 128,-1,23
 299 83 299 83 333 83 c 0,24,25
 368 83 368 83 392.5 108 c 128,-1,26
 417 133 417 133 417 167 c 2,27,-1
 417 500 l 1,16,-1
633 941 m 1,28,-1
 800 941 l 1,29,-1
 800 775 l 2,30,31
 800 627 800 627 633 608 c 1,32,-1
 633 691 l 1,33,34
 714 694 714 694 717 775 c 1,35,-1
 633 775 l 1,36,-1
 633 941 l 1,28,-1
EndSplineSet
Validated: 1
EndChar

StartChar: Dcroat
Encoding: 272 272 211
Width: 667
GlyphClass: 2
Flags: W
LayerCount: 2
Fore
SplineSet
83 0 m 1,0,-1
 83 333 l 1,1,-1
 0 333 l 1,2,-1
 0 417 l 1,3,-1
 83 417 l 1,4,-1
 83 750 l 1,5,-1
 417 750 l 2,6,7
 485 750 485 750 534 700.5 c 128,-1,8
 583 651 583 651 583 583 c 2,9,-1
 583 167 l 2,10,11
 583 99 583 99 534 49.5 c 128,-1,12
 485 0 485 0 417 0 c 2,13,-1
 83 0 l 1,0,-1
250 83 m 1,14,-1
 333 83 l 2,15,16
 368 83 368 83 392.5 108 c 128,-1,17
 417 133 417 133 417 167 c 2,18,-1
 417 583 l 2,19,20
 417 618 417 618 392.5 642.5 c 128,-1,21
 368 667 368 667 333 667 c 2,22,-1
 250 667 l 1,23,-1
 250 417 l 1,24,-1
 333 417 l 1,25,-1
 333 333 l 1,26,-1
 250 333 l 1,27,-1
 250 83 l 1,14,-1
EndSplineSet
Validated: 1
EndChar

StartChar: dcroat
Encoding: 273 273 212
Width: 667
GlyphClass: 2
Flags: W
LayerCount: 2
Fore
SplineSet
583 0 m 1,0,-1
 417 0 l 1,1,-1
 417 83 l 1,2,3
 407 0 407 0 333 0 c 2,4,-1
 250 0 l 2,5,6
 182 0 182 0 132.5 49 c 128,-1,7
 83 98 83 98 83 167 c 2,8,-1
 83 417 l 2,9,10
 83 485 83 485 132.5 534 c 128,-1,11
 182 583 182 583 250 583 c 2,12,-1
 417 583 l 1,13,-1
 417 667 l 1,14,-1
 333 667 l 1,15,-1
 333 750 l 1,16,-1
 417 750 l 1,17,-1
 417 833 l 1,18,-1
 583 833 l 1,19,-1
 583 750 l 1,20,-1
 667 750 l 1,21,-1
 667 667 l 1,22,-1
 583 667 l 1,23,-1
 583 0 l 1,0,-1
417 500 m 1,24,-1
 333 500 l 2,25,26
 299 500 299 500 274.5 475.5 c 128,-1,27
 250 451 250 451 250 417 c 2,28,-1
 250 167 l 2,29,30
 250 133 250 133 274.5 108 c 128,-1,31
 299 83 299 83 333 83 c 0,32,33
 368 83 368 83 392.5 108 c 128,-1,34
 417 133 417 133 417 167 c 2,35,-1
 417 500 l 1,24,-1
EndSplineSet
Validated: 1
EndChar

StartChar: Emacron
Encoding: 274 274 213
Width: 583
GlyphClass: 3
Flags: W
LayerCount: 2
Fore
SplineSet
83 0 m 1,0,-1
 83 750 l 1,1,-1
 500 750 l 1,2,-1
 500 667 l 1,3,-1
 250 667 l 1,4,-1
 250 417 l 1,5,-1
 417 417 l 1,6,-1
 417 333 l 1,7,-1
 250 333 l 1,8,-1
 250 83 l 1,9,-1
 500 83 l 1,10,-1
 500 0 l 1,11,-1
 83 0 l 1,0,-1
125 800 m 1,12,-1
 125 883 l 1,13,-1
 458 883 l 1,14,-1
 458 800 l 1,15,-1
 125 800 l 1,12,-1
EndSplineSet
Validated: 1
EndChar

StartChar: emacron
Encoding: 275 275 214
Width: 667
GlyphClass: 3
Flags: W
LayerCount: 2
Fore
SplineSet
583 250 m 1,0,-1
 250 250 l 1,1,-1
 250 167 l 2,2,3
 250 133 250 133 274.5 108 c 128,-1,4
 299 83 299 83 333 83 c 2,5,-1
 417 83 l 2,6,7
 500 83 500 83 500 167 c 1,8,-1
 583 167 l 1,9,10
 564 0 564 0 417 0 c 2,11,-1
 250 0 l 2,12,13
 182 0 182 0 132.5 49 c 128,-1,14
 83 98 83 98 83 167 c 2,15,-1
 83 417 l 2,16,17
 83 485 83 485 132.5 534 c 128,-1,18
 182 583 182 583 250 583 c 2,19,-1
 417 583 l 2,20,21
 485 583 485 583 534 534 c 128,-1,22
 583 485 583 485 583 417 c 2,23,-1
 583 250 l 1,0,-1
250 333 m 1,24,-1
 417 333 l 1,25,-1
 417 417 l 2,26,27
 417 451 417 451 392.5 475.5 c 128,-1,28
 368 500 368 500 333 500 c 0,29,30
 299 500 299 500 274.5 475.5 c 128,-1,31
 250 451 250 451 250 417 c 2,32,-1
 250 333 l 1,24,-1
167 633 m 1,33,-1
 167 717 l 1,34,-1
 500 717 l 1,35,-1
 500 633 l 1,36,-1
 167 633 l 1,33,-1
EndSplineSet
Validated: 1
EndChar

StartChar: Ebreve
Encoding: 276 276 215
Width: 583
GlyphClass: 3
Flags: W
LayerCount: 2
Fore
SplineSet
83 0 m 1,0,-1
 83 750 l 1,1,-1
 500 750 l 1,2,-1
 500 667 l 1,3,-1
 250 667 l 1,4,-1
 250 417 l 1,5,-1
 417 417 l 1,6,-1
 417 333 l 1,7,-1
 250 333 l 1,8,-1
 250 83 l 1,9,-1
 500 83 l 1,10,-1
 500 0 l 1,11,-1
 83 0 l 1,0,-1
375 967 m 1,12,-1
 458 967 l 1,13,14
 439 800 439 800 292 800 c 256,15,16
 145 800 145 800 125 967 c 1,17,-1
 208 967 l 1,18,19
 218 883 218 883 292 883 c 0,20,21
 365 883 365 883 375 967 c 1,12,-1
EndSplineSet
Validated: 1
EndChar

StartChar: ebreve
Encoding: 277 277 216
Width: 667
GlyphClass: 3
Flags: W
LayerCount: 2
Fore
SplineSet
583 250 m 1,0,-1
 250 250 l 1,1,-1
 250 167 l 2,2,3
 250 133 250 133 274.5 108 c 128,-1,4
 299 83 299 83 333 83 c 2,5,-1
 417 83 l 2,6,7
 500 83 500 83 500 167 c 1,8,-1
 583 167 l 1,9,10
 564 0 564 0 417 0 c 2,11,-1
 250 0 l 2,12,13
 182 0 182 0 132.5 49 c 128,-1,14
 83 98 83 98 83 167 c 2,15,-1
 83 417 l 2,16,17
 83 485 83 485 132.5 534 c 128,-1,18
 182 583 182 583 250 583 c 2,19,-1
 417 583 l 2,20,21
 485 583 485 583 534 534 c 128,-1,22
 583 485 583 485 583 417 c 2,23,-1
 583 250 l 1,0,-1
250 333 m 1,24,-1
 417 333 l 1,25,-1
 417 417 l 2,26,27
 417 451 417 451 392.5 475.5 c 128,-1,28
 368 500 368 500 333 500 c 0,29,30
 299 500 299 500 274.5 475.5 c 128,-1,31
 250 451 250 451 250 417 c 2,32,-1
 250 333 l 1,24,-1
417 800 m 1,33,-1
 500 800 l 1,34,35
 481 633 481 633 333 633 c 0,36,37
 187 633 187 633 167 800 c 1,38,-1
 250 800 l 1,39,40
 260 717 260 717 333 717 c 0,41,42
 407 717 407 717 417 800 c 1,33,-1
EndSplineSet
Validated: 1
EndChar

StartChar: Edotaccent
Encoding: 278 278 217
Width: 583
GlyphClass: 3
Flags: W
LayerCount: 2
Fore
SplineSet
83 0 m 1,0,-1
 83 750 l 1,1,-1
 500 750 l 1,2,-1
 500 667 l 1,3,-1
 250 667 l 1,4,-1
 250 417 l 1,5,-1
 417 417 l 1,6,-1
 417 333 l 1,7,-1
 250 333 l 1,8,-1
 250 83 l 1,9,-1
 500 83 l 1,10,-1
 500 0 l 1,11,-1
 83 0 l 1,0,-1
252 800 m 1,12,-1
 252 903 l 1,13,-1
 351 903 l 1,14,-1
 351 800 l 1,15,-1
 252 800 l 1,12,-1
EndSplineSet
Validated: 1
EndChar

StartChar: edotaccent
Encoding: 279 279 218
Width: 667
GlyphClass: 3
Flags: W
LayerCount: 2
Fore
SplineSet
583 250 m 1,0,-1
 250 250 l 1,1,-1
 250 167 l 2,2,3
 250 133 250 133 274.5 108 c 128,-1,4
 299 83 299 83 333 83 c 2,5,-1
 417 83 l 2,6,7
 500 83 500 83 500 167 c 1,8,-1
 583 167 l 1,9,10
 564 0 564 0 417 0 c 2,11,-1
 250 0 l 2,12,13
 182 0 182 0 132.5 49 c 128,-1,14
 83 98 83 98 83 167 c 2,15,-1
 83 417 l 2,16,17
 83 485 83 485 132.5 534 c 128,-1,18
 182 583 182 583 250 583 c 2,19,-1
 417 583 l 2,20,21
 485 583 485 583 534 534 c 128,-1,22
 583 485 583 485 583 417 c 2,23,-1
 583 250 l 1,0,-1
250 333 m 1,24,-1
 417 333 l 1,25,-1
 417 417 l 2,26,27
 417 451 417 451 392.5 475.5 c 128,-1,28
 368 500 368 500 333 500 c 0,29,30
 299 500 299 500 274.5 475.5 c 128,-1,31
 250 451 250 451 250 417 c 2,32,-1
 250 333 l 1,24,-1
294 633 m 1,33,-1
 294 736 l 1,34,-1
 393 736 l 1,35,-1
 393 633 l 1,36,-1
 294 633 l 1,33,-1
EndSplineSet
Validated: 1
EndChar

StartChar: Eogonek
Encoding: 280 280 219
Width: 583
GlyphClass: 3
Flags: W
LayerCount: 2
Fore
SplineSet
83 0 m 1,0,-1
 83 750 l 1,1,-1
 500 750 l 1,2,-1
 500 667 l 1,3,-1
 250 667 l 1,4,-1
 250 417 l 1,5,-1
 417 417 l 1,6,-1
 417 333 l 1,7,-1
 250 333 l 1,8,-1
 250 83 l 1,9,-1
 500 83 l 1,10,-1
 500 0 l 1,11,-1
 83 0 l 1,0,-1
372 -83 m 1,12,-1
 330 -83 l 2,13,14
 310 -83 310 -83 299.5 -93.5 c 128,-1,15
 289 -104 289 -104 289 -125 c 256,16,17
 289 -146 289 -146 299 -156.5 c 128,-1,18
 309 -167 309 -167 329 -167 c 0,19,20
 335 -167 335 -167 346 -164 c 1,21,-1
 378 -241 l 1,22,23
 344 -250 344 -250 325 -250 c 0,24,25
 283 -250 283 -250 244 -214.5 c 128,-1,26
 205 -179 205 -179 205 -125 c 0,27,28
 205 -74 205 -74 242 -37 c 128,-1,29
 279 0 279 0 330 0 c 2,30,-1
 372 0 l 1,31,-1
 372 -83 l 1,12,-1
EndSplineSet
Validated: 5
EndChar

StartChar: eogonek
Encoding: 281 281 220
Width: 667
GlyphClass: 3
Flags: W
LayerCount: 2
Fore
SplineSet
583 250 m 1,0,-1
 250 250 l 1,1,-1
 250 167 l 2,2,3
 250 133 250 133 274.5 108 c 128,-1,4
 299 83 299 83 333 83 c 2,5,-1
 417 83 l 2,6,7
 500 83 500 83 500 167 c 1,8,-1
 583 167 l 1,9,10
 564 0 564 0 417 0 c 2,11,-1
 250 0 l 2,12,13
 182 0 182 0 132.5 49 c 128,-1,14
 83 98 83 98 83 167 c 2,15,-1
 83 417 l 2,16,17
 83 485 83 485 132.5 534 c 128,-1,18
 182 583 182 583 250 583 c 2,19,-1
 417 583 l 2,20,21
 485 583 485 583 534 534 c 128,-1,22
 583 485 583 485 583 417 c 2,23,-1
 583 250 l 1,0,-1
250 333 m 1,24,-1
 417 333 l 1,25,-1
 417 417 l 2,26,27
 417 451 417 451 392.5 475.5 c 128,-1,28
 368 500 368 500 333 500 c 0,29,30
 299 500 299 500 274.5 475.5 c 128,-1,31
 250 451 250 451 250 417 c 2,32,-1
 250 333 l 1,24,-1
402 -80 m 1,33,-1
 360 -80 l 2,34,35
 339 -80 339 -80 328.5 -90 c 128,-1,36
 318 -100 318 -100 318 -121 c 256,37,38
 318 -142 318 -142 328 -152.5 c 128,-1,39
 338 -163 338 -163 358 -163 c 0,40,41
 365 -163 365 -163 376 -160 c 1,42,-1
 408 -237 l 1,43,44
 374 -246 374 -246 355 -246 c 0,45,46
 313 -246 313 -246 274 -210.5 c 128,-1,47
 235 -175 235 -175 235 -121 c 0,48,49
 235 -70 235 -70 272 -33 c 128,-1,50
 309 4 309 4 360 4 c 2,51,-1
 402 4 l 1,52,-1
 402 -80 l 1,33,-1
EndSplineSet
Validated: 5
EndChar

StartChar: Ecaron
Encoding: 282 282 221
Width: 583
GlyphClass: 3
Flags: W
LayerCount: 2
Fore
SplineSet
83 0 m 1,0,-1
 83 750 l 1,1,-1
 500 750 l 1,2,-1
 500 667 l 1,3,-1
 250 667 l 1,4,-1
 250 417 l 1,5,-1
 417 417 l 1,6,-1
 417 333 l 1,7,-1
 250 333 l 1,8,-1
 250 83 l 1,9,-1
 500 83 l 1,10,-1
 500 0 l 1,11,-1
 83 0 l 1,0,-1
458 966 m 1,12,-1
 333 800 l 1,13,-1
 250 800 l 1,14,-1
 125 967 l 1,15,-1
 208 967 l 1,16,-1
 292 883 l 1,17,-1
 375 966 l 1,18,-1
 458 966 l 1,12,-1
EndSplineSet
Validated: 1
EndChar

StartChar: ecaron
Encoding: 283 283 222
Width: 667
GlyphClass: 3
Flags: W
LayerCount: 2
Fore
SplineSet
583 250 m 1,0,-1
 250 250 l 1,1,-1
 250 167 l 2,2,3
 250 133 250 133 274.5 108 c 128,-1,4
 299 83 299 83 333 83 c 2,5,-1
 417 83 l 2,6,7
 500 83 500 83 500 167 c 1,8,-1
 583 167 l 1,9,10
 564 0 564 0 417 0 c 2,11,-1
 250 0 l 2,12,13
 182 0 182 0 132.5 49 c 128,-1,14
 83 98 83 98 83 167 c 2,15,-1
 83 417 l 2,16,17
 83 485 83 485 132.5 534 c 128,-1,18
 182 583 182 583 250 583 c 2,19,-1
 417 583 l 2,20,21
 485 583 485 583 534 534 c 128,-1,22
 583 485 583 485 583 417 c 2,23,-1
 583 250 l 1,0,-1
250 333 m 1,24,-1
 417 333 l 1,25,-1
 417 417 l 2,26,27
 417 451 417 451 392.5 475.5 c 128,-1,28
 368 500 368 500 333 500 c 0,29,30
 299 500 299 500 274.5 475.5 c 128,-1,31
 250 451 250 451 250 417 c 2,32,-1
 250 333 l 1,24,-1
500 800 m 1,33,-1
 375 633 l 1,34,-1
 292 633 l 1,35,-1
 167 800 l 1,36,-1
 250 800 l 1,37,-1
 333 717 l 1,38,-1
 417 800 l 1,39,-1
 500 800 l 1,33,-1
EndSplineSet
Validated: 1
EndChar

StartChar: Gcircumflex
Encoding: 284 284 223
Width: 667
GlyphClass: 3
Flags: W
LayerCount: 2
Fore
SplineSet
333 417 m 1,0,-1
 583 417 l 1,1,-1
 583 167 l 2,2,3
 583 83 583 83 530 41.5 c 128,-1,4
 477 0 477 0 417 0 c 2,5,-1
 250 0 l 2,6,7
 182 0 182 0 132.5 49 c 128,-1,8
 83 98 83 98 83 167 c 2,9,-1
 83 583 l 2,10,11
 83 651 83 651 131.5 700.5 c 128,-1,12
 180 750 180 750 250 750 c 2,13,-1
 417 750 l 2,14,15
 574 750 574 750 583 583 c 1,16,-1
 500 583 l 1,17,18
 490 667 490 667 417 667 c 2,19,-1
 333 667 l 2,20,21
 299 667 299 667 274.5 642.5 c 128,-1,22
 250 618 250 618 250 583 c 2,23,-1
 250 167 l 2,24,25
 250 132 250 132 274.5 107.5 c 128,-1,26
 299 83 299 83 333 83 c 0,27,28
 413 87 413 87 417 167 c 1,29,-1
 417 333 l 1,30,-1
 333 333 l 1,31,-1
 333 417 l 1,0,-1
167 800 m 1,32,-1
 292 967 l 1,33,-1
 375 967 l 1,34,-1
 500 800 l 1,35,-1
 417 800 l 1,36,-1
 333 883 l 1,37,-1
 250 800 l 1,38,-1
 167 800 l 1,32,-1
EndSplineSet
Validated: 1
EndChar

StartChar: gcircumflex
Encoding: 285 285 224
Width: 667
GlyphClass: 3
Flags: W
LayerCount: 2
Fore
SplineSet
583 583 m 1,0,-1
 583 -83 l 2,1,2
 583 -151 583 -151 534 -200.5 c 128,-1,3
 485 -250 485 -250 417 -250 c 2,4,-1
 250 -250 l 2,5,6
 103 -250 103 -250 83 -83 c 1,7,-1
 167 -83 l 1,8,9
 173 -167 173 -167 250 -167 c 2,10,-1
 333 -167 l 2,11,12
 368 -167 368 -167 392.5 -142.5 c 128,-1,13
 417 -118 417 -118 417 -83 c 2,14,-1
 417 83 l 1,15,16
 407 0 407 0 333 0 c 2,17,-1
 250 0 l 2,18,19
 182 0 182 0 132.5 49 c 128,-1,20
 83 98 83 98 83 167 c 2,21,-1
 83 417 l 2,22,23
 83 485 83 485 132.5 534 c 128,-1,24
 182 583 182 583 250 583 c 2,25,-1
 583 583 l 1,0,-1
417 500 m 1,26,-1
 333 500 l 2,27,28
 299 500 299 500 274.5 475.5 c 128,-1,29
 250 451 250 451 250 417 c 2,30,-1
 250 167 l 2,31,32
 250 133 250 133 274.5 108 c 128,-1,33
 299 83 299 83 333 83 c 0,34,35
 368 83 368 83 392.5 108 c 128,-1,36
 417 133 417 133 417 167 c 2,37,-1
 417 500 l 1,26,-1
167 633 m 1,38,-1
 292 800 l 1,39,-1
 375 800 l 1,40,-1
 500 633 l 1,41,-1
 417 633 l 1,42,-1
 333 717 l 1,43,-1
 250 633 l 1,44,-1
 167 633 l 1,38,-1
EndSplineSet
Validated: 1
EndChar

StartChar: Gbreve
Encoding: 286 286 225
Width: 667
GlyphClass: 3
Flags: W
LayerCount: 2
Fore
SplineSet
333 417 m 1,0,-1
 583 417 l 1,1,-1
 583 167 l 2,2,3
 583 83 583 83 530 41.5 c 128,-1,4
 477 0 477 0 417 0 c 2,5,-1
 250 0 l 2,6,7
 182 0 182 0 132.5 49 c 128,-1,8
 83 98 83 98 83 167 c 2,9,-1
 83 583 l 2,10,11
 83 651 83 651 131.5 700.5 c 128,-1,12
 180 750 180 750 250 750 c 2,13,-1
 417 750 l 2,14,15
 574 750 574 750 583 583 c 1,16,-1
 500 583 l 1,17,18
 490 667 490 667 417 667 c 2,19,-1
 333 667 l 2,20,21
 299 667 299 667 274.5 642.5 c 128,-1,22
 250 618 250 618 250 583 c 2,23,-1
 250 167 l 2,24,25
 250 132 250 132 274.5 107.5 c 128,-1,26
 299 83 299 83 333 83 c 0,27,28
 413 87 413 87 417 167 c 1,29,-1
 417 333 l 1,30,-1
 333 333 l 1,31,-1
 333 417 l 1,0,-1
417 1000 m 1,32,-1
 500 1000 l 1,33,34
 481 833 481 833 333 833 c 0,35,36
 187 833 187 833 167 1000 c 1,37,-1
 250 1000 l 1,38,39
 260 917 260 917 333 917 c 0,40,41
 407 917 407 917 417 1000 c 1,32,-1
EndSplineSet
Validated: 1
EndChar

StartChar: gbreve
Encoding: 287 287 226
Width: 667
GlyphClass: 3
Flags: W
LayerCount: 2
Fore
SplineSet
583 583 m 1,0,-1
 583 -83 l 2,1,2
 583 -151 583 -151 534 -200.5 c 128,-1,3
 485 -250 485 -250 417 -250 c 2,4,-1
 250 -250 l 2,5,6
 103 -250 103 -250 83 -83 c 1,7,-1
 167 -83 l 1,8,9
 173 -167 173 -167 250 -167 c 2,10,-1
 333 -167 l 2,11,12
 368 -167 368 -167 392.5 -142.5 c 128,-1,13
 417 -118 417 -118 417 -83 c 2,14,-1
 417 83 l 1,15,16
 407 0 407 0 333 0 c 2,17,-1
 250 0 l 2,18,19
 182 0 182 0 132.5 49 c 128,-1,20
 83 98 83 98 83 167 c 2,21,-1
 83 417 l 2,22,23
 83 485 83 485 132.5 534 c 128,-1,24
 182 583 182 583 250 583 c 2,25,-1
 583 583 l 1,0,-1
417 500 m 1,26,-1
 333 500 l 2,27,28
 299 500 299 500 274.5 475.5 c 128,-1,29
 250 451 250 451 250 417 c 2,30,-1
 250 167 l 2,31,32
 250 133 250 133 274.5 108 c 128,-1,33
 299 83 299 83 333 83 c 0,34,35
 368 83 368 83 392.5 108 c 128,-1,36
 417 133 417 133 417 167 c 2,37,-1
 417 500 l 1,26,-1
417 833 m 1,38,-1
 500 833 l 1,39,40
 481 667 481 667 333 667 c 0,41,42
 187 667 187 667 167 833 c 1,43,-1
 250 833 l 1,44,45
 260 750 260 750 333 750 c 0,46,47
 407 750 407 750 417 833 c 1,38,-1
EndSplineSet
Validated: 1
EndChar

StartChar: Gdotaccent
Encoding: 288 288 227
Width: 667
GlyphClass: 3
Flags: W
LayerCount: 2
Fore
SplineSet
333 417 m 1,0,-1
 583 417 l 1,1,-1
 583 167 l 2,2,3
 583 83 583 83 530 41.5 c 128,-1,4
 477 0 477 0 417 0 c 2,5,-1
 250 0 l 2,6,7
 182 0 182 0 132.5 49 c 128,-1,8
 83 98 83 98 83 167 c 2,9,-1
 83 583 l 2,10,11
 83 651 83 651 131.5 700.5 c 128,-1,12
 180 750 180 750 250 750 c 2,13,-1
 417 750 l 2,14,15
 574 750 574 750 583 583 c 1,16,-1
 500 583 l 1,17,18
 490 667 490 667 417 667 c 2,19,-1
 333 667 l 2,20,21
 299 667 299 667 274.5 642.5 c 128,-1,22
 250 618 250 618 250 583 c 2,23,-1
 250 167 l 2,24,25
 250 132 250 132 274.5 107.5 c 128,-1,26
 299 83 299 83 333 83 c 0,27,28
 413 87 413 87 417 167 c 1,29,-1
 417 333 l 1,30,-1
 333 333 l 1,31,-1
 333 417 l 1,0,-1
294 800 m 1,32,-1
 294 903 l 1,33,-1
 393 903 l 1,34,-1
 393 800 l 1,35,-1
 294 800 l 1,32,-1
EndSplineSet
Validated: 1
EndChar

StartChar: gdotaccent
Encoding: 289 289 228
Width: 667
GlyphClass: 3
Flags: W
LayerCount: 2
Fore
SplineSet
583 583 m 1,0,-1
 583 -83 l 2,1,2
 583 -151 583 -151 534 -200.5 c 128,-1,3
 485 -250 485 -250 417 -250 c 2,4,-1
 250 -250 l 2,5,6
 103 -250 103 -250 83 -83 c 1,7,-1
 167 -83 l 1,8,9
 173 -167 173 -167 250 -167 c 2,10,-1
 333 -167 l 2,11,12
 368 -167 368 -167 392.5 -142.5 c 128,-1,13
 417 -118 417 -118 417 -83 c 2,14,-1
 417 83 l 1,15,16
 407 0 407 0 333 0 c 2,17,-1
 250 0 l 2,18,19
 182 0 182 0 132.5 49 c 128,-1,20
 83 98 83 98 83 167 c 2,21,-1
 83 417 l 2,22,23
 83 485 83 485 132.5 534 c 128,-1,24
 182 583 182 583 250 583 c 2,25,-1
 583 583 l 1,0,-1
417 500 m 1,26,-1
 333 500 l 2,27,28
 299 500 299 500 274.5 475.5 c 128,-1,29
 250 451 250 451 250 417 c 2,30,-1
 250 167 l 2,31,32
 250 133 250 133 274.5 108 c 128,-1,33
 299 83 299 83 333 83 c 0,34,35
 368 83 368 83 392.5 108 c 128,-1,36
 417 133 417 133 417 167 c 2,37,-1
 417 500 l 1,26,-1
294 633 m 1,38,-1
 294 736 l 1,39,-1
 393 736 l 1,40,-1
 393 633 l 1,41,-1
 294 633 l 1,38,-1
EndSplineSet
Validated: 1
EndChar

StartChar: Gcommaaccent
Encoding: 290 290 229
Width: 667
GlyphClass: 3
Flags: W
LayerCount: 2
Fore
SplineSet
333 417 m 1,0,-1
 583 417 l 1,1,-1
 583 167 l 2,2,3
 583 83 583 83 530 41.5 c 128,-1,4
 477 0 477 0 417 0 c 2,5,-1
 250 0 l 2,6,7
 182 0 182 0 132.5 49 c 128,-1,8
 83 98 83 98 83 167 c 2,9,-1
 83 583 l 2,10,11
 83 651 83 651 131.5 700.5 c 128,-1,12
 180 750 180 750 250 750 c 2,13,-1
 417 750 l 2,14,15
 574 750 574 750 583 583 c 1,16,-1
 500 583 l 1,17,18
 490 667 490 667 417 667 c 2,19,-1
 333 667 l 2,20,21
 299 667 299 667 274.5 642.5 c 128,-1,22
 250 618 250 618 250 583 c 2,23,-1
 250 167 l 2,24,25
 250 132 250 132 274.5 107.5 c 128,-1,26
 299 83 299 83 333 83 c 0,27,28
 413 87 413 87 417 167 c 1,29,-1
 417 333 l 1,30,-1
 333 333 l 1,31,-1
 333 417 l 1,0,-1
413 -116 m 1,32,-1
 512 -116 l 1,33,-1
 512 -216 l 2,34,35
 512 -305 512 -305 413 -316 c 1,36,-1
 413 -267 l 1,37,38
 461 -265 461 -265 462 -216 c 1,39,-1
 413 -216 l 1,40,-1
 413 -116 l 1,32,-1
EndSplineSet
Validated: 1
EndChar

StartChar: gcommaaccent
Encoding: 291 291 230
Width: 667
GlyphClass: 3
Flags: W
LayerCount: 2
Fore
SplineSet
583 583 m 1,0,-1
 583 -83 l 2,1,2
 583 -151 583 -151 534 -200.5 c 128,-1,3
 485 -250 485 -250 417 -250 c 2,4,-1
 250 -250 l 2,5,6
 103 -250 103 -250 83 -83 c 1,7,-1
 167 -83 l 1,8,9
 173 -167 173 -167 250 -167 c 2,10,-1
 333 -167 l 2,11,12
 368 -167 368 -167 392.5 -142.5 c 128,-1,13
 417 -118 417 -118 417 -83 c 2,14,-1
 417 83 l 1,15,16
 407 0 407 0 333 0 c 2,17,-1
 250 0 l 2,18,19
 182 0 182 0 132.5 49 c 128,-1,20
 83 98 83 98 83 167 c 2,21,-1
 83 417 l 2,22,23
 83 485 83 485 132.5 534 c 128,-1,24
 182 583 182 583 250 583 c 2,25,-1
 583 583 l 1,0,-1
417 500 m 1,26,-1
 333 500 l 2,27,28
 299 500 299 500 274.5 475.5 c 128,-1,29
 250 451 250 451 250 417 c 2,30,-1
 250 167 l 2,31,32
 250 133 250 133 274.5 108 c 128,-1,33
 299 83 299 83 333 83 c 0,34,35
 368 83 368 83 392.5 108 c 128,-1,36
 417 133 417 133 417 167 c 2,37,-1
 417 500 l 1,26,-1
417 670 m 1,38,-1
 250 670 l 1,39,-1
 250 837 l 2,40,41
 250 985 250 985 417 1004 c 1,42,-1
 417 920 l 1,43,44
 336 917 336 917 333 837 c 1,45,-1
 417 837 l 1,46,-1
 417 670 l 1,38,-1
EndSplineSet
Validated: 1
EndChar

StartChar: Hcircumflex
Encoding: 292 292 231
Width: 667
GlyphClass: 3
Flags: W
LayerCount: 2
Fore
SplineSet
83 0 m 1,0,-1
 83 750 l 1,1,-1
 250 750 l 1,2,-1
 250 417 l 1,3,-1
 417 417 l 1,4,-1
 417 750 l 1,5,-1
 583 750 l 1,6,-1
 583 0 l 1,7,-1
 417 0 l 1,8,-1
 417 333 l 1,9,-1
 250 333 l 1,10,-1
 250 0 l 1,11,-1
 83 0 l 1,0,-1
167 800 m 1,12,-1
 292 967 l 1,13,-1
 375 967 l 1,14,-1
 500 800 l 1,15,-1
 417 800 l 1,16,-1
 333 883 l 1,17,-1
 250 800 l 1,18,-1
 167 800 l 1,12,-1
EndSplineSet
Validated: 1
EndChar

StartChar: hcircumflex
Encoding: 293 293 232
Width: 667
GlyphClass: 3
Flags: W
LayerCount: 2
Fore
SplineSet
83 0 m 1,0,-1
 83 750 l 1,1,-1
 250 750 l 1,2,-1
 250 500 l 1,3,4
 255 542 255 542 276 562.5 c 128,-1,5
 297 583 297 583 333 583 c 2,6,-1
 417 583 l 2,7,8
 485 583 485 583 534 534 c 128,-1,9
 583 485 583 485 583 417 c 2,10,-1
 583 0 l 1,11,-1
 417 0 l 1,12,-1
 417 417 l 2,13,14
 417 451 417 451 392.5 475.5 c 128,-1,15
 368 500 368 500 333 500 c 0,16,17
 299 500 299 500 274.5 475.5 c 128,-1,18
 250 451 250 451 250 417 c 2,19,-1
 250 0 l 1,20,-1
 83 0 l 1,0,-1
125 800 m 1,21,-1
 250 967 l 1,22,-1
 333 967 l 1,23,-1
 458 800 l 1,24,-1
 375 800 l 1,25,-1
 292 883 l 1,26,-1
 208 800 l 1,27,-1
 125 800 l 1,21,-1
EndSplineSet
Validated: 1
EndChar

StartChar: Hbar
Encoding: 294 294 233
Width: 667
GlyphClass: 2
Flags: W
LayerCount: 2
Fore
SplineSet
83 0 m 1,0,-1
 83 750 l 1,1,-1
 250 750 l 1,2,-1
 250 417 l 1,3,-1
 417 417 l 1,4,-1
 417 750 l 1,5,-1
 583 750 l 1,6,-1
 583 0 l 1,7,-1
 417 0 l 1,8,-1
 417 333 l 1,9,-1
 250 333 l 1,10,-1
 250 0 l 1,11,-1
 83 0 l 1,0,-1
167 500 m 1,12,-1
 167 583 l 1,13,-1
 500 583 l 1,14,-1
 500 500 l 1,15,-1
 167 500 l 1,12,-1
EndSplineSet
Validated: 5
EndChar

StartChar: hbar
Encoding: 295 295 234
Width: 667
GlyphClass: 2
Flags: W
LayerCount: 2
Fore
SplineSet
83 0 m 1,0,-1
 83 750 l 1,1,-1
 250 750 l 1,2,-1
 250 500 l 1,3,4
 255 542 255 542 276 562.5 c 128,-1,5
 297 583 297 583 333 583 c 2,6,-1
 417 583 l 2,7,8
 485 583 485 583 534 534 c 128,-1,9
 583 485 583 485 583 417 c 2,10,-1
 583 0 l 1,11,-1
 417 0 l 1,12,-1
 417 417 l 2,13,14
 417 451 417 451 392.5 475.5 c 128,-1,15
 368 500 368 500 333 500 c 0,16,17
 299 500 299 500 274.5 475.5 c 128,-1,18
 250 451 250 451 250 417 c 2,19,-1
 250 0 l 1,20,-1
 83 0 l 1,0,-1
40 607 m 1,21,-1
 40 691 l 1,22,-1
 373 691 l 1,23,-1
 373 607 l 1,24,-1
 40 607 l 1,21,-1
EndSplineSet
Validated: 5
EndChar

StartChar: Itilde
Encoding: 296 296 235
Width: 500
GlyphClass: 3
Flags: W
LayerCount: 2
Fore
SplineSet
167 0 m 1,0,-1
 167 750 l 1,1,-1
 333 750 l 1,2,-1
 333 0 l 1,3,-1
 167 0 l 1,0,-1
83 800 m 1,4,-1
 0 800 l 1,5,6
 19 967 19 967 166 967 c 0,7,8
 214 967 214 967 270 918 c 2,9,-1
 281 908 l 2,10,11
 309 883 309 883 333 883 c 0,12,13
 406 883 406 883 416 967 c 1,14,-1
 500 967 l 1,15,16
 480 800 480 800 333 800 c 0,17,18
 285 800 285 800 229 849 c 2,19,-1
 218 859 l 2,20,21
 190 883 190 883 166 883 c 0,22,23
 93 883 93 883 83 800 c 1,4,-1
EndSplineSet
Validated: 1
EndChar

StartChar: itilde
Encoding: 297 297 236
Width: 333
GlyphClass: 3
Flags: W
LayerCount: 2
Fore
SplineSet
83 0 m 1,0,-1
 83 583 l 1,1,-1
 250 583 l 1,2,-1
 250 0 l 1,3,-1
 83 0 l 1,0,-1
0 633 m 1,4,-1
 -83 633 l 1,5,6
 -64 800 -64 800 83 800 c 0,7,8
 131 800 131 800 187 751 c 2,9,-1
 198 741 l 2,10,11
 226 717 226 717 250 717 c 0,12,13
 323 717 323 717 333 800 c 1,14,-1
 417 800 l 1,15,16
 397 633 397 633 250 633 c 0,17,18
 202 633 202 633 146 682 c 2,19,-1
 135 692 l 2,20,21
 107 717 107 717 83 717 c 0,22,23
 10 717 10 717 0 633 c 1,4,-1
EndSplineSet
Validated: 1
EndChar

StartChar: Imacron
Encoding: 298 298 237
Width: 500
GlyphClass: 3
Flags: W
LayerCount: 2
Fore
SplineSet
167 0 m 1,0,-1
 167 750 l 1,1,-1
 333 750 l 1,2,-1
 333 0 l 1,3,-1
 167 0 l 1,0,-1
83 800 m 1,4,-1
 83 883 l 1,5,-1
 416 883 l 1,6,-1
 416 800 l 1,7,-1
 83 800 l 1,4,-1
EndSplineSet
Validated: 1
EndChar

StartChar: imacron
Encoding: 299 299 238
Width: 333
GlyphClass: 3
Flags: W
LayerCount: 2
Fore
SplineSet
83 0 m 1,0,-1
 83 583 l 1,1,-1
 250 583 l 1,2,-1
 250 0 l 1,3,-1
 83 0 l 1,0,-1
0 633 m 1,4,-1
 0 717 l 1,5,-1
 333 717 l 1,6,-1
 333 633 l 1,7,-1
 0 633 l 1,4,-1
EndSplineSet
Validated: 1
EndChar

StartChar: Iogonek
Encoding: 302 302 241
Width: 500
GlyphClass: 3
Flags: W
LayerCount: 2
Fore
SplineSet
167 0 m 1,0,-1
 167 750 l 1,1,-1
 333 750 l 1,2,-1
 333 0 l 1,3,-1
 167 0 l 1,0,-1
330 -83 m 1,4,-1
 288 -83 l 2,5,6
 268 -83 268 -83 257.5 -93.5 c 128,-1,7
 247 -104 247 -104 247 -125 c 256,8,9
 247 -146 247 -146 257 -156.5 c 128,-1,10
 267 -167 267 -167 287 -167 c 0,11,12
 293 -167 293 -167 304 -164 c 1,13,-1
 336 -241 l 1,14,15
 302 -250 302 -250 283 -250 c 0,16,17
 241 -250 241 -250 202 -214.5 c 128,-1,18
 163 -179 163 -179 163 -125 c 0,19,20
 163 -74 163 -74 200 -37 c 128,-1,21
 237 0 237 0 288 0 c 2,22,-1
 330 0 l 1,23,-1
 330 -83 l 1,4,-1
EndSplineSet
Validated: 5
EndChar

StartChar: iogonek
Encoding: 303 303 242
Width: 333
GlyphClass: 3
Flags: W
LayerCount: 2
Fore
SplineSet
83 667 m 1,0,-1
 83 750 l 1,1,-1
 250 750 l 1,2,-1
 250 667 l 1,3,-1
 83 667 l 1,0,-1
83 0 m 1,4,-1
 83 583 l 1,5,-1
 250 583 l 1,6,-1
 250 0 l 1,7,-1
 83 0 l 1,4,-1
247 -83 m 1,8,-1
 205 -83 l 2,9,10
 185 -83 185 -83 174.5 -93.5 c 128,-1,11
 164 -104 164 -104 164 -125 c 256,12,13
 164 -146 164 -146 174 -156.5 c 128,-1,14
 184 -167 184 -167 204 -167 c 0,15,16
 210 -167 210 -167 221 -164 c 1,17,-1
 253 -241 l 1,18,19
 219 -250 219 -250 200 -250 c 0,20,21
 158 -250 158 -250 119 -214.5 c 128,-1,22
 80 -179 80 -179 80 -125 c 0,23,24
 80 -74 80 -74 117 -37 c 128,-1,25
 154 0 154 0 205 0 c 2,26,-1
 247 0 l 1,27,-1
 247 -83 l 1,8,-1
EndSplineSet
Validated: 5
EndChar

StartChar: Idotaccent
Encoding: 304 304 243
Width: 333
GlyphClass: 3
Flags: W
LayerCount: 2
Fore
SplineSet
83 833 m 1,0,-1
 83 917 l 1,1,-1
 250 917 l 1,2,-1
 250 833 l 1,3,-1
 83 833 l 1,0,-1
83 0 m 1,4,-1
 83 750 l 1,5,-1
 250 750 l 1,6,-1
 250 0 l 1,7,-1
 83 0 l 1,4,-1
EndSplineSet
Validated: 1
EndChar

StartChar: dotlessi
Encoding: 305 305 244
Width: 333
GlyphClass: 2
Flags: W
LayerCount: 2
Fore
SplineSet
83 0 m 1,0,-1
 83 583 l 1,1,-1
 250 583 l 1,2,-1
 250 0 l 1,3,-1
 83 0 l 1,0,-1
EndSplineSet
Validated: 1
EndChar

StartChar: IJ
Encoding: 306 306 245
Width: 1083
GlyphClass: 2
Flags: W
LayerCount: 2
Fore
SplineSet
167 0 m 1,0,-1
 167 750 l 1,1,-1
 333 750 l 1,2,-1
 333 0 l 1,3,-1
 167 0 l 1,0,-1
1000 750 m 1,4,-1
 1000 167 l 2,5,6
 1000 83 1000 83 958.5 41.5 c 128,-1,7
 917 0 917 0 833 0 c 2,8,-1
 667 0 l 2,9,10
 583 0 583 0 541.5 41.5 c 128,-1,11
 500 83 500 83 500 167 c 2,12,-1
 500 333 l 1,13,-1
 667 333 l 1,14,-1
 667 167 l 2,15,16
 667 132 667 132 691.5 107.5 c 128,-1,17
 716 83 716 83 750 83 c 256,18,19
 784 83 784 83 808.5 107.5 c 128,-1,20
 833 132 833 132 833 167 c 2,21,-1
 833 750 l 1,22,-1
 1000 750 l 1,4,-1
EndSplineSet
Validated: 1
EndChar

StartChar: ij
Encoding: 307 307 246
Width: 833
GlyphClass: 2
Flags: W
LayerCount: 2
Fore
SplineSet
83 667 m 1,0,-1
 83 750 l 1,1,-1
 250 750 l 1,2,-1
 250 667 l 1,3,-1
 83 667 l 1,0,-1
83 0 m 1,4,-1
 83 583 l 1,5,-1
 250 583 l 1,6,-1
 250 0 l 1,7,-1
 83 0 l 1,4,-1
583 667 m 1,8,-1
 583 750 l 1,9,-1
 750 750 l 1,10,-1
 750 667 l 1,11,-1
 583 667 l 1,8,-1
583 583 m 1,12,-1
 750 583 l 1,13,-1
 750 0 l 2,14,15
 750 -68 750 -68 701 -117.5 c 128,-1,16
 652 -167 652 -167 583 -167 c 2,17,-1
 500 -167 l 2,18,19
 353 -167 353 -167 333 0 c 1,20,-1
 417 0 l 1,21,22
 424 -83 424 -83 500 -83 c 0,23,24
 534 -83 534 -83 558.5 -58.5 c 128,-1,25
 583 -34 583 -34 583 0 c 2,26,-1
 583 583 l 1,12,-1
EndSplineSet
Validated: 1
EndChar

StartChar: Jcircumflex
Encoding: 308 308 247
Width: 583
GlyphClass: 3
Flags: W
LayerCount: 2
Fore
SplineSet
500 750 m 1,0,-1
 500 167 l 2,1,2
 500 83 500 83 458.5 41.5 c 128,-1,3
 417 0 417 0 333 0 c 2,4,-1
 167 0 l 2,5,6
 83 0 83 0 41.5 41.5 c 128,-1,7
 0 83 0 83 0 167 c 2,8,-1
 0 333 l 1,9,-1
 167 333 l 1,10,-1
 167 167 l 2,11,12
 167 132 167 132 191.5 107.5 c 128,-1,13
 216 83 216 83 250 83 c 256,14,15
 284 83 284 83 308.5 107.5 c 128,-1,16
 333 132 333 132 333 167 c 2,17,-1
 333 750 l 1,18,-1
 500 750 l 1,0,-1
231 800 m 1,19,-1
 356 967 l 1,20,-1
 439 967 l 1,21,-1
 564 800 l 1,22,-1
 481 800 l 1,23,-1
 398 883 l 1,24,-1
 314 800 l 1,25,-1
 231 800 l 1,19,-1
EndSplineSet
Validated: 1
EndChar

StartChar: jcircumflex
Encoding: 309 309 248
Width: 500
GlyphClass: 3
Flags: W
LayerCount: 2
Fore
SplineSet
250 667 m 1,0,-1
 250 750 l 1,1,-1
 417 750 l 1,2,-1
 417 667 l 1,3,-1
 250 667 l 1,0,-1
250 583 m 1,4,-1
 417 583 l 1,5,-1
 417 0 l 2,6,7
 417 -68 417 -68 367.5 -117.5 c 128,-1,8
 318 -167 318 -167 250 -167 c 2,9,-1
 167 -167 l 2,10,11
 19 -167 19 -167 0 0 c 1,12,-1
 83 0 l 1,13,14
 91 -83 91 -83 167 -83 c 0,15,16
 201 -83 201 -83 225.5 -58.5 c 128,-1,17
 250 -34 250 -34 250 0 c 2,18,-1
 250 583 l 1,4,-1
163 618 m 1,19,-1
 288 785 l 1,20,-1
 371 785 l 1,21,-1
 496 618 l 1,22,-1
 413 618 l 1,23,-1
 330 701 l 1,24,-1
 246 618 l 1,25,-1
 163 618 l 1,19,-1
EndSplineSet
Validated: 5
EndChar

StartChar: Kcommaaccent
Encoding: 310 310 249
Width: 750
GlyphClass: 3
Flags: W
LayerCount: 2
Fore
SplineSet
83 0 m 1,0,-1
 83 750 l 1,1,-1
 250 750 l 1,2,-1
 250 444 l 1,3,-1
 520 750 l 1,4,-1
 667 750 l 1,5,-1
 333 375 l 1,6,-1
 667 0 l 1,7,-1
 500 0 l 1,8,-1
 250 292 l 1,9,-1
 250 0 l 1,10,-1
 83 0 l 1,0,-1
405 -116 m 1,11,-1
 505 -116 l 1,12,-1
 505 -216 l 2,13,14
 505 -305 505 -305 405 -316 c 1,15,-1
 405 -267 l 1,16,17
 454 -265 454 -265 455 -216 c 1,18,-1
 405 -216 l 1,19,-1
 405 -116 l 1,11,-1
EndSplineSet
Validated: 1
EndChar

StartChar: kcommaaccent
Encoding: 311 311 250
Width: 667
GlyphClass: 3
Flags: W
LayerCount: 2
Fore
SplineSet
83 0 m 1,0,-1
 83 750 l 1,1,-1
 250 750 l 1,2,-1
 250 375 l 1,3,-1
 500 583 l 1,4,-1
 667 583 l 1,5,-1
 318 292 l 1,6,-1
 667 0 l 1,7,-1
 500 0 l 1,8,-1
 250 208 l 1,9,-1
 250 0 l 1,10,-1
 83 0 l 1,0,-1
405 -116 m 1,11,-1
 505 -116 l 1,12,-1
 505 -216 l 2,13,14
 505 -305 505 -305 405 -316 c 1,15,-1
 405 -267 l 1,16,17
 454 -265 454 -265 455 -216 c 1,18,-1
 405 -216 l 1,19,-1
 405 -116 l 1,11,-1
EndSplineSet
Validated: 1
EndChar

StartChar: kgreenlandic
Encoding: 312 312 251
Width: 666
GlyphClass: 2
Flags: W
LayerCount: 2
Fore
SplineSet
84 0 m 1,0,-1
 84 584 l 1,1,-1
 250 584 l 1,2,-1
 250 375 l 1,3,-1
 500 584 l 1,4,-1
 667 584 l 1,5,-1
 318 291 l 1,6,-1
 667 0 l 1,7,-1
 500 0 l 1,8,-1
 250 209 l 1,9,-1
 250 0 l 1,10,-1
 84 0 l 1,0,-1
EndSplineSet
Validated: 1
EndChar

StartChar: Lacute
Encoding: 313 313 252
Width: 584
GlyphClass: 3
Flags: W
LayerCount: 2
Fore
SplineSet
84 0 m 1,0,-1
 84 750 l 1,1,-1
 250 750 l 1,2,-1
 250 84 l 1,3,-1
 500 84 l 1,4,-1
 500 0 l 1,5,-1
 84 0 l 1,0,-1
84 800 m 1,6,-1
 167 967 l 1,7,-1
 250 967 l 1,8,-1
 167 800 l 1,9,-1
 84 800 l 1,6,-1
EndSplineSet
Validated: 1
EndChar

StartChar: lacute
Encoding: 314 314 253
Width: 334
GlyphClass: 3
Flags: W
LayerCount: 2
Fore
SplineSet
84 0 m 1,0,-1
 84 750 l 1,1,-1
 250 750 l 1,2,-1
 250 0 l 1,3,-1
 84 0 l 1,0,-1
83 800 m 1,4,-1
 166 967 l 1,5,-1
 250 967 l 1,6,-1
 166 800 l 1,7,-1
 83 800 l 1,4,-1
EndSplineSet
Validated: 1
EndChar

StartChar: Lcommaaccent
Encoding: 315 315 254
Width: 500
GlyphClass: 3
Flags: W
LayerCount: 2
Fore
SplineSet
84 0 m 1,0,-1
 84 750 l 1,1,-1
 250 750 l 1,2,-1
 250 84 l 1,3,-1
 500 84 l 1,4,-1
 500 0 l 1,5,-1
 84 0 l 1,0,-1
329 -116 m 1,6,-1
 429 -116 l 1,7,-1
 429 -216 l 2,8,9
 429 -305 429 -305 329 -316 c 1,10,-1
 329 -267 l 1,11,12
 377 -265 377 -265 379 -216 c 1,13,-1
 329 -216 l 1,14,-1
 329 -116 l 1,6,-1
EndSplineSet
Validated: 1
EndChar

StartChar: lcommaaccent
Encoding: 316 316 255
Width: 334
GlyphClass: 3
Flags: W
LayerCount: 2
Fore
SplineSet
84 0 m 1,0,-1
 84 750 l 1,1,-1
 250 750 l 1,2,-1
 250 0 l 1,3,-1
 84 0 l 1,0,-1
197 -116 m 1,4,-1
 296 -116 l 1,5,-1
 296 -216 l 2,6,7
 296 -305 296 -305 197 -316 c 1,8,-1
 197 -267 l 1,9,10
 245 -265 245 -265 246 -216 c 1,11,-1
 197 -216 l 1,12,-1
 197 -116 l 1,4,-1
EndSplineSet
Validated: 1
EndChar

StartChar: Lcaron
Encoding: 317 317 256
Width: 584
GlyphClass: 3
Flags: W
LayerCount: 2
Fore
SplineSet
84 0 m 1,0,-1
 84 750 l 1,1,-1
 250 750 l 1,2,-1
 250 84 l 1,3,-1
 500 84 l 1,4,-1
 500 0 l 1,5,-1
 84 0 l 1,0,-1
334 750 m 1,6,-1
 500 750 l 1,7,-1
 500 584 l 2,8,9
 500 436 500 436 334 417 c 1,10,-1
 334 500 l 1,11,12
 414 503 414 503 417 584 c 1,13,-1
 334 584 l 1,14,-1
 334 750 l 1,6,-1
EndSplineSet
Validated: 1
EndChar

StartChar: lcaron
Encoding: 318 318 257
Width: 334
GlyphClass: 3
Flags: W
LayerCount: 2
Fore
SplineSet
84 0 m 1,0,-1
 84 750 l 1,1,-1
 250 750 l 1,2,-1
 250 0 l 1,3,-1
 84 0 l 1,0,-1
300 750 m 1,4,-1
 466 750 l 1,5,-1
 466 584 l 2,6,7
 466 436 466 436 300 417 c 1,8,-1
 300 500 l 1,9,10
 380 503 380 503 383 584 c 1,11,-1
 300 584 l 1,12,-1
 300 750 l 1,4,-1
EndSplineSet
Validated: 1
EndChar

StartChar: Ldotaccent
Encoding: 319 319 258
Width: 584
GlyphClass: 2
Flags: W
LayerCount: 2
Fore
SplineSet
84 0 m 1,0,-1
 84 750 l 1,1,-1
 250 750 l 1,2,-1
 250 84 l 1,3,-1
 500 84 l 1,4,-1
 500 0 l 1,5,-1
 84 0 l 1,0,-1
397 369 m 1,6,-1
 397 472 l 1,7,-1
 495 472 l 1,8,-1
 495 369 l 1,9,-1
 397 369 l 1,6,-1
EndSplineSet
Validated: 1
EndChar

StartChar: ldotaccent
Encoding: 320 320 259
Width: 334
GlyphClass: 2
Flags: W
LayerCount: 2
Fore
SplineSet
84 0 m 1,0,-1
 84 750 l 1,1,-1
 250 750 l 1,2,-1
 250 0 l 1,3,-1
 84 0 l 1,0,-1
310 324 m 1,4,-1
 310 427 l 1,5,-1
 408 427 l 1,6,-1
 408 324 l 1,7,-1
 310 324 l 1,4,-1
EndSplineSet
Validated: 1
EndChar

StartChar: Lslash
Encoding: 321 321 260
Width: 584
GlyphClass: 2
Flags: W
LayerCount: 2
Fore
SplineSet
84 0 m 1,0,-1
 84 334 l 1,1,-1
 0 291 l 1,2,-1
 0 375 l 1,3,-1
 84 416 l 1,4,-1
 84 750 l 1,5,-1
 250 750 l 1,6,-1
 250 500 l 1,7,-1
 334 541 l 1,8,-1
 334 459 l 1,9,-1
 250 416 l 1,10,-1
 250 84 l 1,11,-1
 500 84 l 1,12,-1
 500 0 l 1,13,-1
 84 0 l 1,0,-1
EndSplineSet
Validated: 1
EndChar

StartChar: lslash
Encoding: 322 322 261
Width: 334
GlyphClass: 2
Flags: W
LayerCount: 2
Fore
SplineSet
84 0 m 1,0,-1
 84 334 l 1,1,-1
 0 291 l 1,2,-1
 0 375 l 1,3,-1
 84 416 l 1,4,-1
 84 750 l 1,5,-1
 250 750 l 1,6,-1
 250 500 l 1,7,-1
 334 541 l 1,8,-1
 334 459 l 1,9,-1
 250 416 l 1,10,-1
 250 0 l 1,11,-1
 84 0 l 1,0,-1
EndSplineSet
Validated: 1
EndChar

StartChar: Nacute
Encoding: 323 323 262
Width: 750
GlyphClass: 3
Flags: W
LayerCount: 2
Fore
SplineSet
84 0 m 1,0,-1
 84 750 l 1,1,-1
 121 750 l 1,2,-1
 584 334 l 1,3,-1
 584 750 l 1,4,-1
 667 750 l 1,5,-1
 667 0 l 1,6,-1
 629 0 l 1,7,-1
 167 416 l 1,8,-1
 167 0 l 1,9,-1
 84 0 l 1,0,-1
291 800 m 1,10,-1
 375 967 l 1,11,-1
 459 967 l 1,12,-1
 375 800 l 1,13,-1
 291 800 l 1,10,-1
EndSplineSet
Validated: 1
EndChar

StartChar: nacute
Encoding: 324 324 263
Width: 666
GlyphClass: 3
Flags: W
LayerCount: 2
Fore
SplineSet
84 0 m 1,0,-1
 84 584 l 1,1,-1
 250 584 l 1,2,-1
 250 500 l 1,3,4
 255 542 255 542 276 563 c 128,-1,5
 297 584 297 584 334 584 c 2,6,-1
 417 584 l 2,7,8
 486 584 486 584 535 534.5 c 128,-1,9
 584 485 584 485 584 416 c 2,10,-1
 584 0 l 1,11,-1
 417 0 l 1,12,-1
 417 416 l 2,13,14
 417 451 417 451 392.5 475.5 c 128,-1,15
 368 500 368 500 334 500 c 0,16,17
 299 500 299 500 274.5 475.5 c 128,-1,18
 250 451 250 451 250 416 c 2,19,-1
 250 0 l 1,20,-1
 84 0 l 1,0,-1
250 633 m 1,21,-1
 334 800 l 1,22,-1
 417 800 l 1,23,-1
 334 633 l 1,24,-1
 250 633 l 1,21,-1
EndSplineSet
Validated: 1
EndChar

StartChar: Ncommaaccent
Encoding: 325 325 264
Width: 750
GlyphClass: 3
Flags: W
LayerCount: 2
Fore
SplineSet
84 0 m 1,0,-1
 84 750 l 1,1,-1
 121 750 l 1,2,-1
 584 334 l 1,3,-1
 584 750 l 1,4,-1
 667 750 l 1,5,-1
 667 0 l 1,6,-1
 629 0 l 1,7,-1
 167 416 l 1,8,-1
 167 0 l 1,9,-1
 84 0 l 1,0,-1
503 -116 m 1,10,-1
 603 -116 l 1,11,-1
 603 -216 l 2,12,13
 603 -305 603 -305 503 -316 c 1,14,-1
 503 -267 l 1,15,16
 551 -265 551 -265 553 -216 c 1,17,-1
 503 -216 l 1,18,-1
 503 -116 l 1,10,-1
EndSplineSet
Validated: 1
EndChar

StartChar: ncommaaccent
Encoding: 326 326 265
Width: 666
GlyphClass: 3
Flags: W
LayerCount: 2
Fore
SplineSet
84 0 m 1,0,-1
 84 584 l 1,1,-1
 250 584 l 1,2,-1
 250 500 l 1,3,4
 255 542 255 542 276 563 c 128,-1,5
 297 584 297 584 334 584 c 2,6,-1
 417 584 l 2,7,8
 486 584 486 584 535 534.5 c 128,-1,9
 584 485 584 485 584 416 c 2,10,-1
 584 0 l 1,11,-1
 417 0 l 1,12,-1
 417 416 l 2,13,14
 417 451 417 451 392.5 475.5 c 128,-1,15
 368 500 368 500 334 500 c 0,16,17
 299 500 299 500 274.5 475.5 c 128,-1,18
 250 451 250 451 250 416 c 2,19,-1
 250 0 l 1,20,-1
 84 0 l 1,0,-1
420 -116 m 1,21,-1
 519 -116 l 1,22,-1
 519 -216 l 2,23,24
 519 -305 519 -305 420 -316 c 1,25,-1
 420 -267 l 1,26,27
 468 -265 468 -265 469 -216 c 1,28,-1
 420 -216 l 1,29,-1
 420 -116 l 1,21,-1
EndSplineSet
Validated: 1
EndChar

StartChar: Ncaron
Encoding: 327 327 266
Width: 750
GlyphClass: 3
Flags: W
LayerCount: 2
Fore
SplineSet
84 0 m 1,0,-1
 84 750 l 1,1,-1
 121 750 l 1,2,-1
 584 334 l 1,3,-1
 584 750 l 1,4,-1
 667 750 l 1,5,-1
 667 0 l 1,6,-1
 629 0 l 1,7,-1
 167 416 l 1,8,-1
 167 0 l 1,9,-1
 84 0 l 1,0,-1
541 966 m 1,10,-1
 416 800 l 1,11,-1
 334 800 l 1,12,-1
 209 967 l 1,13,-1
 291 967 l 1,14,-1
 375 883 l 1,15,-1
 459 966 l 1,16,-1
 541 966 l 1,10,-1
EndSplineSet
Validated: 1
EndChar

StartChar: ncaron
Encoding: 328 328 267
Width: 666
GlyphClass: 3
Flags: W
LayerCount: 2
Fore
SplineSet
84 0 m 1,0,-1
 84 584 l 1,1,-1
 250 584 l 1,2,-1
 250 500 l 1,3,4
 255 542 255 542 276 563 c 128,-1,5
 297 584 297 584 334 584 c 2,6,-1
 417 584 l 2,7,8
 486 584 486 584 535 534.5 c 128,-1,9
 584 485 584 485 584 416 c 2,10,-1
 584 0 l 1,11,-1
 417 0 l 1,12,-1
 417 416 l 2,13,14
 417 451 417 451 392.5 475.5 c 128,-1,15
 368 500 368 500 334 500 c 0,16,17
 299 500 299 500 274.5 475.5 c 128,-1,18
 250 451 250 451 250 416 c 2,19,-1
 250 0 l 1,20,-1
 84 0 l 1,0,-1
500 800 m 1,21,-1
 375 633 l 1,22,-1
 292 633 l 1,23,-1
 167 800 l 1,24,-1
 250 800 l 1,25,-1
 334 717 l 1,26,-1
 417 800 l 1,27,-1
 500 800 l 1,21,-1
EndSplineSet
Validated: 1
EndChar

StartChar: Omacron
Encoding: 332 332 269
Width: 666
GlyphClass: 3
Flags: W
LayerCount: 2
Fore
SplineSet
250 750 m 2,0,-1
 417 750 l 2,1,2
 486 750 486 750 535 701 c 128,-1,3
 584 652 584 652 584 584 c 2,4,-1
 584 166 l 2,5,6
 584 99 584 99 535 49.5 c 128,-1,7
 486 0 486 0 417 0 c 2,8,-1
 250 0 l 2,9,10
 182 0 182 0 133 49 c 128,-1,11
 84 98 84 98 84 166 c 2,12,-1
 84 584 l 2,13,14
 84 652 84 652 133 701 c 128,-1,15
 182 750 182 750 250 750 c 2,0,-1
250 584 m 2,16,-1
 250 166 l 2,17,18
 250 133 250 133 274.5 108.5 c 128,-1,19
 299 84 299 84 334 84 c 0,20,21
 368 84 368 84 392.5 108.5 c 128,-1,22
 417 133 417 133 417 166 c 2,23,-1
 417 584 l 2,24,25
 417 618 417 618 392.5 642 c 128,-1,26
 368 666 368 666 334 666 c 0,27,28
 299 666 299 666 274.5 642 c 128,-1,29
 250 618 250 618 250 584 c 2,16,-1
167 800 m 1,30,-1
 167 883 l 1,31,-1
 500 883 l 1,32,-1
 500 800 l 1,33,-1
 167 800 l 1,30,-1
EndSplineSet
Validated: 1
EndChar

StartChar: omacron
Encoding: 333 333 270
Width: 666
GlyphClass: 3
Flags: W
LayerCount: 2
Fore
SplineSet
250 584 m 2,0,-1
 417 584 l 2,1,2
 486 584 486 584 535 534.5 c 128,-1,3
 584 485 584 485 584 416 c 2,4,-1
 584 166 l 2,5,6
 584 99 584 99 535 49.5 c 128,-1,7
 486 0 486 0 417 0 c 2,8,-1
 250 0 l 2,9,10
 182 0 182 0 133 49 c 128,-1,11
 84 98 84 98 84 166 c 2,12,-1
 84 416 l 2,13,14
 84 486 84 486 133 535 c 128,-1,15
 182 584 182 584 250 584 c 2,0,-1
250 416 m 2,16,-1
 250 166 l 2,17,18
 250 133 250 133 274.5 108.5 c 128,-1,19
 299 84 299 84 334 84 c 0,20,21
 368 84 368 84 392.5 108.5 c 128,-1,22
 417 133 417 133 417 166 c 2,23,-1
 417 416 l 2,24,25
 417 451 417 451 392.5 475.5 c 128,-1,26
 368 500 368 500 334 500 c 0,27,28
 299 500 299 500 274.5 475.5 c 128,-1,29
 250 451 250 451 250 416 c 2,16,-1
167 633 m 1,30,-1
 167 717 l 1,31,-1
 500 717 l 1,32,-1
 500 633 l 1,33,-1
 167 633 l 1,30,-1
EndSplineSet
Validated: 1
EndChar

StartChar: Obreve
Encoding: 334 334 271
Width: 666
GlyphClass: 3
Flags: W
LayerCount: 2
Fore
SplineSet
250 750 m 2,0,-1
 417 750 l 2,1,2
 486 750 486 750 535 701 c 128,-1,3
 584 652 584 652 584 584 c 2,4,-1
 584 166 l 2,5,6
 584 99 584 99 535 49.5 c 128,-1,7
 486 0 486 0 417 0 c 2,8,-1
 250 0 l 2,9,10
 182 0 182 0 133 49 c 128,-1,11
 84 98 84 98 84 166 c 2,12,-1
 84 584 l 2,13,14
 84 652 84 652 133 701 c 128,-1,15
 182 750 182 750 250 750 c 2,0,-1
250 584 m 2,16,-1
 250 166 l 2,17,18
 250 133 250 133 274.5 108.5 c 128,-1,19
 299 84 299 84 334 84 c 0,20,21
 368 84 368 84 392.5 108.5 c 128,-1,22
 417 133 417 133 417 166 c 2,23,-1
 417 584 l 2,24,25
 417 618 417 618 392.5 642 c 128,-1,26
 368 666 368 666 334 666 c 0,27,28
 299 666 299 666 274.5 642 c 128,-1,29
 250 618 250 618 250 584 c 2,16,-1
417 967 m 1,30,-1
 500 967 l 1,31,32
 481 800 481 800 334 800 c 256,33,34
 187 800 187 800 167 967 c 1,35,-1
 250 967 l 1,36,37
 260 883 260 883 334 883 c 0,38,39
 407 883 407 883 417 967 c 1,30,-1
EndSplineSet
Validated: 1
EndChar

StartChar: obreve
Encoding: 335 335 272
Width: 666
GlyphClass: 3
Flags: W
LayerCount: 2
Fore
SplineSet
250 584 m 2,0,-1
 417 584 l 2,1,2
 486 584 486 584 535 534.5 c 128,-1,3
 584 485 584 485 584 416 c 2,4,-1
 584 166 l 2,5,6
 584 99 584 99 535 49.5 c 128,-1,7
 486 0 486 0 417 0 c 2,8,-1
 250 0 l 2,9,10
 182 0 182 0 133 49 c 128,-1,11
 84 98 84 98 84 166 c 2,12,-1
 84 416 l 2,13,14
 84 486 84 486 133 535 c 128,-1,15
 182 584 182 584 250 584 c 2,0,-1
250 416 m 2,16,-1
 250 166 l 2,17,18
 250 133 250 133 274.5 108.5 c 128,-1,19
 299 84 299 84 334 84 c 0,20,21
 368 84 368 84 392.5 108.5 c 128,-1,22
 417 133 417 133 417 166 c 2,23,-1
 417 416 l 2,24,25
 417 451 417 451 392.5 475.5 c 128,-1,26
 368 500 368 500 334 500 c 0,27,28
 299 500 299 500 274.5 475.5 c 128,-1,29
 250 451 250 451 250 416 c 2,16,-1
417 800 m 1,30,-1
 500 800 l 1,31,32
 481 633 481 633 334 633 c 256,33,34
 187 633 187 633 167 800 c 1,35,-1
 250 800 l 1,36,37
 260 717 260 717 334 717 c 0,38,39
 407 717 407 717 417 800 c 1,30,-1
EndSplineSet
Validated: 1
EndChar

StartChar: Ohungarumlaut
Encoding: 336 336 273
Width: 666
GlyphClass: 3
Flags: W
LayerCount: 2
Fore
SplineSet
250 750 m 2,0,-1
 417 750 l 2,1,2
 486 750 486 750 535 701 c 128,-1,3
 584 652 584 652 584 584 c 2,4,-1
 584 166 l 2,5,6
 584 99 584 99 535 49.5 c 128,-1,7
 486 0 486 0 417 0 c 2,8,-1
 250 0 l 2,9,10
 182 0 182 0 133 49 c 128,-1,11
 84 98 84 98 84 166 c 2,12,-1
 84 584 l 2,13,14
 84 652 84 652 133 701 c 128,-1,15
 182 750 182 750 250 750 c 2,0,-1
250 584 m 2,16,-1
 250 166 l 2,17,18
 250 133 250 133 274.5 108.5 c 128,-1,19
 299 84 299 84 334 84 c 0,20,21
 368 84 368 84 392.5 108.5 c 128,-1,22
 417 133 417 133 417 166 c 2,23,-1
 417 584 l 2,24,25
 417 618 417 618 392.5 642 c 128,-1,26
 368 666 368 666 334 666 c 0,27,28
 299 666 299 666 274.5 642 c 128,-1,29
 250 618 250 618 250 584 c 2,16,-1
209 800 m 1,30,-1
 291 967 l 1,31,-1
 375 967 l 1,32,-1
 291 800 l 1,33,-1
 209 800 l 1,30,-1
375 800 m 1,34,-1
 459 967 l 1,35,-1
 541 967 l 1,36,-1
 459 800 l 1,37,-1
 375 800 l 1,34,-1
EndSplineSet
Validated: 1
EndChar

StartChar: ohungarumlaut
Encoding: 337 337 274
Width: 666
GlyphClass: 3
Flags: W
LayerCount: 2
Fore
SplineSet
250 584 m 2,0,-1
 417 584 l 2,1,2
 486 584 486 584 535 534.5 c 128,-1,3
 584 485 584 485 584 416 c 2,4,-1
 584 166 l 2,5,6
 584 99 584 99 535 49.5 c 128,-1,7
 486 0 486 0 417 0 c 2,8,-1
 250 0 l 2,9,10
 182 0 182 0 133 49 c 128,-1,11
 84 98 84 98 84 166 c 2,12,-1
 84 416 l 2,13,14
 84 486 84 486 133 535 c 128,-1,15
 182 584 182 584 250 584 c 2,0,-1
250 416 m 2,16,-1
 250 166 l 2,17,18
 250 133 250 133 274.5 108.5 c 128,-1,19
 299 84 299 84 334 84 c 0,20,21
 368 84 368 84 392.5 108.5 c 128,-1,22
 417 133 417 133 417 166 c 2,23,-1
 417 416 l 2,24,25
 417 451 417 451 392.5 475.5 c 128,-1,26
 368 500 368 500 334 500 c 0,27,28
 299 500 299 500 274.5 475.5 c 128,-1,29
 250 451 250 451 250 416 c 2,16,-1
209 633 m 1,30,-1
 291 800 l 1,31,-1
 375 800 l 1,32,-1
 291 633 l 1,33,-1
 209 633 l 1,30,-1
375 633 m 1,34,-1
 459 800 l 1,35,-1
 541 800 l 1,36,-1
 459 633 l 1,37,-1
 375 633 l 1,34,-1
EndSplineSet
Validated: 1
EndChar

StartChar: OE
Encoding: 338 338 275
Width: 917
GlyphClass: 2
Flags: W
LayerCount: 2
Fore
SplineSet
833 750 m 1,0,-1
 833 667 l 1,1,-1
 583 667 l 1,2,-1
 583 417 l 1,3,-1
 750 417 l 1,4,-1
 750 333 l 1,5,-1
 583 333 l 1,6,-1
 583 83 l 1,7,-1
 833 83 l 1,8,-1
 833 0 l 1,9,-1
 250 0 l 2,10,11
 182 0 182 0 132.5 49 c 128,-1,12
 83 98 83 98 83 167 c 2,13,-1
 83 583 l 2,14,15
 83 652 83 652 132.5 701 c 128,-1,16
 182 750 182 750 250 750 c 2,17,-1
 833 750 l 1,0,-1
250 583 m 2,18,-1
 250 167 l 2,19,20
 250 133 250 133 274.5 108 c 128,-1,21
 299 83 299 83 333 83 c 0,22,23
 368 83 368 83 392.5 108 c 128,-1,24
 417 133 417 133 417 167 c 2,25,-1
 417 583 l 2,26,27
 417 618 417 618 392.5 642.5 c 128,-1,28
 368 667 368 667 333 667 c 0,29,30
 299 667 299 667 274.5 642.5 c 128,-1,31
 250 618 250 618 250 583 c 2,18,-1
EndSplineSet
Validated: 1
EndChar

StartChar: oe
Encoding: 339 339 276
Width: 1000
GlyphClass: 2
Flags: W
LayerCount: 2
Fore
SplineSet
583 250 m 1,0,-1
 583 167 l 2,1,2
 583 133 583 133 607.5 108 c 128,-1,3
 632 83 632 83 667 83 c 2,4,-1
 750 83 l 2,5,6
 833 83 833 83 833 167 c 1,7,-1
 917 167 l 1,8,9
 897 0 897 0 750 0 c 2,10,-1
 583 0 l 2,11,12
 542 0 542 0 500 22 c 1,13,14
 458 0 458 0 417 0 c 2,15,-1
 250 0 l 2,16,17
 182 0 182 0 132.5 49 c 128,-1,18
 83 98 83 98 83 167 c 2,19,-1
 83 417 l 2,20,21
 83 485 83 485 132.5 534 c 128,-1,22
 182 583 182 583 250 583 c 2,23,-1
 417 583 l 2,24,25
 458 583 458 583 500 561 c 1,26,27
 542 583 542 583 583 583 c 2,28,-1
 750 583 l 2,29,30
 818 583 818 583 867.5 534 c 128,-1,31
 917 485 917 485 917 417 c 2,32,-1
 917 250 l 1,33,-1
 583 250 l 1,0,-1
250 417 m 2,34,-1
 250 167 l 2,35,36
 250 133 250 133 274.5 108 c 128,-1,37
 299 83 299 83 333 83 c 0,38,39
 368 83 368 83 392.5 108 c 128,-1,40
 417 133 417 133 417 167 c 2,41,-1
 417 417 l 2,42,43
 417 451 417 451 392.5 475.5 c 128,-1,44
 368 500 368 500 333 500 c 0,45,46
 299 500 299 500 274.5 475.5 c 128,-1,47
 250 451 250 451 250 417 c 2,34,-1
583 333 m 1,48,-1
 750 333 l 1,49,-1
 750 417 l 2,50,51
 750 450 750 450 725.5 475 c 128,-1,52
 701 500 701 500 667 500 c 256,53,54
 633 500 633 500 608 475.5 c 128,-1,55
 583 451 583 451 583 417 c 2,56,-1
 583 333 l 1,48,-1
EndSplineSet
Validated: 1
EndChar

StartChar: Racute
Encoding: 340 340 277
Width: 666
GlyphClass: 3
Flags: W
LayerCount: 2
Fore
SplineSet
84 0 m 1,0,-1
 84 750 l 1,1,-1
 417 750 l 2,2,3
 486 750 486 750 535 701 c 128,-1,4
 584 652 584 652 584 584 c 2,5,-1
 584 538 l 2,6,7
 584 482 584 482 545.5 430.5 c 128,-1,8
 507 379 507 379 417 379 c 1,9,-1
 500 379 l 2,10,11
 534 379 534 379 559 354.5 c 128,-1,12
 584 330 584 330 584 295 c 2,13,-1
 584 0 l 1,14,-1
 417 0 l 1,15,-1
 417 250 l 2,16,17
 417 284 417 284 392.5 309 c 128,-1,18
 368 334 368 334 334 334 c 2,19,-1
 250 334 l 1,20,-1
 250 0 l 1,21,-1
 84 0 l 1,0,-1
250 416 m 1,22,-1
 334 416 l 2,23,24
 368 416 368 416 392.5 441 c 128,-1,25
 417 466 417 466 417 500 c 2,26,-1
 417 584 l 2,27,28
 417 618 417 618 392.5 642 c 128,-1,29
 368 666 368 666 334 666 c 2,30,-1
 250 666 l 1,31,-1
 250 416 l 1,22,-1
250 800 m 1,32,-1
 334 967 l 1,33,-1
 417 967 l 1,34,-1
 334 800 l 1,35,-1
 250 800 l 1,32,-1
EndSplineSet
Validated: 1
EndChar

StartChar: racute
Encoding: 341 341 278
Width: 500
GlyphClass: 3
Flags: W
LayerCount: 2
Fore
SplineSet
250 0 m 1,0,-1
 84 0 l 1,1,-1
 84 584 l 1,2,-1
 250 584 l 1,3,-1
 250 416 l 1,4,5
 260 500 260 500 301.5 542 c 128,-1,6
 343 584 343 584 417 584 c 2,7,-1
 500 584 l 1,8,-1
 500 416 l 1,9,-1
 334 416 l 2,10,11
 299 416 299 416 274.5 392 c 128,-1,12
 250 368 250 368 250 334 c 2,13,-1
 250 0 l 1,0,-1
208 633 m 1,14,-1
 291 800 l 1,15,-1
 375 800 l 1,16,-1
 291 633 l 1,17,-1
 208 633 l 1,14,-1
EndSplineSet
Validated: 1
EndChar

StartChar: Rcommaaccent
Encoding: 342 342 279
Width: 666
GlyphClass: 3
Flags: W
LayerCount: 2
Fore
SplineSet
84 0 m 1,0,-1
 84 750 l 1,1,-1
 417 750 l 2,2,3
 486 750 486 750 535 701 c 128,-1,4
 584 652 584 652 584 584 c 2,5,-1
 584 538 l 2,6,7
 584 482 584 482 545.5 430.5 c 128,-1,8
 507 379 507 379 417 379 c 1,9,-1
 500 379 l 2,10,11
 534 379 534 379 559 354.5 c 128,-1,12
 584 330 584 330 584 295 c 2,13,-1
 584 0 l 1,14,-1
 417 0 l 1,15,-1
 417 250 l 2,16,17
 417 284 417 284 392.5 309 c 128,-1,18
 368 334 368 334 334 334 c 2,19,-1
 250 334 l 1,20,-1
 250 0 l 1,21,-1
 84 0 l 1,0,-1
250 416 m 1,22,-1
 334 416 l 2,23,24
 368 416 368 416 392.5 441 c 128,-1,25
 417 466 417 466 417 500 c 2,26,-1
 417 584 l 2,27,28
 417 618 417 618 392.5 642 c 128,-1,29
 368 666 368 666 334 666 c 2,30,-1
 250 666 l 1,31,-1
 250 416 l 1,22,-1
413 -116 m 1,32,-1
 512 -116 l 1,33,-1
 512 -216 l 2,34,35
 512 -305 512 -305 413 -316 c 1,36,-1
 413 -267 l 1,37,38
 461 -265 461 -265 463 -216 c 1,39,-1
 413 -216 l 1,40,-1
 413 -116 l 1,32,-1
EndSplineSet
Validated: 1
EndChar

StartChar: rcommaaccent
Encoding: 343 343 280
Width: 500
GlyphClass: 3
Flags: W
LayerCount: 2
Fore
SplineSet
250 0 m 1,0,-1
 84 0 l 1,1,-1
 84 584 l 1,2,-1
 250 584 l 1,3,-1
 250 416 l 1,4,5
 260 500 260 500 301.5 542 c 128,-1,6
 343 584 343 584 417 584 c 2,7,-1
 500 584 l 1,8,-1
 500 416 l 1,9,-1
 334 416 l 2,10,11
 299 416 299 416 274.5 392 c 128,-1,12
 250 368 250 368 250 334 c 2,13,-1
 250 0 l 1,0,-1
197 -116 m 1,14,-1
 296 -116 l 1,15,-1
 296 -216 l 2,16,17
 296 -305 296 -305 197 -316 c 1,18,-1
 197 -267 l 1,19,20
 245 -265 245 -265 246 -216 c 1,21,-1
 197 -216 l 1,22,-1
 197 -116 l 1,14,-1
EndSplineSet
Validated: 1
EndChar

StartChar: Rcaron
Encoding: 344 344 281
Width: 666
GlyphClass: 3
Flags: W
LayerCount: 2
Fore
SplineSet
84 0 m 1,0,-1
 84 750 l 1,1,-1
 417 750 l 2,2,3
 486 750 486 750 535 701 c 128,-1,4
 584 652 584 652 584 584 c 2,5,-1
 584 538 l 2,6,7
 584 482 584 482 545.5 430.5 c 128,-1,8
 507 379 507 379 417 379 c 1,9,-1
 500 379 l 2,10,11
 534 379 534 379 559 354.5 c 128,-1,12
 584 330 584 330 584 295 c 2,13,-1
 584 0 l 1,14,-1
 417 0 l 1,15,-1
 417 250 l 2,16,17
 417 284 417 284 392.5 309 c 128,-1,18
 368 334 368 334 334 334 c 2,19,-1
 250 334 l 1,20,-1
 250 0 l 1,21,-1
 84 0 l 1,0,-1
250 416 m 1,22,-1
 334 416 l 2,23,24
 368 416 368 416 392.5 441 c 128,-1,25
 417 466 417 466 417 500 c 2,26,-1
 417 584 l 2,27,28
 417 618 417 618 392.5 642 c 128,-1,29
 368 666 368 666 334 666 c 2,30,-1
 250 666 l 1,31,-1
 250 416 l 1,22,-1
458 966 m 1,32,-1
 333 800 l 1,33,-1
 250 800 l 1,34,-1
 125 967 l 1,35,-1
 208 967 l 1,36,-1
 291 883 l 1,37,-1
 375 966 l 1,38,-1
 458 966 l 1,32,-1
EndSplineSet
Validated: 1
EndChar

StartChar: rcaron
Encoding: 345 345 282
Width: 500
GlyphClass: 3
Flags: W
LayerCount: 2
Fore
SplineSet
250 0 m 1,0,-1
 84 0 l 1,1,-1
 84 584 l 1,2,-1
 250 584 l 1,3,-1
 250 416 l 1,4,5
 260 500 260 500 301.5 542 c 128,-1,6
 343 584 343 584 417 584 c 2,7,-1
 500 584 l 1,8,-1
 500 416 l 1,9,-1
 334 416 l 2,10,11
 299 416 299 416 274.5 392 c 128,-1,12
 250 368 250 368 250 334 c 2,13,-1
 250 0 l 1,0,-1
458 800 m 1,14,-1
 333 633 l 1,15,-1
 250 633 l 1,16,-1
 125 800 l 1,17,-1
 208 800 l 1,18,-1
 291 717 l 1,19,-1
 375 800 l 1,20,-1
 458 800 l 1,14,-1
EndSplineSet
Validated: 1
EndChar

StartChar: Sacute
Encoding: 346 346 283
Width: 584
GlyphClass: 3
Flags: W
LayerCount: 2
Fore
SplineSet
500 584 m 1,0,-1
 417 584 l 1,1,2
 406 667 406 667 338 667 c 0,3,4
 295 667 295 667 272.5 646 c 128,-1,5
 250 625 250 625 250 583 c 0,6,7
 250 552 250 552 275 525 c 2,8,-1
 451 326 l 2,9,10
 500 271 500 271 500 209 c 2,11,-1
 500 166 l 2,12,13
 500 99 500 99 451 49.5 c 128,-1,14
 402 0 402 0 334 0 c 2,15,-1
 250 0 l 2,16,17
 167 0 167 0 125.5 42 c 128,-1,18
 84 84 84 84 84 166 c 1,19,-1
 167 166 l 1,20,21
 166 158 166 158 166 153 c 0,22,23
 166 119 166 119 192.5 101.5 c 128,-1,24
 219 84 219 84 250 84 c 0,25,26
 295 84 295 84 314.5 105.5 c 128,-1,27
 334 127 334 127 334 168 c 0,28,29
 334 199 334 199 309 226 c 2,30,-1
 132 424 l 2,31,32
 84 478 84 478 84 541 c 2,33,-1
 84 584 l 2,34,35
 84 652 84 652 132.5 701 c 128,-1,36
 181 750 181 750 250 750 c 2,37,-1
 334 750 l 2,38,39
 490 750 490 750 500 584 c 1,0,-1
208 800 m 1,40,-1
 291 967 l 1,41,-1
 375 967 l 1,42,-1
 291 800 l 1,43,-1
 208 800 l 1,40,-1
EndSplineSet
Validated: 1
EndChar

StartChar: sacute
Encoding: 347 347 284
Width: 584
GlyphClass: 3
Flags: W
LayerCount: 2
Fore
SplineSet
500 416 m 1,0,-1
 417 416 l 1,1,2
 406 500 406 500 338 500 c 0,3,4
 294 500 294 500 272 482.5 c 128,-1,5
 250 465 250 465 250 431 c 0,6,7
 250 395 250 395 371 330 c 0,8,9
 470 277 470 277 485 242 c 128,-1,10
 500 207 500 207 500 168 c 0,11,12
 500 98 500 98 451 49 c 128,-1,13
 402 0 402 0 334 0 c 2,14,-1
 250 0 l 2,15,16
 84 0 84 0 84 166 c 1,17,-1
 167 166 l 1,18,19
 177 83 177 83 245 83 c 0,20,21
 289 83 289 83 311.5 100.5 c 128,-1,22
 334 118 334 118 334 153 c 256,23,24
 334 188 334 188 213 254 c 0,25,26
 114 306 114 306 99 341.5 c 128,-1,27
 84 377 84 377 84 416 c 0,28,29
 84 486 84 486 133 535 c 128,-1,30
 182 584 182 584 250 584 c 2,31,-1
 334 584 l 2,32,33
 490 584 490 584 500 416 c 1,0,-1
208 633 m 1,34,-1
 291 800 l 1,35,-1
 375 800 l 1,36,-1
 291 633 l 1,37,-1
 208 633 l 1,34,-1
EndSplineSet
Validated: 1
EndChar

StartChar: Scircumflex
Encoding: 348 348 285
Width: 584
GlyphClass: 3
Flags: W
LayerCount: 2
Fore
SplineSet
500 584 m 1,0,-1
 417 584 l 1,1,2
 406 667 406 667 338 667 c 0,3,4
 295 667 295 667 272.5 646 c 128,-1,5
 250 625 250 625 250 583 c 0,6,7
 250 552 250 552 275 525 c 2,8,-1
 451 326 l 2,9,10
 500 271 500 271 500 209 c 2,11,-1
 500 166 l 2,12,13
 500 99 500 99 451 49.5 c 128,-1,14
 402 0 402 0 334 0 c 2,15,-1
 250 0 l 2,16,17
 167 0 167 0 125.5 42 c 128,-1,18
 84 84 84 84 84 166 c 1,19,-1
 167 166 l 1,20,21
 166 158 166 158 166 153 c 0,22,23
 166 119 166 119 192.5 101.5 c 128,-1,24
 219 84 219 84 250 84 c 0,25,26
 295 84 295 84 314.5 105.5 c 128,-1,27
 334 127 334 127 334 168 c 0,28,29
 334 199 334 199 309 226 c 2,30,-1
 132 424 l 2,31,32
 84 478 84 478 84 541 c 2,33,-1
 84 584 l 2,34,35
 84 652 84 652 132.5 701 c 128,-1,36
 181 750 181 750 250 750 c 2,37,-1
 334 750 l 2,38,39
 490 750 490 750 500 584 c 1,0,-1
125 800 m 1,40,-1
 250 967 l 1,41,-1
 333 967 l 1,42,-1
 458 800 l 1,43,-1
 375 800 l 1,44,-1
 291 883 l 1,45,-1
 208 800 l 1,46,-1
 125 800 l 1,40,-1
EndSplineSet
Validated: 1
EndChar

StartChar: scircumflex
Encoding: 349 349 286
Width: 584
GlyphClass: 3
Flags: W
LayerCount: 2
Fore
SplineSet
500 416 m 1,0,-1
 417 416 l 1,1,2
 406 500 406 500 338 500 c 0,3,4
 294 500 294 500 272 482.5 c 128,-1,5
 250 465 250 465 250 431 c 0,6,7
 250 395 250 395 371 330 c 0,8,9
 470 277 470 277 485 242 c 128,-1,10
 500 207 500 207 500 168 c 0,11,12
 500 98 500 98 451 49 c 128,-1,13
 402 0 402 0 334 0 c 2,14,-1
 250 0 l 2,15,16
 84 0 84 0 84 166 c 1,17,-1
 167 166 l 1,18,19
 177 83 177 83 245 83 c 0,20,21
 289 83 289 83 311.5 100.5 c 128,-1,22
 334 118 334 118 334 153 c 256,23,24
 334 188 334 188 213 254 c 0,25,26
 114 306 114 306 99 341.5 c 128,-1,27
 84 377 84 377 84 416 c 0,28,29
 84 486 84 486 133 535 c 128,-1,30
 182 584 182 584 250 584 c 2,31,-1
 334 584 l 2,32,33
 490 584 490 584 500 416 c 1,0,-1
125 633 m 1,34,-1
 250 800 l 1,35,-1
 333 800 l 1,36,-1
 458 633 l 1,37,-1
 375 633 l 1,38,-1
 291 717 l 1,39,-1
 208 633 l 1,40,-1
 125 633 l 1,34,-1
EndSplineSet
Validated: 1
EndChar

